999
"DXF R12 Output" (www.mydxf.blogspot.com)
 0 
SECTION
 2 
HEADER
 9 
$ACADVER
 1 
AC1009
 9 
$EXTMIN
 10 
 0 
 20 
 0 
 9 
$EXTMAX
 10 
 8.5 
 20 
 11 
 0 
ENDSEC
 0 
SECTION
 2 
ENTITIES
0
LINE
8
Layer 1
10
90.000000
20
481.500000
11
105.000000
21
481.500000
0
LINE
8
Layer 1
10
105.000000
20
481.500000
11
105.000000
21
476.500000
0
LINE
8
Layer 1
10
105.000000
20
476.500000
11
140.000000
21
476.500000
0
LINE
8
Layer 1
10
140.000000
20
476.500000
11
140.000000
21
481.500000
0
LINE
8
Layer 1
10
140.000000
20
481.500000
11
190.000000
21
481.500000
0
LINE
8
Layer 1
10
190.000000
20
481.500000
11
190.000000
21
476.500000
0
LINE
8
Layer 1
10
190.000000
20
476.500000
11
225.000000
21
476.500000
0
LINE
8
Layer 1
10
225.000000
20
476.500000
11
225.000000
21
481.500000
0
LINE
8
Layer 1
10
225.000000
20
481.500000
11
240.000000
21
481.500000
0
LINE
8
Layer 1
10
240.000000
20
481.500000
11
240.000000
21
456.500000
0
LINE
8
Layer 1
10
240.000000
20
456.500000
11
235.000000
21
456.500000
0
LINE
8
Layer 1
10
235.000000
20
456.500000
11
235.000000
21
366.500000
0
LINE
8
Layer 1
10
235.000000
20
366.500000
11
240.000000
21
366.500000
0
LINE
8
Layer 1
10
240.000000
20
366.500000
11
240.000000
21
341.500000
0
LINE
8
Layer 1
10
240.000000
20
341.500000
11
90.000000
21
341.500000
0
LINE
8
Layer 1
10
90.000000
20
341.500000
11
90.000000
21
366.500000
0
LINE
8
Layer 1
10
90.000000
20
366.500000
11
95.000000
21
366.500000
0
LINE
8
Layer 1
10
95.000000
20
366.500000
11
95.000000
21
456.500000
0
LINE
8
Layer 1
10
95.000000
20
456.500000
11
90.000000
21
456.500000
0
LINE
8
Layer 1
10
90.000000
20
456.500000
11
90.000000
21
481.500000
0
LINE
8
Layer 1
10
90.000000
20
339.000000
11
105.000000
21
339.000000
0
LINE
8
Layer 1
10
105.000000
20
339.000000
11
105.000000
21
334.000000
0
LINE
8
Layer 1
10
105.000000
20
334.000000
11
140.000000
21
334.000000
0
LINE
8
Layer 1
10
140.000000
20
334.000000
11
140.000000
21
339.000000
0
LINE
8
Layer 1
10
140.000000
20
339.000000
11
190.000000
21
339.000000
0
LINE
8
Layer 1
10
190.000000
20
339.000000
11
190.000000
21
334.000000
0
LINE
8
Layer 1
10
190.000000
20
334.000000
11
225.000000
21
334.000000
0
LINE
8
Layer 1
10
225.000000
20
334.000000
11
225.000000
21
339.000000
0
LINE
8
Layer 1
10
225.000000
20
339.000000
11
240.000000
21
339.000000
0
LINE
8
Layer 1
10
240.000000
20
339.000000
11
240.000000
21
314.000000
0
LINE
8
Layer 1
10
240.000000
20
314.000000
11
235.000000
21
314.000000
0
LINE
8
Layer 1
10
235.000000
20
314.000000
11
235.000000
21
224.000000
0
LINE
8
Layer 1
10
235.000000
20
224.000000
11
240.000000
21
224.000000
0
LINE
8
Layer 1
10
240.000000
20
224.000000
11
240.000000
21
199.000000
0
LINE
8
Layer 1
10
240.000000
20
199.000000
11
90.000000
21
199.000000
0
LINE
8
Layer 1
10
90.000000
20
199.000000
11
90.000001
21
224.000000
0
LINE
8
Layer 1
10
90.000001
20
224.000000
11
95.000000
21
224.000000
0
LINE
8
Layer 1
10
95.000000
20
224.000000
11
95.000000
21
314.000000
0
LINE
8
Layer 1
10
95.000000
20
314.000000
11
90.000000
21
314.000000
0
LINE
8
Layer 1
10
90.000000
20
314.000000
11
90.000000
21
339.000000
0
LINE
8
Layer 1
10
35.000000
20
339.000000
11
35.000000
21
314.000000
0
LINE
8
Layer 1
10
35.000000
20
314.000000
11
30.000000
21
314.000000
0
LINE
8
Layer 1
10
30.000000
20
314.000000
11
30.000000
21
224.000000
0
LINE
8
Layer 1
10
30.000000
20
224.000000
11
35.000000
21
224.000000
0
LINE
8
Layer 1
10
35.000000
20
224.000000
11
35.000000
21
199.000000
0
LINE
8
Layer 1
10
35.000000
20
199.000000
11
80.000000
21
199.000000
0
LINE
8
Layer 1
10
80.000000
20
199.000000
11
80.000000
21
224.000000
0
LINE
8
Layer 1
10
80.000000
20
224.000000
11
85.000000
21
224.000000
0
LINE
8
Layer 1
10
85.000000
20
224.000000
11
85.000000
21
314.000000
0
LINE
8
Layer 1
10
85.000000
20
314.000000
11
80.000000
21
314.000000
0
LINE
8
Layer 1
10
80.000000
20
314.000000
11
80.000000
21
339.000000
0
LINE
8
Layer 1
10
80.000000
20
339.000000
11
75.000000
21
339.000000
0
LINE
8
Layer 1
10
75.000000
20
339.000000
11
75.000000
21
334.000000
0
LINE
8
Layer 1
10
75.000000
20
334.000000
11
40.000000
21
334.000000
0
LINE
8
Layer 1
10
40.000000
20
334.000000
11
40.000020
21
339.000000
0
LINE
8
Layer 1
10
40.000020
20
339.000000
11
35.000000
21
339.000000
0
LINE
8
Layer 1
10
35.000000
20
481.500000
11
35.000000
21
456.500000
0
LINE
8
Layer 1
10
35.000000
20
456.500000
11
30.000000
21
456.500000
0
LINE
8
Layer 1
10
30.000000
20
456.500000
11
30.000000
21
366.500000
0
LINE
8
Layer 1
10
30.000000
20
366.500000
11
35.000000
21
366.500000
0
LINE
8
Layer 1
10
35.000000
20
366.500000
11
35.000000
21
341.500000
0
LINE
8
Layer 1
10
35.000000
20
341.500000
11
80.000000
21
341.500000
0
LINE
8
Layer 1
10
80.000000
20
341.500000
11
80.000000
21
366.500000
0
LINE
8
Layer 1
10
80.000000
20
366.500000
11
85.000000
21
366.500000
0
LINE
8
Layer 1
10
85.000000
20
366.500000
11
85.000000
21
456.500000
0
LINE
8
Layer 1
10
85.000000
20
456.500000
11
80.000000
21
456.500000
0
LINE
8
Layer 1
10
80.000000
20
456.500000
11
80.000000
21
481.500000
0
LINE
8
Layer 1
10
80.000000
20
481.500000
11
75.000000
21
481.500000
0
LINE
8
Layer 1
10
75.000000
20
481.500000
11
75.000000
21
476.500000
0
LINE
8
Layer 1
10
75.000000
20
476.500000
11
40.000000
21
476.500000
0
LINE
8
Layer 1
10
40.000000
20
476.500000
11
40.000000
21
481.500000
0
LINE
8
Layer 1
10
40.000000
20
481.500000
11
35.000000
21
481.500000
0
LINE
8
Layer 1
10
235.000000
20
534.000000
11
235.000000
21
529.000000
0
LINE
8
Layer 1
10
235.000000
20
529.000000
11
240.000000
21
529.000000
0
LINE
8
Layer 1
10
240.000000
20
529.000000
11
240.000000
21
494.000000
0
LINE
8
Layer 1
10
240.000000
20
494.000000
11
235.000000
21
494.000000
0
LINE
8
Layer 1
10
235.000000
20
494.000000
11
235.000000
21
489.000000
0
LINE
8
Layer 1
10
235.000000
20
489.000000
11
225.000000
21
489.000000
0
LINE
8
Layer 1
10
225.000000
20
489.000000
11
225.000000
21
484.000000
0
LINE
8
Layer 1
10
225.000000
20
484.000000
11
190.000000
21
484.000000
0
LINE
8
Layer 1
10
190.000000
20
484.000000
11
190.000000
21
489.000000
0
LINE
8
Layer 1
10
190.000000
20
489.000000
11
140.000000
21
489.000000
0
LINE
8
Layer 1
10
140.000000
20
489.000000
11
140.000000
21
484.000000
0
LINE
8
Layer 1
10
140.000000
20
484.000000
11
105.000000
21
484.000000
0
LINE
8
Layer 1
10
105.000000
20
484.000000
11
105.000000
21
489.000000
0
LINE
8
Layer 1
10
105.000000
20
489.000000
11
95.000000
21
489.000000
0
LINE
8
Layer 1
10
95.000000
20
489.000000
11
95.000000
21
494.000000
0
LINE
8
Layer 1
10
95.000000
20
494.000000
11
90.000000
21
494.000000
0
LINE
8
Layer 1
10
90.000000
20
494.000000
11
90.000000
21
529.000000
0
LINE
8
Layer 1
10
90.000000
20
529.000000
11
95.000000
21
529.000000
0
LINE
8
Layer 1
10
95.000000
20
529.000000
11
95.000000
21
534.000000
0
LINE
8
Layer 1
10
95.000000
20
534.000000
11
105.000000
21
534.000000
0
LINE
8
Layer 1
10
105.000000
20
534.000000
11
105.000000
21
539.000000
0
LINE
8
Layer 1
10
105.000000
20
539.000000
11
140.000000
21
539.000000
0
LINE
8
Layer 1
10
140.000000
20
539.000000
11
140.000000
21
534.000000
0
LINE
8
Layer 1
10
140.000000
20
534.000000
11
190.000000
21
534.000000
0
LINE
8
Layer 1
10
190.000000
20
534.000000
11
190.000000
21
539.000000
0
LINE
8
Layer 1
10
190.000000
20
539.000000
11
225.000000
21
539.000000
0
LINE
8
Layer 1
10
225.000000
20
539.000000
11
225.000000
21
534.000000
0
LINE
8
Layer 1
10
225.000000
20
534.000000
11
235.000000
21
534.000000
 0 
ENDSEC
 0 
EOF