<?xml version="1.0" encoding="UTF-8" standalone="no"?>
<!-- Created with Inkscape (http://www.inkscape.org/) -->

<svg
   width="420mm"
   height="594mm"
   viewBox="0 0 420 594"
   version="1.1"
   id="svg5"
   inkscape:version="1.2.2 (b0a8486541, 2022-12-01)"
   sodipodi:docname="box.svg"
   xmlns:inkscape="http://www.inkscape.org/namespaces/inkscape"
   xmlns:sodipodi="http://sodipodi.sourceforge.net/DTD/sodipodi-0.dtd"
   xmlns="http://www.w3.org/2000/svg"
   xmlns:svg="http://www.w3.org/2000/svg">
  <sodipodi:namedview
     id="namedview7"
     pagecolor="#ffffff"
     bordercolor="#666666"
     borderopacity="1.0"
     inkscape:showpageshadow="2"
     inkscape:pageopacity="0.0"
     inkscape:pagecheckerboard="0"
     inkscape:deskcolor="#d1d1d1"
     inkscape:document-units="mm"
     showgrid="true"
     inkscape:zoom="1.1702184"
     inkscape:cx="503.32484"
     inkscape:cy="413.598"
     inkscape:window-width="1280"
     inkscape:window-height="727"
     inkscape:window-x="0"
     inkscape:window-y="0"
     inkscape:window-maximized="1"
     inkscape:current-layer="layer1">
    <inkscape:grid
       type="xygrid"
       id="grid1115"
       spacingx="0.5"
       spacingy="0.5"
       units="mm" />
  </sodipodi:namedview>
  <defs
     id="defs2" />
  <g
     inkscape:label="Layer 1"
     inkscape:groupmode="layer"
     id="layer1">
    <path
       style="fill:none;stroke:#000000;stroke-width:0.1;stroke-linecap:butt;stroke-linejoin:miter;stroke-dasharray:none;stroke-opacity:1"
       d="M 89.999999,112.5 H 105 v 5 h 35 v -5 h 50 v 5 h 35 v -5 h 15 v 25 l -5,0 0,90 h 5 v 25 H 89.999999 L 90,227.5 h 5 v -90 h -5 z"
       id="path1117"
       sodipodi:nodetypes="ccccccccccccccccccccc" />
    <path
       style="fill:none;stroke:#000000;stroke-width:0.1;stroke-linecap:butt;stroke-linejoin:miter;stroke-dasharray:none;stroke-opacity:1"
       d="m 90,255 h 15 l 0,5 h 35 l 0,-5 h 50 l 0,5 h 35 l 0,-5 h 15 v 25 l -5,0 v 90 h 5 v 25 H 90 l 10e-7,-25 H 95 l 0,-90 -4.999999,0 z"
       id="path1117-6"
       sodipodi:nodetypes="ccccccccccccccccccccc" />
    <path
       style="fill:none;stroke:#000000;stroke-width:0.1;stroke-linecap:butt;stroke-linejoin:miter;stroke-dasharray:none;stroke-opacity:1"
       d="m 35.00002,255 v 25 H 30 v 90 h 5.00002 v 25 H 80 v -25 h 5 V 280 H 80 V 255 H 75.00002 L 75,260 H 40 l 2e-5,-5 z"
       id="path1256"
       sodipodi:nodetypes="ccccccccccccccccc" />
    <path
       style="fill:none;stroke:#000000;stroke-width:0.1;stroke-linecap:butt;stroke-linejoin:miter;stroke-dasharray:none;stroke-opacity:1"
       d="m 35,112.5 v 25 h -5 v 90 h 5 v 25 h 44.99998 v -25 H 85 v -90 h -5.00002 v -25 H 75 l 0,5 H 40 l 0,-5 z"
       id="path1256-3"
       sodipodi:nodetypes="ccccccccccccccccc" />
    <path
       style="fill:none;stroke:#000000;stroke-width:0.1;stroke-linecap:butt;stroke-linejoin:miter;stroke-dasharray:none;stroke-opacity:1"
       d="m 235,60 0,5 5,0 v 35 l -5,0 v 5 l -10,0 v 5 h -35 v -5 h -50 v 5 h -35 v -5 l -10,0 0,-5 -5,0 V 65 l 5,0 v -5 l 10,0 0,-5 h 35 l 0,5 h 50 l 0,-5 h 35 l 0,5 z"
       id="path1376"
       sodipodi:nodetypes="ccccccccccccccccccccccccccccc" />
    <circle
       style="fill:none;stroke:#000000;stroke-width:0.1;stroke-dasharray:none;stroke-opacity:0.993716"
       id="path1391"
       cx="123"
       cy="80"
       r="4.5" />
    <circle
       style="fill:none;stroke:#000000;stroke-width:0.1;stroke-dasharray:none;stroke-opacity:0.993716"
       id="path1393"
       cx="176.5"
       cy="80"
       r="3.5" />
    <circle
       style="fill:none;stroke:#000000;stroke-width:0.1;stroke-dasharray:none;stroke-opacity:0.993716"
       id="path1393-5"
       cx="199"
       cy="80"
       r="3.5" />
    <circle
       style="fill:none;stroke:#000000;stroke-width:0.1;stroke-dasharray:none;stroke-opacity:0.993716"
       id="path1440"
       cx="144.5"
       cy="80"
       r="3" />
    <circle
       style="fill:none;stroke:#000000;stroke-width:0.1;stroke-dasharray:none;stroke-opacity:0.993716"
       id="path2204"
       cx="107.5"
       cy="166.5"
       r="1.5" />
    <circle
       style="fill:none;stroke:#000000;stroke-width:0.1;stroke-dasharray:none;stroke-opacity:0.993716"
       id="path2204-3"
       cx="107.5"
       cy="184.5"
       r="1.5" />
    <circle
       style="fill:none;stroke:#000000;stroke-width:0.1;stroke-dasharray:none;stroke-opacity:0.993716"
       id="path2204-5"
       cx="222.5"
       cy="166"
       r="1.5" />
    <circle
       style="fill:none;stroke:#000000;stroke-width:0.1;stroke-dasharray:none;stroke-opacity:0.993716"
       id="path2204-3-6"
       cx="222.5"
       cy="184"
       r="1.5" />
  </g>
</svg>
