%TF.GenerationSoftware,KiCad,Pcbnew,(6.0.11)*%
%TF.CreationDate,2023-06-06T17:09:24+01:00*%
%TF.ProjectId,Digital Theremin,44696769-7461-46c2-9054-686572656d69,rev?*%
%TF.SameCoordinates,Original*%
%TF.FileFunction,Soldermask,Bot*%
%TF.FilePolarity,Negative*%
%FSLAX46Y46*%
G04 Gerber Fmt 4.6, Leading zero omitted, Abs format (unit mm)*
G04 Created by KiCad (PCBNEW (6.0.11)) date 2023-06-06 17:09:24*
%MOMM*%
%LPD*%
G01*
G04 APERTURE LIST*
%ADD10C,7.400000*%
%ADD11C,2.000000*%
%ADD12C,1.600000*%
%ADD13O,1.600000X1.600000*%
%ADD14C,0.800000*%
%ADD15C,6.400000*%
%ADD16R,1.800000X1.800000*%
%ADD17C,1.800000*%
%ADD18R,1.600000X1.600000*%
%ADD19R,1.700000X1.700000*%
%ADD20O,1.700000X1.700000*%
%ADD21R,2.200000X2.200000*%
%ADD22O,2.200000X2.200000*%
%ADD23R,1.000000X1.000000*%
%ADD24O,1.000000X1.000000*%
%ADD25O,1.200000X2.200000*%
%ADD26O,2.200000X1.200000*%
G04 APERTURE END LIST*
D10*
%TO.C,H2*%
X174650000Y-72330000D03*
%TD*%
%TO.C,H1*%
X101350000Y-72330000D03*
%TD*%
D11*
%TO.C,TP2*%
X91440000Y-90043000D03*
%TD*%
%TO.C,TP1*%
X185166000Y-99060000D03*
%TD*%
D12*
%TO.C,R16*%
X138000000Y-78800000D03*
D13*
X138000000Y-88960000D03*
%TD*%
D12*
%TO.C,R12*%
X168000000Y-84000000D03*
D13*
X168000000Y-94160000D03*
%TD*%
D14*
%TO.C,ANT1*%
X179600000Y-105800000D03*
X184400000Y-105800000D03*
X183697056Y-107497056D03*
D15*
X182000000Y-105800000D03*
D14*
X180302944Y-104102944D03*
X182000000Y-103400000D03*
X183697056Y-104102944D03*
X180302944Y-107497056D03*
X182000000Y-108200000D03*
%TD*%
D16*
%TO.C,D1*%
X117000000Y-64240000D03*
D17*
X117000000Y-66780000D03*
%TD*%
D12*
%TO.C,C16*%
X150450000Y-102400000D03*
X147950000Y-102400000D03*
%TD*%
D18*
%TO.C,U4*%
X96950000Y-93400000D03*
D13*
X96950000Y-95940000D03*
X96950000Y-98480000D03*
X96950000Y-101020000D03*
X104570000Y-101020000D03*
X104570000Y-98480000D03*
X104570000Y-95940000D03*
X104570000Y-93400000D03*
%TD*%
D19*
%TO.C,SP1*%
X130975000Y-114500000D03*
D20*
X133515000Y-114500000D03*
%TD*%
D21*
%TO.C,D5*%
X115500000Y-75920000D03*
D22*
X115500000Y-86080000D03*
%TD*%
D12*
%TO.C,C4*%
X116500000Y-94580000D03*
X119000000Y-94580000D03*
%TD*%
D18*
%TO.C,C6*%
X141948880Y-89500000D03*
D12*
X144448880Y-89500000D03*
%TD*%
%TO.C,R3*%
X122170000Y-73580000D03*
D13*
X132330000Y-73580000D03*
%TD*%
D14*
%TO.C,ANT2*%
X96600000Y-84200000D03*
X92502944Y-82502944D03*
X94200000Y-81800000D03*
X95897056Y-85897056D03*
X95897056Y-82502944D03*
D15*
X94200000Y-84200000D03*
D14*
X91800000Y-84200000D03*
X92502944Y-85897056D03*
X94200000Y-86600000D03*
%TD*%
D19*
%TO.C,J1*%
X100325000Y-122980000D03*
D20*
X102865000Y-122980000D03*
%TD*%
D12*
%TO.C,C9*%
X131000000Y-93500000D03*
X131000000Y-96000000D03*
%TD*%
%TO.C,R10*%
X176280000Y-101600000D03*
D13*
X166120000Y-101600000D03*
%TD*%
D12*
%TO.C,C5*%
X116500000Y-91330000D03*
X119000000Y-91330000D03*
%TD*%
%TO.C,C14*%
X122750000Y-83080000D03*
X122750000Y-80580000D03*
%TD*%
%TO.C,R5*%
X148000000Y-99330000D03*
D13*
X148000000Y-89170000D03*
%TD*%
D19*
%TO.C,J4*%
X141475000Y-84250000D03*
D20*
X144015000Y-84250000D03*
X146555000Y-84250000D03*
%TD*%
D21*
%TO.C,D4*%
X99920000Y-116000000D03*
D22*
X110080000Y-116000000D03*
%TD*%
D18*
%TO.C,U3*%
X178800000Y-96630000D03*
D13*
X178800000Y-94090000D03*
X178800000Y-91550000D03*
X178800000Y-89010000D03*
X171180000Y-89010000D03*
X171180000Y-91550000D03*
X171180000Y-94090000D03*
X171180000Y-96630000D03*
%TD*%
D11*
%TO.C,SW2*%
X162750000Y-69250000D03*
X169250000Y-69250000D03*
X169250000Y-64750000D03*
X162750000Y-64750000D03*
%TD*%
D12*
%TO.C,C3*%
X116550000Y-104000000D03*
X119050000Y-104000000D03*
%TD*%
D16*
%TO.C,D2*%
X125000000Y-64215000D03*
D17*
X125000000Y-66755000D03*
%TD*%
D12*
%TO.C,C13*%
X107000000Y-93120000D03*
X109500000Y-93120000D03*
%TD*%
%TO.C,C12*%
X168500000Y-97000000D03*
X166000000Y-97000000D03*
%TD*%
%TO.C,R2*%
X120920000Y-70330000D03*
D13*
X131080000Y-70330000D03*
%TD*%
D18*
%TO.C,C8*%
X136600000Y-98819328D03*
D12*
X136600000Y-101319328D03*
%TD*%
D18*
%TO.C,C7*%
X143250000Y-95653992D03*
D12*
X143250000Y-98153992D03*
%TD*%
D19*
%TO.C,RV2*%
X139000000Y-64830000D03*
D20*
X141540000Y-64830000D03*
X144080000Y-64830000D03*
%TD*%
D12*
%TO.C,R1*%
X107920000Y-70330000D03*
D13*
X118080000Y-70330000D03*
%TD*%
D16*
%TO.C,D3*%
X133000000Y-64240000D03*
D17*
X133000000Y-66780000D03*
%TD*%
D19*
%TO.C,RV1*%
X100000000Y-65000000D03*
D20*
X102540000Y-65000000D03*
X105080000Y-65000000D03*
%TD*%
D19*
%TO.C,SW3*%
X146775000Y-107250000D03*
D20*
X144235000Y-107250000D03*
X141695000Y-107250000D03*
%TD*%
D12*
%TO.C,R15*%
X94000000Y-106200000D03*
D13*
X94000000Y-96040000D03*
%TD*%
D12*
%TO.C,R14*%
X107500000Y-106030000D03*
D13*
X107500000Y-95870000D03*
%TD*%
D12*
%TO.C,R17*%
X119000000Y-75500000D03*
D13*
X119000000Y-85660000D03*
%TD*%
D12*
%TO.C,C10*%
X123950000Y-104000000D03*
X126450000Y-104000000D03*
%TD*%
%TO.C,C15*%
X115000000Y-120750000D03*
X112500000Y-120750000D03*
%TD*%
D23*
%TO.C,SWD1*%
X143502890Y-80967784D03*
D24*
X142232890Y-80967784D03*
X143502890Y-79697784D03*
X142232890Y-79697784D03*
X143502890Y-78427784D03*
X142232890Y-78427784D03*
X143502890Y-77157784D03*
X142232890Y-77157784D03*
X143502890Y-75887784D03*
X142232890Y-75887784D03*
%TD*%
D12*
%TO.C,C2*%
X156250000Y-75000000D03*
X156250000Y-72500000D03*
%TD*%
%TO.C,R7*%
X126480000Y-107800000D03*
D13*
X136640000Y-107800000D03*
%TD*%
D12*
%TO.C,R13*%
X181750000Y-84000000D03*
D13*
X181750000Y-94160000D03*
%TD*%
D12*
%TO.C,R4*%
X143670000Y-70330000D03*
D13*
X133510000Y-70330000D03*
%TD*%
D12*
%TO.C,C1*%
X166000000Y-75000000D03*
X166000000Y-72500000D03*
%TD*%
D21*
%TO.C,D6*%
X150000000Y-73420000D03*
D22*
X150000000Y-83580000D03*
%TD*%
D12*
%TO.C,R11*%
X97790000Y-90120000D03*
D13*
X107950000Y-90120000D03*
%TD*%
D25*
%TO.C,J2*%
X145773983Y-115301787D03*
X148273983Y-115301787D03*
D26*
X150773983Y-120301787D03*
D25*
X155773983Y-115301787D03*
X153273983Y-115301787D03*
%TD*%
D11*
%TO.C,SW1*%
X159250000Y-64750000D03*
X152750000Y-64750000D03*
X159250000Y-69250000D03*
X152750000Y-69250000D03*
%TD*%
M02*
