M48
; DRILL file {KiCad (6.0.11)} date Tue 06 Jun 2023 17:21:53 BST
; FORMAT={-:-/ absolute / inch / decimal}
; #@! TF.CreationDate,2023-06-06T17:21:53+01:00
; #@! TF.GenerationSoftware,Kicad,Pcbnew,(6.0.11)
; #@! TF.FileFunction,MixedPlating,1,2
FMAT,2
INCH
; #@! TA.AperFunction,Plated,PTH,ViaDrill
T1C0.0157
; #@! TA.AperFunction,Plated,PTH,ComponentDrill
T2C0.0157
; #@! TA.AperFunction,Plated,PTH,ComponentDrill
T3C0.0197
; #@! TA.AperFunction,Plated,PTH,ComponentDrill
T4C0.0256
; #@! TA.AperFunction,Plated,PTH,ComponentDrill
T5C0.0315
; #@! TA.AperFunction,Plated,PTH,ComponentDrill
T6C0.0354
; #@! TA.AperFunction,Plated,PTH,ComponentDrill
T7C0.0394
; #@! TA.AperFunction,Plated,PTH,ComponentDrill
T8C0.0433
; #@! TA.AperFunction,Plated,PTH,ComponentDrill
T9C0.1260
; #@! TA.AperFunction,Plated,PTH,ComponentDrill
T10C0.1457
; #@! TA.AperFunction,NonPlated,NPTH,ComponentDrill
T11C0.0472
%
G90
G05
T1
X4.2717Y-3.2677
X4.2717Y-3.3071
X4.2913Y-3.4252
X4.311Y-3.2677
X4.311Y-3.3071
X4.311Y-3.8386
X4.3307Y-3.4252
X4.3504Y-3.2677
X4.3504Y-3.3071
X4.3504Y-3.7795
X4.3504Y-3.8386
X4.3701Y-3.4252
X4.3898Y-3.2677
X4.3898Y-3.3071
X4.3898Y-3.5433
X4.3898Y-3.6024
X4.3898Y-3.6614
X4.3898Y-3.7205
X4.3898Y-3.7795
X4.3898Y-3.8386
X4.439Y-3.4941
X4.498Y-3.4941
X4.6181Y-3.2795
X4.6457Y-3.9567
X4.6752Y-3.5335
X4.7638Y-2.9528
X4.811Y-4.6378
X4.8425Y-3.3957
X4.9213Y-3.2283
X4.9213Y-3.4055
X5.0197Y-2.9429
X5.0202Y-3.1894
X5.0414Y-3.1562
X5.0472Y-3.4173
X5.0472Y-3.4567
X5.063Y-4.1024
X5.063Y-4.1417
X5.063Y-4.1811
X5.0699Y-3.1201
X5.0787Y-2.9429
X5.0984Y-3.0807
X5.1181Y-4.1024
X5.1181Y-4.1417
X5.1181Y-4.1811
X5.126Y-3.4173
X5.126Y-3.4567
X5.1575Y-3.0807
X5.1575Y-3.1791
X5.1673Y-3.4941
X5.1732Y-4.1024
X5.1732Y-4.1417
X5.1732Y-4.1811
X5.2067Y-3.1791
X5.2165Y-3.4941
X5.2264Y-3.7795
X5.2283Y-4.1024
X5.2283Y-4.1417
X5.2283Y-4.1811
X5.2559Y-2.9429
X5.2657Y-3.4941
X5.2835Y-4.1024
X5.2835Y-4.1417
X5.2835Y-4.1811
X5.315Y-3.4941
X5.3248Y-3.3661
X5.3445Y-2.9035
X5.3445Y-3.5335
X5.374Y-3.3661
X5.4213Y-4.1024
X5.4213Y-4.1417
X5.4213Y-4.1811
X5.4232Y-3.3661
X5.4331Y-2.9606
X5.4331Y-3.0315
X5.4429Y-3.7303
X5.4488Y-3.315
X5.4606Y-4.1024
X5.4606Y-4.1417
X5.4606Y-4.1811
X5.4823Y-3.3661
X5.5Y-4.1024
X5.5Y-4.1417
X5.5Y-4.1811
X5.5394Y-4.1024
X5.5394Y-4.1417
X5.5787Y-4.1024
X5.5787Y-4.1417
X5.7165Y-4.1024
X5.7559Y-4.1024
X5.7559Y-4.1417
X5.8346Y-4.1024
X5.8346Y-4.1417
X5.8465Y-2.7953
X5.874Y-4.1024
X5.874Y-4.1417
X5.874Y-4.1811
X5.874Y-4.2205
X5.874Y-4.2598
X5.8957Y-3.3858
X5.9055Y-2.815
X5.9055Y-3.5236
X5.9055Y-3.563
X5.9055Y-3.6122
X5.9134Y-4.1024
X5.9134Y-4.1417
X5.9134Y-4.1811
X5.9134Y-4.2205
X5.9134Y-4.2598
X5.9252Y-3.435
X5.9528Y-4.1024
X5.9528Y-4.1417
X5.9528Y-4.1811
X5.9528Y-4.2205
X5.9528Y-4.2598
X5.9744Y-3.1693
X5.9744Y-3.3661
X6.0236Y-3.5335
X6.0236Y-3.6024
X6.0335Y-3.248
X6.0335Y-3.3268
X6.0335Y-3.4154
X6.0335Y-3.4744
X6.0531Y-2.8543
X6.0827Y-3.189
X6.0827Y-3.4154
X6.0827Y-3.4744
X6.0827Y-3.5335
X6.0827Y-3.6024
X6.0925Y-3.248
X6.0925Y-3.3465
X6.122Y-3.7205
X6.122Y-3.7598
X6.122Y-3.7992
X6.122Y-3.8386
X6.122Y-3.878
X6.122Y-3.9173
X6.122Y-3.9567
X6.122Y-3.9961
X6.1319Y-3.189
X6.1319Y-3.2776
X6.1319Y-3.3858
X6.1319Y-3.4744
X6.1319Y-3.5335
X6.1319Y-3.6024
X6.1614Y-3.9173
X6.1614Y-3.9567
X6.1614Y-3.9961
X6.2008Y-3.9567
X6.2008Y-3.9961
X6.2205Y-3.7008
X6.2205Y-3.7402
X6.2205Y-3.7795
X6.2205Y-3.8189
X6.2402Y-3.9961
X6.2795Y-3.7008
X6.2795Y-3.7402
X6.2795Y-3.7795
X6.2795Y-3.8189
X6.2795Y-3.8583
X6.2795Y-3.9961
X6.3189Y-3.7008
X6.3189Y-3.7402
X6.3189Y-3.7795
X6.3189Y-3.8189
X6.3189Y-3.8583
X6.3189Y-3.9961
X6.3937Y-3.8898
X6.3937Y-3.9843
X6.4567Y-3.8898
X6.4567Y-3.9843
X6.5433Y-3.9213
X6.6142Y-4.0472
X6.6378Y-3.9291
X6.6929Y-4.0472
X6.7244Y-3.9134
X6.8583Y-3.811
T3
X3.6142Y-3.315
X3.6418Y-3.2481
X3.6418Y-3.3818
X3.7087Y-3.2205
X3.7087Y-3.4094
X3.7755Y-3.2481
X3.7755Y-3.3818
X3.8031Y-3.315
X7.0709Y-4.1654
X7.0985Y-4.0985
X7.0985Y-4.2322
X7.1654Y-4.0709
X7.1654Y-4.2598
X7.2322Y-4.0985
X7.2322Y-4.2322
X7.2598Y-4.1654
T4
X5.5997Y-2.9877
X5.5997Y-3.0377
X5.5997Y-3.0877
X5.5997Y-3.1377
X5.5997Y-3.1877
X5.6497Y-2.9877
X5.6497Y-3.0377
X5.6497Y-3.0877
X5.6497Y-3.1377
X5.6497Y-3.1877
T5
X3.7008Y-3.7811
X3.7008Y-4.1811
X3.8169Y-3.6772
X3.8169Y-3.7772
X3.8169Y-3.8772
X3.8169Y-3.9772
X3.85Y-3.548
X4.1169Y-3.6772
X4.1169Y-3.7772
X4.1169Y-3.8772
X4.1169Y-3.9772
X4.2126Y-3.6661
X4.2323Y-3.7744
X4.2323Y-4.1744
X4.2488Y-2.7689
X4.25Y-3.548
X4.311Y-3.6661
X4.4291Y-4.7539
X4.5276Y-4.7539
X4.5866Y-3.5957
X4.5866Y-3.7236
X4.5886Y-4.0945
X4.6488Y-2.7689
X4.685Y-2.9724
X4.685Y-3.3724
X4.685Y-3.5957
X4.685Y-3.7236
X4.687Y-4.0945
X4.7606Y-2.7689
X4.8098Y-2.8969
X4.8327Y-3.1724
X4.8327Y-3.2709
X4.8799Y-4.0945
X4.9783Y-4.0945
X4.9795Y-4.2441
X5.1575Y-3.6811
X5.1575Y-3.7795
X5.1606Y-2.7689
X5.2098Y-2.8969
X5.2563Y-2.7689
X5.378Y-3.8905
X5.378Y-3.9889
X5.3795Y-4.2441
X5.4331Y-3.1024
X5.4331Y-3.5024
X5.5885Y-3.5236
X5.6398Y-3.7659
X5.6398Y-3.8643
X5.6563Y-2.7689
X5.687Y-3.5236
X5.8248Y-4.0315
X5.8268Y-3.5106
X5.8268Y-3.9106
X5.9232Y-4.0315
X6.1516Y-2.8543
X6.1516Y-2.9528
X6.5354Y-2.8543
X6.5354Y-2.9528
X6.5354Y-3.8189
X6.5402Y-4.0
X6.6142Y-3.3071
X6.6142Y-3.7071
X6.6339Y-3.8189
X6.7394Y-3.5043
X6.7394Y-3.6043
X6.7394Y-3.7043
X6.7394Y-3.8043
X6.9402Y-4.0
X7.0394Y-3.5043
X7.0394Y-3.6043
X7.0394Y-3.7043
X7.0394Y-3.8043
X7.1555Y-3.3071
X7.1555Y-3.7071
T6
X4.6063Y-2.5291
X4.6063Y-2.6291
X4.9213Y-2.5281
X4.9213Y-2.6281
X5.2362Y-2.5291
X5.2362Y-2.6291
T7
X3.6Y-3.545
X3.937Y-2.5591
X3.9498Y-4.8417
X4.037Y-2.5591
X4.0498Y-4.8417
X4.137Y-2.5591
X5.1565Y-4.5079
X5.2565Y-4.5079
X5.4724Y-2.5524
X5.5699Y-3.3169
X5.5724Y-2.5524
X5.5785Y-4.2224
X5.6699Y-3.3169
X5.6724Y-2.5524
X5.6785Y-4.2224
X5.7699Y-3.3169
X5.7785Y-4.2224
X7.29Y-3.9
T8
X3.9339Y-4.5669
X4.3339Y-4.5669
X4.5472Y-2.989
X4.5472Y-3.389
X5.9055Y-2.8906
X5.9055Y-3.2906
X6.0138Y-2.5492
X6.0138Y-2.7264
X6.2697Y-2.5492
X6.2697Y-2.7264
X6.4075Y-2.5492
X6.4075Y-2.7264
X6.6634Y-2.5492
X6.6634Y-2.7264
T9
X3.7087Y-3.315
X7.1654Y-4.1654
T10
X3.9902Y-2.8476
X6.876Y-2.8476
T11
X5.7391Y-4.7363
X5.7391Y-4.8347
X5.936Y-4.5394
X6.1328Y-4.7363
X6.1328Y-4.8347
T2
G00X5.7391Y-4.5198
M15
G01X5.7391Y-4.5591
M16
G05
G00X5.8376Y-4.5198
M15
G01X5.8376Y-4.5591
M16
G05
G00X5.9163Y-4.7363
M15
G01X5.9557Y-4.7363
M16
G05
G00X6.0344Y-4.5591
M15
G01X6.0344Y-4.5198
M16
G05
G00X6.1328Y-4.5591
M15
G01X6.1328Y-4.5198
M16
G05
T0
M30
