%TF.GenerationSoftware,KiCad,Pcbnew,(6.0.11)*%
%TF.CreationDate,2023-06-06T17:09:23+01:00*%
%TF.ProjectId,Digital Theremin,44696769-7461-46c2-9054-686572656d69,rev?*%
%TF.SameCoordinates,Original*%
%TF.FileFunction,Paste,Top*%
%TF.FilePolarity,Positive*%
%FSLAX46Y46*%
G04 Gerber Fmt 4.6, Leading zero omitted, Abs format (unit mm)*
G04 Created by KiCad (PCBNEW (6.0.11)) date 2023-06-06 17:09:23*
%MOMM*%
%LPD*%
G01*
G04 APERTURE LIST*
G04 Aperture macros list*
%AMRoundRect*
0 Rectangle with rounded corners*
0 $1 Rounding radius*
0 $2 $3 $4 $5 $6 $7 $8 $9 X,Y pos of 4 corners*
0 Add a 4 corners polygon primitive as box body*
4,1,4,$2,$3,$4,$5,$6,$7,$8,$9,$2,$3,0*
0 Add four circle primitives for the rounded corners*
1,1,$1+$1,$2,$3*
1,1,$1+$1,$4,$5*
1,1,$1+$1,$6,$7*
1,1,$1+$1,$8,$9*
0 Add four rect primitives between the rounded corners*
20,1,$1+$1,$2,$3,$4,$5,0*
20,1,$1+$1,$4,$5,$6,$7,0*
20,1,$1+$1,$6,$7,$8,$9,0*
20,1,$1+$1,$8,$9,$2,$3,0*%
G04 Aperture macros list end*
%ADD10R,0.400000X1.400000*%
%ADD11R,2.300000X1.900000*%
%ADD12R,1.800000X1.900000*%
%ADD13RoundRect,0.125000X-0.625000X-0.125000X0.625000X-0.125000X0.625000X0.125000X-0.625000X0.125000X0*%
%ADD14RoundRect,0.125000X-0.125000X-0.625000X0.125000X-0.625000X0.125000X0.625000X-0.125000X0.625000X0*%
%ADD15RoundRect,0.150000X0.150000X-0.512500X0.150000X0.512500X-0.150000X0.512500X-0.150000X-0.512500X0*%
%ADD16RoundRect,0.150000X-0.825000X-0.150000X0.825000X-0.150000X0.825000X0.150000X-0.825000X0.150000X0*%
G04 APERTURE END LIST*
D10*
%TO.C,J3*%
X119700000Y-120450000D03*
X120350000Y-120450000D03*
X121000000Y-120450000D03*
X121650000Y-120450000D03*
X122300000Y-120450000D03*
D11*
X124750000Y-123300000D03*
D12*
X122150000Y-123300000D03*
D11*
X117250000Y-123300000D03*
D12*
X119850000Y-123300000D03*
%TD*%
D13*
%TO.C,U5*%
X126325000Y-78030000D03*
X126325000Y-78830000D03*
X126325000Y-79630000D03*
X126325000Y-80430000D03*
X126325000Y-81230000D03*
X126325000Y-82030000D03*
X126325000Y-82830000D03*
X126325000Y-83630000D03*
D14*
X127700000Y-85005000D03*
X128500000Y-85005000D03*
X129300000Y-85005000D03*
X130100000Y-85005000D03*
X130900000Y-85005000D03*
X131700000Y-85005000D03*
X132500000Y-85005000D03*
X133300000Y-85005000D03*
D13*
X134675000Y-83630000D03*
X134675000Y-82830000D03*
X134675000Y-82030000D03*
X134675000Y-81230000D03*
X134675000Y-80430000D03*
X134675000Y-79630000D03*
X134675000Y-78830000D03*
X134675000Y-78030000D03*
D14*
X133300000Y-76655000D03*
X132500000Y-76655000D03*
X131700000Y-76655000D03*
X130900000Y-76655000D03*
X130100000Y-76655000D03*
X129300000Y-76655000D03*
X128500000Y-76655000D03*
X127700000Y-76655000D03*
%TD*%
D15*
%TO.C,U1*%
X117000000Y-99717500D03*
X117950000Y-99717500D03*
X118900000Y-99717500D03*
X118900000Y-97442500D03*
X117000000Y-97442500D03*
%TD*%
D16*
%TO.C,U2*%
X134000000Y-92210000D03*
X134000000Y-93480000D03*
X134000000Y-94750000D03*
X134000000Y-96020000D03*
X138950000Y-96020000D03*
X138950000Y-94750000D03*
X138950000Y-93480000D03*
X138950000Y-92210000D03*
%TD*%
M02*
