%TF.GenerationSoftware,KiCad,Pcbnew,(6.0.11)*%
%TF.CreationDate,2023-06-06T17:09:23+01:00*%
%TF.ProjectId,Digital Theremin,44696769-7461-46c2-9054-686572656d69,rev?*%
%TF.SameCoordinates,Original*%
%TF.FileFunction,Soldermask,Top*%
%TF.FilePolarity,Negative*%
%FSLAX46Y46*%
G04 Gerber Fmt 4.6, Leading zero omitted, Abs format (unit mm)*
G04 Created by KiCad (PCBNEW (6.0.11)) date 2023-06-06 17:09:23*
%MOMM*%
%LPD*%
G01*
G04 APERTURE LIST*
G04 Aperture macros list*
%AMRoundRect*
0 Rectangle with rounded corners*
0 $1 Rounding radius*
0 $2 $3 $4 $5 $6 $7 $8 $9 X,Y pos of 4 corners*
0 Add a 4 corners polygon primitive as box body*
4,1,4,$2,$3,$4,$5,$6,$7,$8,$9,$2,$3,0*
0 Add four circle primitives for the rounded corners*
1,1,$1+$1,$2,$3*
1,1,$1+$1,$4,$5*
1,1,$1+$1,$6,$7*
1,1,$1+$1,$8,$9*
0 Add four rect primitives between the rounded corners*
20,1,$1+$1,$2,$3,$4,$5,0*
20,1,$1+$1,$4,$5,$6,$7,0*
20,1,$1+$1,$6,$7,$8,$9,0*
20,1,$1+$1,$8,$9,$2,$3,0*%
%AMFreePoly0*
4,1,6,1.000000,0.000000,0.500000,-0.750000,-0.500000,-0.750000,-0.500000,0.750000,0.500000,0.750000,1.000000,0.000000,1.000000,0.000000,$1*%
%AMFreePoly1*
4,1,6,0.500000,-0.750000,-0.650000,-0.750000,-0.150000,0.000000,-0.650000,0.750000,0.500000,0.750000,0.500000,-0.750000,0.500000,-0.750000,$1*%
G04 Aperture macros list end*
%ADD10C,0.150000*%
%ADD11R,0.400000X1.400000*%
%ADD12R,2.300000X1.900000*%
%ADD13R,1.800000X1.900000*%
%ADD14C,7.400000*%
%ADD15C,2.000000*%
%ADD16C,1.600000*%
%ADD17O,1.600000X1.600000*%
%ADD18C,0.800000*%
%ADD19C,6.400000*%
%ADD20R,1.800000X1.800000*%
%ADD21C,1.800000*%
%ADD22R,1.600000X1.600000*%
%ADD23R,1.700000X1.700000*%
%ADD24O,1.700000X1.700000*%
%ADD25R,2.200000X2.200000*%
%ADD26O,2.200000X2.200000*%
%ADD27RoundRect,0.125000X-0.625000X-0.125000X0.625000X-0.125000X0.625000X0.125000X-0.625000X0.125000X0*%
%ADD28RoundRect,0.125000X-0.125000X-0.625000X0.125000X-0.625000X0.125000X0.625000X-0.125000X0.625000X0*%
%ADD29RoundRect,0.150000X0.150000X-0.512500X0.150000X0.512500X-0.150000X0.512500X-0.150000X-0.512500X0*%
%ADD30FreePoly0,180.000000*%
%ADD31FreePoly1,180.000000*%
%ADD32R,1.000000X1.000000*%
%ADD33O,1.000000X1.000000*%
%ADD34O,1.200000X2.200000*%
%ADD35O,2.200000X1.200000*%
%ADD36RoundRect,0.150000X-0.825000X-0.150000X0.825000X-0.150000X0.825000X0.150000X-0.825000X0.150000X0*%
G04 APERTURE END LIST*
D10*
X163047619Y-114647380D02*
X163047619Y-113647380D01*
X163285714Y-113647380D01*
X163428571Y-113695000D01*
X163523809Y-113790238D01*
X163571428Y-113885476D01*
X163619047Y-114075952D01*
X163619047Y-114218809D01*
X163571428Y-114409285D01*
X163523809Y-114504523D01*
X163428571Y-114599761D01*
X163285714Y-114647380D01*
X163047619Y-114647380D01*
X164476190Y-114647380D02*
X164476190Y-114123571D01*
X164428571Y-114028333D01*
X164333333Y-113980714D01*
X164142857Y-113980714D01*
X164047619Y-114028333D01*
X164476190Y-114599761D02*
X164380952Y-114647380D01*
X164142857Y-114647380D01*
X164047619Y-114599761D01*
X164000000Y-114504523D01*
X164000000Y-114409285D01*
X164047619Y-114314047D01*
X164142857Y-114266428D01*
X164380952Y-114266428D01*
X164476190Y-114218809D01*
X164857142Y-113980714D02*
X165095238Y-114647380D01*
X165333333Y-113980714D01*
X165714285Y-114647380D02*
X165714285Y-113980714D01*
X165714285Y-113647380D02*
X165666666Y-113695000D01*
X165714285Y-113742619D01*
X165761904Y-113695000D01*
X165714285Y-113647380D01*
X165714285Y-113742619D01*
X166619047Y-114647380D02*
X166619047Y-113647380D01*
X166619047Y-114599761D02*
X166523809Y-114647380D01*
X166333333Y-114647380D01*
X166238095Y-114599761D01*
X166190476Y-114552142D01*
X166142857Y-114456904D01*
X166142857Y-114171190D01*
X166190476Y-114075952D01*
X166238095Y-114028333D01*
X166333333Y-113980714D01*
X166523809Y-113980714D01*
X166619047Y-114028333D01*
X167857142Y-114647380D02*
X167857142Y-113647380D01*
X168190476Y-114361666D01*
X168523809Y-113647380D01*
X168523809Y-114647380D01*
X169000000Y-114647380D02*
X169000000Y-113980714D01*
X169000000Y-113647380D02*
X168952380Y-113695000D01*
X169000000Y-113742619D01*
X169047619Y-113695000D01*
X169000000Y-113647380D01*
X169000000Y-113742619D01*
X169904761Y-114647380D02*
X169904761Y-114123571D01*
X169857142Y-114028333D01*
X169761904Y-113980714D01*
X169571428Y-113980714D01*
X169476190Y-114028333D01*
X169904761Y-114599761D02*
X169809523Y-114647380D01*
X169571428Y-114647380D01*
X169476190Y-114599761D01*
X169428571Y-114504523D01*
X169428571Y-114409285D01*
X169476190Y-114314047D01*
X169571428Y-114266428D01*
X169809523Y-114266428D01*
X169904761Y-114218809D01*
X170523809Y-114647380D02*
X170428571Y-114599761D01*
X170380952Y-114504523D01*
X170380952Y-113647380D01*
X171047619Y-114647380D02*
X170952380Y-114599761D01*
X170904761Y-114504523D01*
X170904761Y-113647380D01*
X165285714Y-115352619D02*
X165333333Y-115305000D01*
X165428571Y-115257380D01*
X165666666Y-115257380D01*
X165761904Y-115305000D01*
X165809523Y-115352619D01*
X165857142Y-115447857D01*
X165857142Y-115543095D01*
X165809523Y-115685952D01*
X165238095Y-116257380D01*
X165857142Y-116257380D01*
X166476190Y-115257380D02*
X166571428Y-115257380D01*
X166666666Y-115305000D01*
X166714285Y-115352619D01*
X166761904Y-115447857D01*
X166809523Y-115638333D01*
X166809523Y-115876428D01*
X166761904Y-116066904D01*
X166714285Y-116162142D01*
X166666666Y-116209761D01*
X166571428Y-116257380D01*
X166476190Y-116257380D01*
X166380952Y-116209761D01*
X166333333Y-116162142D01*
X166285714Y-116066904D01*
X166238095Y-115876428D01*
X166238095Y-115638333D01*
X166285714Y-115447857D01*
X166333333Y-115352619D01*
X166380952Y-115305000D01*
X166476190Y-115257380D01*
X167190476Y-115352619D02*
X167238095Y-115305000D01*
X167333333Y-115257380D01*
X167571428Y-115257380D01*
X167666666Y-115305000D01*
X167714285Y-115352619D01*
X167761904Y-115447857D01*
X167761904Y-115543095D01*
X167714285Y-115685952D01*
X167142857Y-116257380D01*
X167761904Y-116257380D01*
X168095238Y-115257380D02*
X168714285Y-115257380D01*
X168380952Y-115638333D01*
X168523809Y-115638333D01*
X168619047Y-115685952D01*
X168666666Y-115733571D01*
X168714285Y-115828809D01*
X168714285Y-116066904D01*
X168666666Y-116162142D01*
X168619047Y-116209761D01*
X168523809Y-116257380D01*
X168238095Y-116257380D01*
X168142857Y-116209761D01*
X168095238Y-116162142D01*
D11*
%TO.C,J3*%
X119700000Y-120450000D03*
X120350000Y-120450000D03*
X121000000Y-120450000D03*
X121650000Y-120450000D03*
X122300000Y-120450000D03*
D12*
X124750000Y-123300000D03*
D13*
X122150000Y-123300000D03*
D12*
X117250000Y-123300000D03*
D13*
X119850000Y-123300000D03*
%TD*%
D14*
%TO.C,H2*%
X174650000Y-72330000D03*
%TD*%
%TO.C,H1*%
X101350000Y-72330000D03*
%TD*%
D15*
%TO.C,TP2*%
X91440000Y-90043000D03*
%TD*%
%TO.C,TP1*%
X185166000Y-99060000D03*
%TD*%
D16*
%TO.C,R16*%
X138000000Y-78800000D03*
D17*
X138000000Y-88960000D03*
%TD*%
D16*
%TO.C,R12*%
X168000000Y-84000000D03*
D17*
X168000000Y-94160000D03*
%TD*%
D18*
%TO.C,ANT1*%
X179600000Y-105800000D03*
X184400000Y-105800000D03*
X183697056Y-107497056D03*
D19*
X182000000Y-105800000D03*
D18*
X180302944Y-104102944D03*
X182000000Y-103400000D03*
X183697056Y-104102944D03*
X180302944Y-107497056D03*
X182000000Y-108200000D03*
%TD*%
D20*
%TO.C,D1*%
X117000000Y-64240000D03*
D21*
X117000000Y-66780000D03*
%TD*%
D16*
%TO.C,C16*%
X150450000Y-102400000D03*
X147950000Y-102400000D03*
%TD*%
D22*
%TO.C,U4*%
X96950000Y-93400000D03*
D17*
X96950000Y-95940000D03*
X96950000Y-98480000D03*
X96950000Y-101020000D03*
X104570000Y-101020000D03*
X104570000Y-98480000D03*
X104570000Y-95940000D03*
X104570000Y-93400000D03*
%TD*%
D23*
%TO.C,SP1*%
X130975000Y-114500000D03*
D24*
X133515000Y-114500000D03*
%TD*%
D25*
%TO.C,D5*%
X115500000Y-75920000D03*
D26*
X115500000Y-86080000D03*
%TD*%
D16*
%TO.C,C4*%
X116500000Y-94580000D03*
X119000000Y-94580000D03*
%TD*%
D22*
%TO.C,C6*%
X141948880Y-89500000D03*
D16*
X144448880Y-89500000D03*
%TD*%
%TO.C,R3*%
X122170000Y-73580000D03*
D17*
X132330000Y-73580000D03*
%TD*%
D27*
%TO.C,U5*%
X126325000Y-78030000D03*
X126325000Y-78830000D03*
X126325000Y-79630000D03*
X126325000Y-80430000D03*
X126325000Y-81230000D03*
X126325000Y-82030000D03*
X126325000Y-82830000D03*
X126325000Y-83630000D03*
D28*
X127700000Y-85005000D03*
X128500000Y-85005000D03*
X129300000Y-85005000D03*
X130100000Y-85005000D03*
X130900000Y-85005000D03*
X131700000Y-85005000D03*
X132500000Y-85005000D03*
X133300000Y-85005000D03*
D27*
X134675000Y-83630000D03*
X134675000Y-82830000D03*
X134675000Y-82030000D03*
X134675000Y-81230000D03*
X134675000Y-80430000D03*
X134675000Y-79630000D03*
X134675000Y-78830000D03*
X134675000Y-78030000D03*
D28*
X133300000Y-76655000D03*
X132500000Y-76655000D03*
X131700000Y-76655000D03*
X130900000Y-76655000D03*
X130100000Y-76655000D03*
X129300000Y-76655000D03*
X128500000Y-76655000D03*
X127700000Y-76655000D03*
%TD*%
D18*
%TO.C,ANT2*%
X96600000Y-84200000D03*
X92502944Y-82502944D03*
X94200000Y-81800000D03*
X95897056Y-85897056D03*
X95897056Y-82502944D03*
D19*
X94200000Y-84200000D03*
D18*
X91800000Y-84200000D03*
X92502944Y-85897056D03*
X94200000Y-86600000D03*
%TD*%
D23*
%TO.C,J1*%
X100325000Y-122980000D03*
D24*
X102865000Y-122980000D03*
%TD*%
D16*
%TO.C,C9*%
X131000000Y-93500000D03*
X131000000Y-96000000D03*
%TD*%
%TO.C,R10*%
X176280000Y-101600000D03*
D17*
X166120000Y-101600000D03*
%TD*%
D16*
%TO.C,C5*%
X116500000Y-91330000D03*
X119000000Y-91330000D03*
%TD*%
%TO.C,C14*%
X122750000Y-83080000D03*
X122750000Y-80580000D03*
%TD*%
%TO.C,R5*%
X148000000Y-99330000D03*
D17*
X148000000Y-89170000D03*
%TD*%
D23*
%TO.C,J4*%
X141475000Y-84250000D03*
D24*
X144015000Y-84250000D03*
X146555000Y-84250000D03*
%TD*%
D25*
%TO.C,D4*%
X99920000Y-116000000D03*
D26*
X110080000Y-116000000D03*
%TD*%
D22*
%TO.C,U3*%
X178800000Y-96630000D03*
D17*
X178800000Y-94090000D03*
X178800000Y-91550000D03*
X178800000Y-89010000D03*
X171180000Y-89010000D03*
X171180000Y-91550000D03*
X171180000Y-94090000D03*
X171180000Y-96630000D03*
%TD*%
D15*
%TO.C,SW2*%
X162750000Y-69250000D03*
X169250000Y-69250000D03*
X169250000Y-64750000D03*
X162750000Y-64750000D03*
%TD*%
D16*
%TO.C,C3*%
X116550000Y-104000000D03*
X119050000Y-104000000D03*
%TD*%
D20*
%TO.C,D2*%
X125000000Y-64215000D03*
D21*
X125000000Y-66755000D03*
%TD*%
D16*
%TO.C,C13*%
X107000000Y-93120000D03*
X109500000Y-93120000D03*
%TD*%
%TO.C,C12*%
X168500000Y-97000000D03*
X166000000Y-97000000D03*
%TD*%
%TO.C,R2*%
X120920000Y-70330000D03*
D17*
X131080000Y-70330000D03*
%TD*%
D29*
%TO.C,U1*%
X117000000Y-99717500D03*
X117950000Y-99717500D03*
X118900000Y-99717500D03*
X118900000Y-97442500D03*
X117000000Y-97442500D03*
%TD*%
D22*
%TO.C,C8*%
X136600000Y-98819328D03*
D16*
X136600000Y-101319328D03*
%TD*%
D22*
%TO.C,C7*%
X143250000Y-95653992D03*
D16*
X143250000Y-98153992D03*
%TD*%
D23*
%TO.C,RV2*%
X139000000Y-64830000D03*
D24*
X141540000Y-64830000D03*
X144080000Y-64830000D03*
%TD*%
D16*
%TO.C,R1*%
X107920000Y-70330000D03*
D17*
X118080000Y-70330000D03*
%TD*%
D20*
%TO.C,D3*%
X133000000Y-64240000D03*
D21*
X133000000Y-66780000D03*
%TD*%
D23*
%TO.C,RV1*%
X100000000Y-65000000D03*
D24*
X102540000Y-65000000D03*
X105080000Y-65000000D03*
%TD*%
D23*
%TO.C,SW3*%
X146775000Y-107250000D03*
D24*
X144235000Y-107250000D03*
X141695000Y-107250000D03*
%TD*%
D16*
%TO.C,R15*%
X94000000Y-106200000D03*
D17*
X94000000Y-96040000D03*
%TD*%
D16*
%TO.C,R14*%
X107500000Y-106030000D03*
D17*
X107500000Y-95870000D03*
%TD*%
D30*
%TO.C,JP1*%
X137500000Y-75580000D03*
D31*
X136050000Y-75580000D03*
%TD*%
D16*
%TO.C,R17*%
X119000000Y-75500000D03*
D17*
X119000000Y-85660000D03*
%TD*%
D16*
%TO.C,C10*%
X123950000Y-104000000D03*
X126450000Y-104000000D03*
%TD*%
%TO.C,C15*%
X115000000Y-120750000D03*
X112500000Y-120750000D03*
%TD*%
D32*
%TO.C,SWD1*%
X143502890Y-80967784D03*
D33*
X142232890Y-80967784D03*
X143502890Y-79697784D03*
X142232890Y-79697784D03*
X143502890Y-78427784D03*
X142232890Y-78427784D03*
X143502890Y-77157784D03*
X142232890Y-77157784D03*
X143502890Y-75887784D03*
X142232890Y-75887784D03*
%TD*%
D16*
%TO.C,C2*%
X156250000Y-75000000D03*
X156250000Y-72500000D03*
%TD*%
%TO.C,R7*%
X126480000Y-107800000D03*
D17*
X136640000Y-107800000D03*
%TD*%
D30*
%TO.C,JP2*%
X124975000Y-86330000D03*
D31*
X123525000Y-86330000D03*
%TD*%
D16*
%TO.C,R13*%
X181750000Y-84000000D03*
D17*
X181750000Y-94160000D03*
%TD*%
D16*
%TO.C,R4*%
X143670000Y-70330000D03*
D17*
X133510000Y-70330000D03*
%TD*%
D16*
%TO.C,C1*%
X166000000Y-75000000D03*
X166000000Y-72500000D03*
%TD*%
D25*
%TO.C,D6*%
X150000000Y-73420000D03*
D26*
X150000000Y-83580000D03*
%TD*%
D16*
%TO.C,R11*%
X97790000Y-90120000D03*
D17*
X107950000Y-90120000D03*
%TD*%
D34*
%TO.C,J2*%
X145773983Y-115301787D03*
X148273983Y-115301787D03*
D35*
X150773983Y-120301787D03*
D34*
X155773983Y-115301787D03*
X153273983Y-115301787D03*
%TD*%
D15*
%TO.C,SW1*%
X159250000Y-64750000D03*
X152750000Y-64750000D03*
X159250000Y-69250000D03*
X152750000Y-69250000D03*
%TD*%
D36*
%TO.C,U2*%
X134000000Y-92210000D03*
X134000000Y-93480000D03*
X134000000Y-94750000D03*
X134000000Y-96020000D03*
X138950000Y-96020000D03*
X138950000Y-94750000D03*
X138950000Y-93480000D03*
X138950000Y-92210000D03*
%TD*%
M02*
