%TF.GenerationSoftware,KiCad,Pcbnew,(6.0.11)*%
%TF.CreationDate,2023-05-30T10:33:29+01:00*%
%TF.ProjectId,tda2822 board,74646132-3832-4322-9062-6f6172642e6b,rev?*%
%TF.SameCoordinates,Original*%
%TF.FileFunction,Copper,L2,Bot*%
%TF.FilePolarity,Positive*%
%FSLAX46Y46*%
G04 Gerber Fmt 4.6, Leading zero omitted, Abs format (unit mm)*
G04 Created by KiCad (PCBNEW (6.0.11)) date 2023-05-30 10:33:29*
%MOMM*%
%LPD*%
G01*
G04 APERTURE LIST*
%TA.AperFunction,ComponentPad*%
%ADD10C,1.600000*%
%TD*%
%TA.AperFunction,ComponentPad*%
%ADD11R,1.700000X1.700000*%
%TD*%
%TA.AperFunction,ComponentPad*%
%ADD12O,1.700000X1.700000*%
%TD*%
%TA.AperFunction,ComponentPad*%
%ADD13R,1.600000X1.600000*%
%TD*%
%TA.AperFunction,ComponentPad*%
%ADD14O,1.600000X1.600000*%
%TD*%
%TA.AperFunction,Conductor*%
%ADD15C,0.250000*%
%TD*%
G04 APERTURE END LIST*
D10*
%TO.P,C6,1*%
%TO.N,GND*%
X183200000Y-96200000D03*
%TO.P,C6,2*%
%TO.N,Net-(C6-Pad2)*%
X185700000Y-96200000D03*
%TD*%
D11*
%TO.P,J2,1,Pin_1*%
%TO.N,GND*%
X163000000Y-82140000D03*
D12*
%TO.P,J2,2,Pin_2*%
%TO.N,Net-(C2-Pad1)*%
X163000000Y-84680000D03*
%TD*%
D11*
%TO.P,RV1,1,1*%
%TO.N,unconnected-(RV1-Pad1)*%
X174200000Y-94925000D03*
D12*
%TO.P,RV1,2,2*%
%TO.N,GND*%
X174200000Y-92385000D03*
%TO.P,RV1,3,3*%
%TO.N,Net-(C3-Pad2)*%
X174200000Y-89845000D03*
%TD*%
D11*
%TO.P,J1,1,Pin_1*%
%TO.N,GND*%
X163000000Y-94840000D03*
D12*
%TO.P,J1,2,Pin_2*%
%TO.N,+5V*%
X163000000Y-97380000D03*
%TD*%
D11*
%TO.P,J3,1,Pin_1*%
%TO.N,Net-(C5-Pad2)*%
X196020000Y-92305000D03*
D12*
%TO.P,J3,2,Pin_2*%
%TO.N,GND*%
X196020000Y-89765000D03*
%TD*%
D10*
%TO.P,C3,1*%
%TO.N,GND*%
X174200000Y-83950000D03*
%TO.P,C3,2*%
%TO.N,Net-(C3-Pad2)*%
X174200000Y-86450000D03*
%TD*%
D13*
%TO.P,C4,1*%
%TO.N,Net-(C4-Pad1)*%
X190689776Y-84139776D03*
D10*
%TO.P,C4,2*%
%TO.N,GND*%
X190689776Y-86639776D03*
%TD*%
%TO.P,R1,1*%
%TO.N,Net-(C3-Pad2)*%
X170400000Y-87320000D03*
D14*
%TO.P,R1,2*%
%TO.N,Net-(C2-Pad2)*%
X170400000Y-97480000D03*
%TD*%
D13*
%TO.P,C5,1*%
%TO.N,Net-(C5-Pad1)*%
X190600000Y-90974435D03*
D10*
%TO.P,C5,2*%
%TO.N,Net-(C5-Pad2)*%
X190600000Y-93474435D03*
%TD*%
%TO.P,R2,1*%
%TO.N,Net-(C6-Pad2)*%
X185720000Y-99600000D03*
D14*
%TO.P,R2,2*%
%TO.N,Net-(C5-Pad2)*%
X195880000Y-99600000D03*
%TD*%
D13*
%TO.P,C2,1*%
%TO.N,Net-(C2-Pad1)*%
X165700000Y-88400000D03*
D10*
%TO.P,C2,2*%
%TO.N,Net-(C2-Pad2)*%
X165700000Y-90900000D03*
%TD*%
D13*
%TO.P,U1,1*%
%TO.N,Net-(C5-Pad1)*%
X185420000Y-92075000D03*
D14*
%TO.P,U1,2,V+*%
%TO.N,+5V*%
X185420000Y-89535000D03*
%TO.P,U1,3*%
%TO.N,unconnected-(U1-Pad3)*%
X185420000Y-86995000D03*
%TO.P,U1,4,V-*%
%TO.N,GND*%
X185420000Y-84455000D03*
%TO.P,U1,5,-*%
X177800000Y-84455000D03*
%TO.P,U1,6,+*%
X177800000Y-86995000D03*
%TO.P,U1,7,+*%
%TO.N,Net-(C3-Pad2)*%
X177800000Y-89535000D03*
%TO.P,U1,8,-*%
%TO.N,Net-(C4-Pad1)*%
X177800000Y-92075000D03*
%TD*%
D10*
%TO.P,C7,1*%
%TO.N,+5V*%
X180650000Y-96200000D03*
%TO.P,C7,2*%
%TO.N,GND*%
X178150000Y-96200000D03*
%TD*%
D15*
%TO.N,+5V*%
X180650000Y-92908000D02*
X180650000Y-96200000D01*
X184023000Y-89535000D02*
X180650000Y-92908000D01*
X179197000Y-99822000D02*
X180650000Y-98369000D01*
X180650000Y-98369000D02*
X180650000Y-96200000D01*
X185420000Y-89535000D02*
X184023000Y-89535000D01*
X165442000Y-99822000D02*
X179197000Y-99822000D01*
X163000000Y-97380000D02*
X165442000Y-99822000D01*
%TO.N,Net-(C2-Pad1)*%
X163000000Y-84680000D02*
X165700000Y-87380000D01*
X165700000Y-87380000D02*
X165700000Y-88400000D01*
%TO.N,Net-(C2-Pad2)*%
X165700000Y-92780000D02*
X170400000Y-97480000D01*
X165700000Y-90900000D02*
X165700000Y-92780000D01*
%TO.N,Net-(C3-Pad2)*%
X174200000Y-89845000D02*
X174200000Y-86450000D01*
X177800000Y-89535000D02*
X174510000Y-89535000D01*
X174200000Y-86450000D02*
X171270000Y-86450000D01*
X174510000Y-89535000D02*
X174200000Y-89845000D01*
X171270000Y-86450000D02*
X170400000Y-87320000D01*
%TO.N,Net-(C4-Pad1)*%
X181229000Y-83312000D02*
X182372000Y-82169000D01*
X177800000Y-92075000D02*
X181229000Y-88646000D01*
X181229000Y-88646000D02*
X181229000Y-83312000D01*
X188719000Y-82169000D02*
X190689776Y-84139776D01*
X182372000Y-82169000D02*
X188719000Y-82169000D01*
%TO.N,Net-(C5-Pad1)*%
X190600000Y-90974435D02*
X188679565Y-90974435D01*
X187579000Y-92075000D02*
X185420000Y-92075000D01*
X188679565Y-90974435D02*
X187579000Y-92075000D01*
%TO.N,Net-(C5-Pad2)*%
X195880000Y-99600000D02*
X195880000Y-92445000D01*
X194850565Y-93474435D02*
X196020000Y-92305000D01*
X195880000Y-92445000D02*
X196020000Y-92305000D01*
X190600000Y-93474435D02*
X194850565Y-93474435D01*
%TO.N,Net-(C6-Pad2)*%
X185700000Y-96200000D02*
X185700000Y-99580000D01*
X185700000Y-99580000D02*
X185720000Y-99600000D01*
%TD*%
%TA.AperFunction,Conductor*%
%TO.N,GND*%
G36*
X197833621Y-79228502D02*
G01*
X197880114Y-79282158D01*
X197891500Y-79334500D01*
X197891500Y-101565500D01*
X197871498Y-101633621D01*
X197817842Y-101680114D01*
X197765500Y-101691500D01*
X160534500Y-101691500D01*
X160466379Y-101671498D01*
X160419886Y-101617842D01*
X160408500Y-101565500D01*
X160408500Y-97346695D01*
X161637251Y-97346695D01*
X161637548Y-97351848D01*
X161637548Y-97351851D01*
X161643011Y-97446590D01*
X161650110Y-97569715D01*
X161651247Y-97574761D01*
X161651248Y-97574767D01*
X161671119Y-97662939D01*
X161699222Y-97787639D01*
X161783266Y-97994616D01*
X161899987Y-98185088D01*
X162046250Y-98353938D01*
X162218126Y-98496632D01*
X162411000Y-98609338D01*
X162619692Y-98689030D01*
X162624760Y-98690061D01*
X162624763Y-98690062D01*
X162722983Y-98710045D01*
X162838597Y-98733567D01*
X162843772Y-98733757D01*
X162843774Y-98733757D01*
X163056673Y-98741564D01*
X163056677Y-98741564D01*
X163061837Y-98741753D01*
X163066957Y-98741097D01*
X163066959Y-98741097D01*
X163278288Y-98714025D01*
X163278289Y-98714025D01*
X163283416Y-98713368D01*
X163288367Y-98711883D01*
X163288370Y-98711882D01*
X163329829Y-98699444D01*
X163400825Y-98699028D01*
X163455131Y-98731035D01*
X164938343Y-100214247D01*
X164945887Y-100222537D01*
X164950000Y-100229018D01*
X164955777Y-100234443D01*
X164999667Y-100275658D01*
X165002509Y-100278413D01*
X165022231Y-100298135D01*
X165025355Y-100300558D01*
X165025359Y-100300562D01*
X165025424Y-100300612D01*
X165034445Y-100308317D01*
X165066679Y-100338586D01*
X165073627Y-100342405D01*
X165073629Y-100342407D01*
X165084432Y-100348346D01*
X165100959Y-100359202D01*
X165110698Y-100366757D01*
X165110700Y-100366758D01*
X165116960Y-100371614D01*
X165157540Y-100389174D01*
X165168188Y-100394391D01*
X165192976Y-100408018D01*
X165206940Y-100415695D01*
X165214616Y-100417666D01*
X165214619Y-100417667D01*
X165226562Y-100420733D01*
X165245267Y-100427137D01*
X165263855Y-100435181D01*
X165271678Y-100436420D01*
X165271688Y-100436423D01*
X165307524Y-100442099D01*
X165319144Y-100444505D01*
X165350959Y-100452673D01*
X165361970Y-100455500D01*
X165382224Y-100455500D01*
X165401934Y-100457051D01*
X165421943Y-100460220D01*
X165429835Y-100459474D01*
X165448580Y-100457702D01*
X165465962Y-100456059D01*
X165477819Y-100455500D01*
X179118233Y-100455500D01*
X179129416Y-100456027D01*
X179136909Y-100457702D01*
X179144835Y-100457453D01*
X179144836Y-100457453D01*
X179204986Y-100455562D01*
X179208945Y-100455500D01*
X179236856Y-100455500D01*
X179240791Y-100455003D01*
X179240856Y-100454995D01*
X179252693Y-100454062D01*
X179284951Y-100453048D01*
X179288970Y-100452922D01*
X179296889Y-100452673D01*
X179316343Y-100447021D01*
X179335700Y-100443013D01*
X179347930Y-100441468D01*
X179347931Y-100441468D01*
X179355797Y-100440474D01*
X179363168Y-100437555D01*
X179363170Y-100437555D01*
X179396912Y-100424196D01*
X179408142Y-100420351D01*
X179442983Y-100410229D01*
X179442984Y-100410229D01*
X179450593Y-100408018D01*
X179457412Y-100403985D01*
X179457417Y-100403983D01*
X179468028Y-100397707D01*
X179485776Y-100389012D01*
X179504617Y-100381552D01*
X179540387Y-100355564D01*
X179550307Y-100349048D01*
X179581535Y-100330580D01*
X179581538Y-100330578D01*
X179588362Y-100326542D01*
X179602683Y-100312221D01*
X179617717Y-100299380D01*
X179619431Y-100298135D01*
X179634107Y-100287472D01*
X179662298Y-100253395D01*
X179670288Y-100244616D01*
X181042247Y-98872657D01*
X181050537Y-98865113D01*
X181057018Y-98861000D01*
X181103659Y-98811332D01*
X181106413Y-98808491D01*
X181126134Y-98788770D01*
X181128612Y-98785575D01*
X181136318Y-98776553D01*
X181161158Y-98750101D01*
X181166586Y-98744321D01*
X181176346Y-98726568D01*
X181187199Y-98710045D01*
X181194753Y-98700306D01*
X181199613Y-98694041D01*
X181217176Y-98653457D01*
X181222383Y-98642827D01*
X181243695Y-98604060D01*
X181245666Y-98596383D01*
X181245668Y-98596378D01*
X181248732Y-98584442D01*
X181255138Y-98565730D01*
X181260033Y-98554419D01*
X181263181Y-98547145D01*
X181264421Y-98539317D01*
X181264423Y-98539310D01*
X181270099Y-98503476D01*
X181272505Y-98491856D01*
X181281528Y-98456711D01*
X181281528Y-98456710D01*
X181283500Y-98449030D01*
X181283500Y-98428776D01*
X181285051Y-98409065D01*
X181286980Y-98396886D01*
X181288220Y-98389057D01*
X181284059Y-98345038D01*
X181283500Y-98333181D01*
X181283500Y-97419394D01*
X181303502Y-97351273D01*
X181337229Y-97316181D01*
X181489789Y-97209357D01*
X181489792Y-97209355D01*
X181494300Y-97206198D01*
X181656198Y-97044300D01*
X181669170Y-97025775D01*
X181784366Y-96861257D01*
X181787523Y-96856749D01*
X181789846Y-96851767D01*
X181789849Y-96851762D01*
X181881961Y-96654225D01*
X181881961Y-96654224D01*
X181884284Y-96649243D01*
X181930250Y-96477699D01*
X181942119Y-96433402D01*
X181942119Y-96433400D01*
X181943543Y-96428087D01*
X181963498Y-96200000D01*
X184386502Y-96200000D01*
X184406457Y-96428087D01*
X184407881Y-96433400D01*
X184407881Y-96433402D01*
X184419751Y-96477699D01*
X184465716Y-96649243D01*
X184468039Y-96654224D01*
X184468039Y-96654225D01*
X184560151Y-96851762D01*
X184560154Y-96851767D01*
X184562477Y-96856749D01*
X184565634Y-96861257D01*
X184680831Y-97025775D01*
X184693802Y-97044300D01*
X184855700Y-97206198D01*
X184860208Y-97209355D01*
X184860211Y-97209357D01*
X185012771Y-97316181D01*
X185057099Y-97371638D01*
X185066500Y-97419394D01*
X185066500Y-98394611D01*
X185046498Y-98462732D01*
X185012772Y-98497823D01*
X184942333Y-98547145D01*
X184880211Y-98590643D01*
X184880208Y-98590645D01*
X184875700Y-98593802D01*
X184713802Y-98755700D01*
X184710645Y-98760208D01*
X184710643Y-98760211D01*
X184692879Y-98785581D01*
X184582477Y-98943251D01*
X184580154Y-98948233D01*
X184580151Y-98948238D01*
X184488039Y-99145775D01*
X184485716Y-99150757D01*
X184426457Y-99371913D01*
X184406502Y-99600000D01*
X184426457Y-99828087D01*
X184485716Y-100049243D01*
X184488039Y-100054224D01*
X184488039Y-100054225D01*
X184580151Y-100251762D01*
X184580154Y-100251767D01*
X184582477Y-100256749D01*
X184621319Y-100312221D01*
X184707417Y-100435181D01*
X184713802Y-100444300D01*
X184875700Y-100606198D01*
X184880208Y-100609355D01*
X184880211Y-100609357D01*
X184958389Y-100664098D01*
X185063251Y-100737523D01*
X185068233Y-100739846D01*
X185068238Y-100739849D01*
X185265775Y-100831961D01*
X185270757Y-100834284D01*
X185276065Y-100835706D01*
X185276067Y-100835707D01*
X185486598Y-100892119D01*
X185486600Y-100892119D01*
X185491913Y-100893543D01*
X185720000Y-100913498D01*
X185948087Y-100893543D01*
X185953400Y-100892119D01*
X185953402Y-100892119D01*
X186163933Y-100835707D01*
X186163935Y-100835706D01*
X186169243Y-100834284D01*
X186174225Y-100831961D01*
X186371762Y-100739849D01*
X186371767Y-100739846D01*
X186376749Y-100737523D01*
X186481611Y-100664098D01*
X186559789Y-100609357D01*
X186559792Y-100609355D01*
X186564300Y-100606198D01*
X186726198Y-100444300D01*
X186732584Y-100435181D01*
X186818681Y-100312221D01*
X186857523Y-100256749D01*
X186859846Y-100251767D01*
X186859849Y-100251762D01*
X186951961Y-100054225D01*
X186951961Y-100054224D01*
X186954284Y-100049243D01*
X187013543Y-99828087D01*
X187033498Y-99600000D01*
X187013543Y-99371913D01*
X186954284Y-99150757D01*
X186951961Y-99145775D01*
X186859849Y-98948238D01*
X186859846Y-98948233D01*
X186857523Y-98943251D01*
X186747121Y-98785581D01*
X186729357Y-98760211D01*
X186729355Y-98760208D01*
X186726198Y-98755700D01*
X186564300Y-98593802D01*
X186559792Y-98590645D01*
X186559789Y-98590643D01*
X186387229Y-98469815D01*
X186342901Y-98414358D01*
X186333500Y-98366602D01*
X186333500Y-97419394D01*
X186353502Y-97351273D01*
X186387229Y-97316181D01*
X186539789Y-97209357D01*
X186539792Y-97209355D01*
X186544300Y-97206198D01*
X186706198Y-97044300D01*
X186719170Y-97025775D01*
X186834366Y-96861257D01*
X186837523Y-96856749D01*
X186839846Y-96851767D01*
X186839849Y-96851762D01*
X186931961Y-96654225D01*
X186931961Y-96654224D01*
X186934284Y-96649243D01*
X186980250Y-96477699D01*
X186992119Y-96433402D01*
X186992119Y-96433400D01*
X186993543Y-96428087D01*
X187013498Y-96200000D01*
X186993543Y-95971913D01*
X186954588Y-95826531D01*
X186935707Y-95756067D01*
X186935706Y-95756065D01*
X186934284Y-95750757D01*
X186931961Y-95745775D01*
X186839849Y-95548238D01*
X186839846Y-95548233D01*
X186837523Y-95543251D01*
X186706198Y-95355700D01*
X186544300Y-95193802D01*
X186539792Y-95190645D01*
X186539789Y-95190643D01*
X186387228Y-95083819D01*
X186356749Y-95062477D01*
X186351767Y-95060154D01*
X186351762Y-95060151D01*
X186154225Y-94968039D01*
X186154224Y-94968039D01*
X186149243Y-94965716D01*
X186143935Y-94964294D01*
X186143933Y-94964293D01*
X185933402Y-94907881D01*
X185933400Y-94907881D01*
X185928087Y-94906457D01*
X185700000Y-94886502D01*
X185471913Y-94906457D01*
X185466600Y-94907881D01*
X185466598Y-94907881D01*
X185256067Y-94964293D01*
X185256065Y-94964294D01*
X185250757Y-94965716D01*
X185245776Y-94968039D01*
X185245775Y-94968039D01*
X185048238Y-95060151D01*
X185048233Y-95060154D01*
X185043251Y-95062477D01*
X185012772Y-95083819D01*
X184860211Y-95190643D01*
X184860208Y-95190645D01*
X184855700Y-95193802D01*
X184693802Y-95355700D01*
X184562477Y-95543251D01*
X184560154Y-95548233D01*
X184560151Y-95548238D01*
X184468039Y-95745775D01*
X184465716Y-95750757D01*
X184464294Y-95756065D01*
X184464293Y-95756067D01*
X184445412Y-95826531D01*
X184406457Y-95971913D01*
X184386502Y-96200000D01*
X181963498Y-96200000D01*
X181943543Y-95971913D01*
X181904588Y-95826531D01*
X181885707Y-95756067D01*
X181885706Y-95756065D01*
X181884284Y-95750757D01*
X181881961Y-95745775D01*
X181789849Y-95548238D01*
X181789846Y-95548233D01*
X181787523Y-95543251D01*
X181656198Y-95355700D01*
X181494300Y-95193802D01*
X181489792Y-95190645D01*
X181489789Y-95190643D01*
X181337229Y-95083819D01*
X181292901Y-95028362D01*
X181283500Y-94980606D01*
X181283500Y-93222594D01*
X181303502Y-93154473D01*
X181320405Y-93133499D01*
X184167928Y-90285976D01*
X184230240Y-90251950D01*
X184301055Y-90257015D01*
X184360236Y-90302800D01*
X184396765Y-90354968D01*
X184413802Y-90379300D01*
X184575700Y-90541198D01*
X184580211Y-90544357D01*
X184584424Y-90547892D01*
X184583473Y-90549026D01*
X184623471Y-90599071D01*
X184630776Y-90669690D01*
X184598742Y-90733049D01*
X184537538Y-90769030D01*
X184520483Y-90772082D01*
X184509684Y-90773255D01*
X184373295Y-90824385D01*
X184256739Y-90911739D01*
X184169385Y-91028295D01*
X184118255Y-91164684D01*
X184111500Y-91226866D01*
X184111500Y-92923134D01*
X184118255Y-92985316D01*
X184169385Y-93121705D01*
X184256739Y-93238261D01*
X184373295Y-93325615D01*
X184509684Y-93376745D01*
X184571866Y-93383500D01*
X186268134Y-93383500D01*
X186330316Y-93376745D01*
X186466705Y-93325615D01*
X186583261Y-93238261D01*
X186670615Y-93121705D01*
X186721745Y-92985316D01*
X186728500Y-92923134D01*
X186728500Y-92834500D01*
X186748502Y-92766379D01*
X186802158Y-92719886D01*
X186854500Y-92708500D01*
X187500233Y-92708500D01*
X187511416Y-92709027D01*
X187518909Y-92710702D01*
X187526835Y-92710453D01*
X187526836Y-92710453D01*
X187586986Y-92708562D01*
X187590945Y-92708500D01*
X187618856Y-92708500D01*
X187622791Y-92708003D01*
X187622856Y-92707995D01*
X187634693Y-92707062D01*
X187666951Y-92706048D01*
X187670970Y-92705922D01*
X187678889Y-92705673D01*
X187698343Y-92700021D01*
X187717700Y-92696013D01*
X187729930Y-92694468D01*
X187729931Y-92694468D01*
X187737797Y-92693474D01*
X187745168Y-92690555D01*
X187745170Y-92690555D01*
X187778912Y-92677196D01*
X187790142Y-92673351D01*
X187824983Y-92663229D01*
X187824984Y-92663229D01*
X187832593Y-92661018D01*
X187839412Y-92656985D01*
X187839417Y-92656983D01*
X187850028Y-92650707D01*
X187867776Y-92642012D01*
X187886617Y-92634552D01*
X187898061Y-92626238D01*
X187922387Y-92608564D01*
X187932307Y-92602048D01*
X187963535Y-92583580D01*
X187963538Y-92583578D01*
X187970362Y-92579542D01*
X187984683Y-92565221D01*
X187999717Y-92552380D01*
X188016107Y-92540472D01*
X188021157Y-92534368D01*
X188021162Y-92534363D01*
X188044293Y-92506402D01*
X188052283Y-92497621D01*
X188905066Y-91644839D01*
X188967378Y-91610814D01*
X188994161Y-91607935D01*
X189165500Y-91607935D01*
X189233621Y-91627937D01*
X189280114Y-91681593D01*
X189291500Y-91733935D01*
X189291500Y-91822569D01*
X189298255Y-91884751D01*
X189349385Y-92021140D01*
X189436739Y-92137696D01*
X189553295Y-92225050D01*
X189561703Y-92228202D01*
X189689684Y-92276180D01*
X189688954Y-92278126D01*
X189741205Y-92307980D01*
X189774021Y-92370938D01*
X189767591Y-92441642D01*
X189739502Y-92484435D01*
X189593802Y-92630135D01*
X189590645Y-92634643D01*
X189590643Y-92634646D01*
X189543365Y-92702166D01*
X189462477Y-92817686D01*
X189460154Y-92822668D01*
X189460151Y-92822673D01*
X189380860Y-92992715D01*
X189365716Y-93025192D01*
X189364294Y-93030500D01*
X189364293Y-93030502D01*
X189315520Y-93212523D01*
X189306457Y-93246348D01*
X189286502Y-93474435D01*
X189306457Y-93702522D01*
X189307881Y-93707835D01*
X189307881Y-93707837D01*
X189338233Y-93821109D01*
X189365716Y-93923678D01*
X189368039Y-93928659D01*
X189368039Y-93928660D01*
X189460151Y-94126197D01*
X189460154Y-94126202D01*
X189462477Y-94131184D01*
X189593802Y-94318735D01*
X189755700Y-94480633D01*
X189760208Y-94483790D01*
X189760211Y-94483792D01*
X189838389Y-94538533D01*
X189943251Y-94611958D01*
X189948233Y-94614281D01*
X189948238Y-94614284D01*
X190145775Y-94706396D01*
X190150757Y-94708719D01*
X190156065Y-94710141D01*
X190156067Y-94710142D01*
X190366598Y-94766554D01*
X190366600Y-94766554D01*
X190371913Y-94767978D01*
X190600000Y-94787933D01*
X190828087Y-94767978D01*
X190833400Y-94766554D01*
X190833402Y-94766554D01*
X191043933Y-94710142D01*
X191043935Y-94710141D01*
X191049243Y-94708719D01*
X191054225Y-94706396D01*
X191251762Y-94614284D01*
X191251767Y-94614281D01*
X191256749Y-94611958D01*
X191361611Y-94538533D01*
X191439789Y-94483792D01*
X191439792Y-94483790D01*
X191444300Y-94480633D01*
X191606198Y-94318735D01*
X191716181Y-94161664D01*
X191771638Y-94117336D01*
X191819394Y-94107935D01*
X194771798Y-94107935D01*
X194782981Y-94108462D01*
X194790474Y-94110137D01*
X194798400Y-94109888D01*
X194798401Y-94109888D01*
X194858551Y-94107997D01*
X194862510Y-94107935D01*
X194890421Y-94107935D01*
X194894356Y-94107438D01*
X194894421Y-94107430D01*
X194906258Y-94106497D01*
X194938516Y-94105483D01*
X194942535Y-94105357D01*
X194950454Y-94105108D01*
X194969908Y-94099456D01*
X194989265Y-94095448D01*
X195001495Y-94093903D01*
X195001496Y-94093903D01*
X195009362Y-94092909D01*
X195016733Y-94089990D01*
X195016735Y-94089990D01*
X195050477Y-94076631D01*
X195061707Y-94072786D01*
X195085347Y-94065918D01*
X195156344Y-94066121D01*
X195215960Y-94104675D01*
X195245268Y-94169340D01*
X195246500Y-94186915D01*
X195246500Y-98380606D01*
X195226498Y-98448727D01*
X195192771Y-98483819D01*
X195040211Y-98590643D01*
X195040208Y-98590645D01*
X195035700Y-98593802D01*
X194873802Y-98755700D01*
X194870645Y-98760208D01*
X194870643Y-98760211D01*
X194852879Y-98785581D01*
X194742477Y-98943251D01*
X194740154Y-98948233D01*
X194740151Y-98948238D01*
X194648039Y-99145775D01*
X194645716Y-99150757D01*
X194586457Y-99371913D01*
X194566502Y-99600000D01*
X194586457Y-99828087D01*
X194645716Y-100049243D01*
X194648039Y-100054224D01*
X194648039Y-100054225D01*
X194740151Y-100251762D01*
X194740154Y-100251767D01*
X194742477Y-100256749D01*
X194781319Y-100312221D01*
X194867417Y-100435181D01*
X194873802Y-100444300D01*
X195035700Y-100606198D01*
X195040208Y-100609355D01*
X195040211Y-100609357D01*
X195118389Y-100664098D01*
X195223251Y-100737523D01*
X195228233Y-100739846D01*
X195228238Y-100739849D01*
X195425775Y-100831961D01*
X195430757Y-100834284D01*
X195436065Y-100835706D01*
X195436067Y-100835707D01*
X195646598Y-100892119D01*
X195646600Y-100892119D01*
X195651913Y-100893543D01*
X195880000Y-100913498D01*
X196108087Y-100893543D01*
X196113400Y-100892119D01*
X196113402Y-100892119D01*
X196323933Y-100835707D01*
X196323935Y-100835706D01*
X196329243Y-100834284D01*
X196334225Y-100831961D01*
X196531762Y-100739849D01*
X196531767Y-100739846D01*
X196536749Y-100737523D01*
X196641611Y-100664098D01*
X196719789Y-100609357D01*
X196719792Y-100609355D01*
X196724300Y-100606198D01*
X196886198Y-100444300D01*
X196892584Y-100435181D01*
X196978681Y-100312221D01*
X197017523Y-100256749D01*
X197019846Y-100251767D01*
X197019849Y-100251762D01*
X197111961Y-100054225D01*
X197111961Y-100054224D01*
X197114284Y-100049243D01*
X197173543Y-99828087D01*
X197193498Y-99600000D01*
X197173543Y-99371913D01*
X197114284Y-99150757D01*
X197111961Y-99145775D01*
X197019849Y-98948238D01*
X197019846Y-98948233D01*
X197017523Y-98943251D01*
X196907121Y-98785581D01*
X196889357Y-98760211D01*
X196889355Y-98760208D01*
X196886198Y-98755700D01*
X196724300Y-98593802D01*
X196719792Y-98590645D01*
X196719789Y-98590643D01*
X196567229Y-98483819D01*
X196522901Y-98428362D01*
X196513500Y-98380606D01*
X196513500Y-93789500D01*
X196533502Y-93721379D01*
X196587158Y-93674886D01*
X196639500Y-93663500D01*
X196918134Y-93663500D01*
X196980316Y-93656745D01*
X197116705Y-93605615D01*
X197233261Y-93518261D01*
X197320615Y-93401705D01*
X197371745Y-93265316D01*
X197378500Y-93203134D01*
X197378500Y-91406866D01*
X197371745Y-91344684D01*
X197320615Y-91208295D01*
X197233261Y-91091739D01*
X197116705Y-91004385D01*
X196980316Y-90953255D01*
X196918134Y-90946500D01*
X195121866Y-90946500D01*
X195059684Y-90953255D01*
X194923295Y-91004385D01*
X194806739Y-91091739D01*
X194719385Y-91208295D01*
X194668255Y-91344684D01*
X194661500Y-91406866D01*
X194661500Y-92714935D01*
X194641498Y-92783056D01*
X194587842Y-92829549D01*
X194535500Y-92840935D01*
X191819394Y-92840935D01*
X191751273Y-92820933D01*
X191716181Y-92787206D01*
X191609357Y-92634646D01*
X191609355Y-92634643D01*
X191606198Y-92630135D01*
X191460498Y-92484435D01*
X191426472Y-92422123D01*
X191431537Y-92351308D01*
X191474084Y-92294472D01*
X191510737Y-92277303D01*
X191510316Y-92276180D01*
X191638297Y-92228202D01*
X191646705Y-92225050D01*
X191763261Y-92137696D01*
X191850615Y-92021140D01*
X191901745Y-91884751D01*
X191908500Y-91822569D01*
X191908500Y-90126301D01*
X191901745Y-90064119D01*
X191850615Y-89927730D01*
X191763261Y-89811174D01*
X191646705Y-89723820D01*
X191510316Y-89672690D01*
X191448134Y-89665935D01*
X189751866Y-89665935D01*
X189689684Y-89672690D01*
X189553295Y-89723820D01*
X189436739Y-89811174D01*
X189349385Y-89927730D01*
X189298255Y-90064119D01*
X189291500Y-90126301D01*
X189291500Y-90214935D01*
X189271498Y-90283056D01*
X189217842Y-90329549D01*
X189165500Y-90340935D01*
X188758332Y-90340935D01*
X188747149Y-90340408D01*
X188739656Y-90338733D01*
X188731730Y-90338982D01*
X188731729Y-90338982D01*
X188671566Y-90340873D01*
X188667608Y-90340935D01*
X188639709Y-90340935D01*
X188635719Y-90341439D01*
X188623885Y-90342371D01*
X188579676Y-90343761D01*
X188572062Y-90345973D01*
X188572057Y-90345974D01*
X188560224Y-90349412D01*
X188540861Y-90353423D01*
X188520768Y-90355961D01*
X188513401Y-90358878D01*
X188513396Y-90358879D01*
X188479657Y-90372237D01*
X188468430Y-90376081D01*
X188425972Y-90388417D01*
X188419146Y-90392454D01*
X188408537Y-90398728D01*
X188390789Y-90407423D01*
X188371948Y-90414883D01*
X188365532Y-90419545D01*
X188365531Y-90419545D01*
X188336178Y-90440871D01*
X188326258Y-90447387D01*
X188295030Y-90465855D01*
X188295027Y-90465857D01*
X188288203Y-90469893D01*
X188273882Y-90484214D01*
X188258849Y-90497054D01*
X188242458Y-90508963D01*
X188237408Y-90515067D01*
X188237403Y-90515072D01*
X188214272Y-90543033D01*
X188206282Y-90551814D01*
X187353499Y-91404596D01*
X187291187Y-91438621D01*
X187264404Y-91441500D01*
X186854500Y-91441500D01*
X186786379Y-91421498D01*
X186739886Y-91367842D01*
X186728500Y-91315500D01*
X186728500Y-91226866D01*
X186721745Y-91164684D01*
X186670615Y-91028295D01*
X186583261Y-90911739D01*
X186466705Y-90824385D01*
X186330316Y-90773255D01*
X186319526Y-90772083D01*
X186317394Y-90771197D01*
X186314778Y-90770575D01*
X186314879Y-90770152D01*
X186253965Y-90744845D01*
X186213537Y-90686483D01*
X186211078Y-90615529D01*
X186247371Y-90554510D01*
X186256031Y-90547511D01*
X186259793Y-90544354D01*
X186264300Y-90541198D01*
X186426198Y-90379300D01*
X186443236Y-90354968D01*
X186514887Y-90252639D01*
X186557523Y-90191749D01*
X186559846Y-90186767D01*
X186559849Y-90186762D01*
X186651961Y-89989225D01*
X186651961Y-89989224D01*
X186654284Y-89984243D01*
X186674178Y-89910000D01*
X186712119Y-89768402D01*
X186712119Y-89768400D01*
X186713543Y-89763087D01*
X186733498Y-89535000D01*
X186713543Y-89306913D01*
X186669732Y-89143409D01*
X186655707Y-89091067D01*
X186655706Y-89091065D01*
X186654284Y-89085757D01*
X186641288Y-89057886D01*
X186559849Y-88883238D01*
X186559846Y-88883233D01*
X186557523Y-88878251D01*
X186456315Y-88733711D01*
X186429357Y-88695211D01*
X186429355Y-88695208D01*
X186426198Y-88690700D01*
X186264300Y-88528802D01*
X186259792Y-88525645D01*
X186259789Y-88525643D01*
X186109629Y-88420500D01*
X186076749Y-88397477D01*
X186071767Y-88395154D01*
X186071762Y-88395151D01*
X186037543Y-88379195D01*
X185984258Y-88332278D01*
X185964797Y-88264001D01*
X185985339Y-88196041D01*
X186037543Y-88150805D01*
X186071762Y-88134849D01*
X186071767Y-88134846D01*
X186076749Y-88132523D01*
X186181611Y-88059098D01*
X186259789Y-88004357D01*
X186259792Y-88004355D01*
X186264300Y-88001198D01*
X186426198Y-87839300D01*
X186557523Y-87651749D01*
X186559846Y-87646767D01*
X186559849Y-87646762D01*
X186651961Y-87449225D01*
X186651961Y-87449224D01*
X186654284Y-87444243D01*
X186694462Y-87294300D01*
X186712119Y-87228402D01*
X186712119Y-87228400D01*
X186713543Y-87223087D01*
X186733498Y-86995000D01*
X186713543Y-86766913D01*
X186654284Y-86545757D01*
X186607079Y-86444525D01*
X186559849Y-86343238D01*
X186559846Y-86343233D01*
X186557523Y-86338251D01*
X186426198Y-86150700D01*
X186264300Y-85988802D01*
X186259792Y-85985645D01*
X186259789Y-85985643D01*
X186170257Y-85922952D01*
X186076749Y-85857477D01*
X186071767Y-85855154D01*
X186071762Y-85855151D01*
X185874225Y-85763039D01*
X185874224Y-85763039D01*
X185869243Y-85760716D01*
X185863935Y-85759294D01*
X185863933Y-85759293D01*
X185653402Y-85702881D01*
X185653400Y-85702881D01*
X185648087Y-85701457D01*
X185420000Y-85681502D01*
X185191913Y-85701457D01*
X185186600Y-85702881D01*
X185186598Y-85702881D01*
X184976067Y-85759293D01*
X184976065Y-85759294D01*
X184970757Y-85760716D01*
X184965776Y-85763039D01*
X184965775Y-85763039D01*
X184768238Y-85855151D01*
X184768233Y-85855154D01*
X184763251Y-85857477D01*
X184669743Y-85922952D01*
X184580211Y-85985643D01*
X184580208Y-85985645D01*
X184575700Y-85988802D01*
X184413802Y-86150700D01*
X184282477Y-86338251D01*
X184280154Y-86343233D01*
X184280151Y-86343238D01*
X184232921Y-86444525D01*
X184185716Y-86545757D01*
X184126457Y-86766913D01*
X184106502Y-86995000D01*
X184126457Y-87223087D01*
X184127881Y-87228400D01*
X184127881Y-87228402D01*
X184145539Y-87294300D01*
X184185716Y-87444243D01*
X184188039Y-87449224D01*
X184188039Y-87449225D01*
X184280151Y-87646762D01*
X184280154Y-87646767D01*
X184282477Y-87651749D01*
X184413802Y-87839300D01*
X184575700Y-88001198D01*
X184580208Y-88004355D01*
X184580211Y-88004357D01*
X184658389Y-88059098D01*
X184763251Y-88132523D01*
X184768233Y-88134846D01*
X184768238Y-88134849D01*
X184802457Y-88150805D01*
X184855742Y-88197722D01*
X184875203Y-88265999D01*
X184854661Y-88333959D01*
X184802457Y-88379195D01*
X184768238Y-88395151D01*
X184768233Y-88395154D01*
X184763251Y-88397477D01*
X184730371Y-88420500D01*
X184580211Y-88525643D01*
X184580208Y-88525645D01*
X184575700Y-88528802D01*
X184413802Y-88690700D01*
X184410645Y-88695208D01*
X184410643Y-88695211D01*
X184303819Y-88847771D01*
X184248362Y-88892099D01*
X184200606Y-88901500D01*
X184101763Y-88901500D01*
X184090579Y-88900973D01*
X184083091Y-88899299D01*
X184075168Y-88899548D01*
X184015033Y-88901438D01*
X184011075Y-88901500D01*
X183983144Y-88901500D01*
X183979229Y-88901995D01*
X183979225Y-88901995D01*
X183979167Y-88902003D01*
X183979138Y-88902006D01*
X183967296Y-88902939D01*
X183923110Y-88904327D01*
X183905744Y-88909372D01*
X183903658Y-88909978D01*
X183884306Y-88913986D01*
X183877235Y-88914880D01*
X183864203Y-88916526D01*
X183856834Y-88919443D01*
X183856832Y-88919444D01*
X183823097Y-88932800D01*
X183811869Y-88936645D01*
X183769407Y-88948982D01*
X183762585Y-88953016D01*
X183762579Y-88953019D01*
X183751968Y-88959294D01*
X183734218Y-88967990D01*
X183722756Y-88972528D01*
X183722751Y-88972531D01*
X183715383Y-88975448D01*
X183708968Y-88980109D01*
X183679625Y-89001427D01*
X183669707Y-89007943D01*
X183658837Y-89014372D01*
X183631637Y-89030458D01*
X183617313Y-89044782D01*
X183602281Y-89057621D01*
X183585893Y-89069528D01*
X183557712Y-89103593D01*
X183549722Y-89112373D01*
X180257747Y-92404348D01*
X180249461Y-92411888D01*
X180242982Y-92416000D01*
X180237557Y-92421777D01*
X180196357Y-92465651D01*
X180193602Y-92468493D01*
X180173865Y-92488230D01*
X180171385Y-92491427D01*
X180163682Y-92500447D01*
X180133414Y-92532679D01*
X180129595Y-92539625D01*
X180129593Y-92539628D01*
X180123652Y-92550434D01*
X180112801Y-92566953D01*
X180100386Y-92582959D01*
X180097241Y-92590228D01*
X180097238Y-92590232D01*
X180082826Y-92623537D01*
X180077609Y-92634187D01*
X180056305Y-92672940D01*
X180054334Y-92680615D01*
X180054334Y-92680616D01*
X180051267Y-92692562D01*
X180044863Y-92711266D01*
X180044073Y-92713093D01*
X180036819Y-92729855D01*
X180035580Y-92737678D01*
X180035577Y-92737688D01*
X180029901Y-92773524D01*
X180027495Y-92785144D01*
X180026259Y-92789958D01*
X180016500Y-92827970D01*
X180016500Y-92848224D01*
X180014949Y-92867934D01*
X180011780Y-92887943D01*
X180015844Y-92930930D01*
X180015941Y-92931961D01*
X180016500Y-92943819D01*
X180016500Y-94980606D01*
X179996498Y-95048727D01*
X179962771Y-95083819D01*
X179810211Y-95190643D01*
X179810208Y-95190645D01*
X179805700Y-95193802D01*
X179643802Y-95355700D01*
X179512477Y-95543251D01*
X179510154Y-95548233D01*
X179510151Y-95548238D01*
X179418039Y-95745775D01*
X179415716Y-95750757D01*
X179414294Y-95756065D01*
X179414293Y-95756067D01*
X179395412Y-95826531D01*
X179356457Y-95971913D01*
X179336502Y-96200000D01*
X179356457Y-96428087D01*
X179357881Y-96433400D01*
X179357881Y-96433402D01*
X179369751Y-96477699D01*
X179415716Y-96649243D01*
X179418039Y-96654224D01*
X179418039Y-96654225D01*
X179510151Y-96851762D01*
X179510154Y-96851767D01*
X179512477Y-96856749D01*
X179515634Y-96861257D01*
X179630831Y-97025775D01*
X179643802Y-97044300D01*
X179805700Y-97206198D01*
X179810208Y-97209355D01*
X179810211Y-97209357D01*
X179962771Y-97316181D01*
X180007099Y-97371638D01*
X180016500Y-97419394D01*
X180016500Y-98054405D01*
X179996498Y-98122526D01*
X179979595Y-98143500D01*
X178971500Y-99151595D01*
X178909188Y-99185621D01*
X178882405Y-99188500D01*
X165756594Y-99188500D01*
X165688473Y-99168498D01*
X165667499Y-99151595D01*
X164351218Y-97835313D01*
X164317192Y-97773001D01*
X164319755Y-97709589D01*
X164320212Y-97708087D01*
X164332370Y-97668069D01*
X164361529Y-97446590D01*
X164361611Y-97443240D01*
X164363074Y-97383365D01*
X164363074Y-97383361D01*
X164363156Y-97380000D01*
X164344852Y-97157361D01*
X164290431Y-96940702D01*
X164201354Y-96735840D01*
X164136571Y-96635700D01*
X164082822Y-96552617D01*
X164082820Y-96552614D01*
X164080014Y-96548277D01*
X163929670Y-96383051D01*
X163925619Y-96379852D01*
X163925615Y-96379848D01*
X163758414Y-96247800D01*
X163758410Y-96247798D01*
X163754359Y-96244598D01*
X163710215Y-96220229D01*
X163702136Y-96215769D01*
X163558789Y-96136638D01*
X163553920Y-96134914D01*
X163553916Y-96134912D01*
X163353087Y-96063795D01*
X163353083Y-96063794D01*
X163348212Y-96062069D01*
X163343119Y-96061162D01*
X163343116Y-96061161D01*
X163133373Y-96023800D01*
X163133367Y-96023799D01*
X163128284Y-96022894D01*
X163054452Y-96021992D01*
X162910081Y-96020228D01*
X162910079Y-96020228D01*
X162904911Y-96020165D01*
X162684091Y-96053955D01*
X162471756Y-96123357D01*
X162443126Y-96138261D01*
X162281712Y-96222288D01*
X162273607Y-96226507D01*
X162269474Y-96229610D01*
X162269471Y-96229612D01*
X162197699Y-96283500D01*
X162094965Y-96360635D01*
X161940629Y-96522138D01*
X161814743Y-96706680D01*
X161799003Y-96740590D01*
X161745084Y-96856749D01*
X161720688Y-96909305D01*
X161660989Y-97124570D01*
X161637251Y-97346695D01*
X160408500Y-97346695D01*
X160408500Y-84646695D01*
X161637251Y-84646695D01*
X161637548Y-84651848D01*
X161637548Y-84651851D01*
X161643011Y-84746590D01*
X161650110Y-84869715D01*
X161651247Y-84874761D01*
X161651248Y-84874767D01*
X161671119Y-84962939D01*
X161699222Y-85087639D01*
X161783266Y-85294616D01*
X161791724Y-85308418D01*
X161877429Y-85448276D01*
X161899987Y-85485088D01*
X162046250Y-85653938D01*
X162173151Y-85759293D01*
X162214054Y-85793251D01*
X162218126Y-85796632D01*
X162411000Y-85909338D01*
X162415825Y-85911180D01*
X162415826Y-85911181D01*
X162438730Y-85919927D01*
X162619692Y-85989030D01*
X162624760Y-85990061D01*
X162624763Y-85990062D01*
X162680708Y-86001444D01*
X162838597Y-86033567D01*
X162843772Y-86033757D01*
X162843774Y-86033757D01*
X163056673Y-86041564D01*
X163056677Y-86041564D01*
X163061837Y-86041753D01*
X163066957Y-86041097D01*
X163066959Y-86041097D01*
X163278288Y-86014025D01*
X163278289Y-86014025D01*
X163283416Y-86013368D01*
X163288367Y-86011883D01*
X163288370Y-86011882D01*
X163329829Y-85999444D01*
X163400825Y-85999028D01*
X163455131Y-86031035D01*
X164512656Y-87088560D01*
X164546682Y-87150872D01*
X164541617Y-87221687D01*
X164524387Y-87253220D01*
X164449385Y-87353295D01*
X164398255Y-87489684D01*
X164391500Y-87551866D01*
X164391500Y-89248134D01*
X164398255Y-89310316D01*
X164449385Y-89446705D01*
X164536739Y-89563261D01*
X164653295Y-89650615D01*
X164661703Y-89653767D01*
X164789684Y-89701745D01*
X164788954Y-89703691D01*
X164841205Y-89733545D01*
X164874021Y-89796503D01*
X164867591Y-89867207D01*
X164839502Y-89910000D01*
X164693802Y-90055700D01*
X164690645Y-90060208D01*
X164690643Y-90060211D01*
X164641974Y-90129718D01*
X164562477Y-90243251D01*
X164560154Y-90248233D01*
X164560151Y-90248238D01*
X164495817Y-90386205D01*
X164465716Y-90450757D01*
X164464294Y-90456065D01*
X164464293Y-90456067D01*
X164437915Y-90554510D01*
X164406457Y-90671913D01*
X164386502Y-90900000D01*
X164406457Y-91128087D01*
X164407881Y-91133400D01*
X164407881Y-91133402D01*
X164456675Y-91315500D01*
X164465716Y-91349243D01*
X164468039Y-91354224D01*
X164468039Y-91354225D01*
X164560151Y-91551762D01*
X164560154Y-91551767D01*
X164562477Y-91556749D01*
X164693802Y-91744300D01*
X164855700Y-91906198D01*
X164860208Y-91909355D01*
X164860211Y-91909357D01*
X165012771Y-92016181D01*
X165057099Y-92071638D01*
X165066500Y-92119394D01*
X165066500Y-92701233D01*
X165065973Y-92712416D01*
X165064298Y-92719909D01*
X165064547Y-92727835D01*
X165064547Y-92727836D01*
X165066438Y-92787986D01*
X165066500Y-92791945D01*
X165066500Y-92819856D01*
X165066997Y-92823790D01*
X165066997Y-92823791D01*
X165067005Y-92823856D01*
X165067938Y-92835693D01*
X165069327Y-92879889D01*
X165073960Y-92895835D01*
X165074978Y-92899339D01*
X165078987Y-92918700D01*
X165079116Y-92919717D01*
X165081526Y-92938797D01*
X165084445Y-92946168D01*
X165084445Y-92946170D01*
X165097804Y-92979912D01*
X165101649Y-92991142D01*
X165113982Y-93033593D01*
X165118015Y-93040412D01*
X165118017Y-93040417D01*
X165124293Y-93051028D01*
X165132988Y-93068776D01*
X165140448Y-93087617D01*
X165145110Y-93094033D01*
X165145110Y-93094034D01*
X165166436Y-93123387D01*
X165172952Y-93133307D01*
X165185470Y-93154473D01*
X165195458Y-93171362D01*
X165209779Y-93185683D01*
X165222619Y-93200716D01*
X165234528Y-93217107D01*
X165266603Y-93243642D01*
X165268605Y-93245298D01*
X165277384Y-93253288D01*
X169090848Y-97066752D01*
X169124874Y-97129064D01*
X169123459Y-97188459D01*
X169107882Y-97246591D01*
X169107881Y-97246598D01*
X169106457Y-97251913D01*
X169086502Y-97480000D01*
X169106457Y-97708087D01*
X169165716Y-97929243D01*
X169168039Y-97934224D01*
X169168039Y-97934225D01*
X169260151Y-98131762D01*
X169260154Y-98131767D01*
X169262477Y-98136749D01*
X169393802Y-98324300D01*
X169555700Y-98486198D01*
X169560208Y-98489355D01*
X169560211Y-98489357D01*
X169580375Y-98503476D01*
X169743251Y-98617523D01*
X169748233Y-98619846D01*
X169748238Y-98619849D01*
X169941666Y-98710045D01*
X169950757Y-98714284D01*
X169956065Y-98715706D01*
X169956067Y-98715707D01*
X170166598Y-98772119D01*
X170166600Y-98772119D01*
X170171913Y-98773543D01*
X170400000Y-98793498D01*
X170628087Y-98773543D01*
X170633400Y-98772119D01*
X170633402Y-98772119D01*
X170843933Y-98715707D01*
X170843935Y-98715706D01*
X170849243Y-98714284D01*
X170858334Y-98710045D01*
X171051762Y-98619849D01*
X171051767Y-98619846D01*
X171056749Y-98617523D01*
X171219625Y-98503476D01*
X171239789Y-98489357D01*
X171239792Y-98489355D01*
X171244300Y-98486198D01*
X171406198Y-98324300D01*
X171537523Y-98136749D01*
X171539846Y-98131767D01*
X171539849Y-98131762D01*
X171631961Y-97934225D01*
X171631961Y-97934224D01*
X171634284Y-97929243D01*
X171693543Y-97708087D01*
X171713498Y-97480000D01*
X171693543Y-97251913D01*
X171681294Y-97206198D01*
X171635707Y-97036067D01*
X171635706Y-97036065D01*
X171634284Y-97030757D01*
X171590077Y-96935954D01*
X171539849Y-96828238D01*
X171539846Y-96828233D01*
X171537523Y-96823251D01*
X171452903Y-96702401D01*
X171409357Y-96640211D01*
X171409355Y-96640208D01*
X171406198Y-96635700D01*
X171244300Y-96473802D01*
X171239792Y-96470645D01*
X171239789Y-96470643D01*
X171161611Y-96415902D01*
X171056749Y-96342477D01*
X171051767Y-96340154D01*
X171051762Y-96340151D01*
X170854225Y-96248039D01*
X170854224Y-96248039D01*
X170849243Y-96245716D01*
X170843935Y-96244294D01*
X170843933Y-96244293D01*
X170633402Y-96187881D01*
X170633400Y-96187881D01*
X170628087Y-96186457D01*
X170400000Y-96166502D01*
X170171913Y-96186457D01*
X170166602Y-96187880D01*
X170166591Y-96187882D01*
X170108459Y-96203459D01*
X170037483Y-96201770D01*
X169986752Y-96170848D01*
X169639038Y-95823134D01*
X172841500Y-95823134D01*
X172848255Y-95885316D01*
X172899385Y-96021705D01*
X172986739Y-96138261D01*
X173103295Y-96225615D01*
X173239684Y-96276745D01*
X173301866Y-96283500D01*
X175098134Y-96283500D01*
X175160316Y-96276745D01*
X175296705Y-96225615D01*
X175413261Y-96138261D01*
X175500615Y-96021705D01*
X175551745Y-95885316D01*
X175558500Y-95823134D01*
X175558500Y-94026866D01*
X175551745Y-93964684D01*
X175500615Y-93828295D01*
X175413261Y-93711739D01*
X175296705Y-93624385D01*
X175160316Y-93573255D01*
X175098134Y-93566500D01*
X173301866Y-93566500D01*
X173239684Y-93573255D01*
X173103295Y-93624385D01*
X172986739Y-93711739D01*
X172899385Y-93828295D01*
X172848255Y-93964684D01*
X172841500Y-94026866D01*
X172841500Y-95823134D01*
X169639038Y-95823134D01*
X166370405Y-92554500D01*
X166336379Y-92492188D01*
X166333500Y-92465405D01*
X166333500Y-92119394D01*
X166353502Y-92051273D01*
X166387229Y-92016181D01*
X166539789Y-91909357D01*
X166539792Y-91909355D01*
X166544300Y-91906198D01*
X166706198Y-91744300D01*
X166837523Y-91556749D01*
X166839846Y-91551767D01*
X166839849Y-91551762D01*
X166931961Y-91354225D01*
X166931961Y-91354224D01*
X166934284Y-91349243D01*
X166943326Y-91315500D01*
X166992119Y-91133402D01*
X166992119Y-91133400D01*
X166993543Y-91128087D01*
X167013498Y-90900000D01*
X166993543Y-90671913D01*
X166962085Y-90554510D01*
X166935707Y-90456067D01*
X166935706Y-90456065D01*
X166934284Y-90450757D01*
X166904183Y-90386205D01*
X166839849Y-90248238D01*
X166839846Y-90248233D01*
X166837523Y-90243251D01*
X166758026Y-90129718D01*
X166709357Y-90060211D01*
X166709355Y-90060208D01*
X166706198Y-90055700D01*
X166560498Y-89910000D01*
X166526472Y-89847688D01*
X166531537Y-89776873D01*
X166574084Y-89720037D01*
X166610737Y-89702868D01*
X166610316Y-89701745D01*
X166738297Y-89653767D01*
X166746705Y-89650615D01*
X166863261Y-89563261D01*
X166950615Y-89446705D01*
X167001745Y-89310316D01*
X167008500Y-89248134D01*
X167008500Y-87551866D01*
X167001745Y-87489684D01*
X166950615Y-87353295D01*
X166925662Y-87320000D01*
X169086502Y-87320000D01*
X169106457Y-87548087D01*
X169165716Y-87769243D01*
X169168039Y-87774224D01*
X169168039Y-87774225D01*
X169260151Y-87971762D01*
X169260154Y-87971767D01*
X169262477Y-87976749D01*
X169335902Y-88081611D01*
X169384353Y-88150805D01*
X169393802Y-88164300D01*
X169555700Y-88326198D01*
X169560208Y-88329355D01*
X169560211Y-88329357D01*
X169631387Y-88379195D01*
X169743251Y-88457523D01*
X169748233Y-88459846D01*
X169748238Y-88459849D01*
X169945775Y-88551961D01*
X169950757Y-88554284D01*
X169956065Y-88555706D01*
X169956067Y-88555707D01*
X170166598Y-88612119D01*
X170166600Y-88612119D01*
X170171913Y-88613543D01*
X170400000Y-88633498D01*
X170628087Y-88613543D01*
X170633400Y-88612119D01*
X170633402Y-88612119D01*
X170843933Y-88555707D01*
X170843935Y-88555706D01*
X170849243Y-88554284D01*
X170854225Y-88551961D01*
X171051762Y-88459849D01*
X171051767Y-88459846D01*
X171056749Y-88457523D01*
X171168613Y-88379195D01*
X171239789Y-88329357D01*
X171239792Y-88329355D01*
X171244300Y-88326198D01*
X171406198Y-88164300D01*
X171415648Y-88150805D01*
X171464098Y-88081611D01*
X171537523Y-87976749D01*
X171539846Y-87971767D01*
X171539849Y-87971762D01*
X171631961Y-87774225D01*
X171631961Y-87774224D01*
X171634284Y-87769243D01*
X171693543Y-87548087D01*
X171713498Y-87320000D01*
X171713019Y-87314525D01*
X171713019Y-87314514D01*
X171704792Y-87220482D01*
X171718780Y-87150877D01*
X171768179Y-87099885D01*
X171830312Y-87083500D01*
X172980606Y-87083500D01*
X173048727Y-87103502D01*
X173083819Y-87137229D01*
X173165037Y-87253220D01*
X173193802Y-87294300D01*
X173355700Y-87456198D01*
X173360208Y-87459355D01*
X173360211Y-87459357D01*
X173512771Y-87566181D01*
X173557099Y-87621638D01*
X173566500Y-87669394D01*
X173566500Y-88566692D01*
X173546498Y-88634813D01*
X173498683Y-88678453D01*
X173473607Y-88691507D01*
X173469474Y-88694610D01*
X173469471Y-88694612D01*
X173299100Y-88822530D01*
X173294965Y-88825635D01*
X173291393Y-88829373D01*
X173221092Y-88902939D01*
X173140629Y-88987138D01*
X173137715Y-88991410D01*
X173137714Y-88991411D01*
X173126437Y-89007943D01*
X173014743Y-89171680D01*
X172979254Y-89248134D01*
X172950391Y-89310316D01*
X172920688Y-89374305D01*
X172860989Y-89589570D01*
X172837251Y-89811695D01*
X172850110Y-90034715D01*
X172851247Y-90039761D01*
X172851248Y-90039767D01*
X172870750Y-90126301D01*
X172899222Y-90252639D01*
X172942361Y-90358879D01*
X172975655Y-90440871D01*
X172983266Y-90459616D01*
X173099987Y-90650088D01*
X173246250Y-90818938D01*
X173418126Y-90961632D01*
X173611000Y-91074338D01*
X173615825Y-91076180D01*
X173615826Y-91076181D01*
X173675371Y-91098919D01*
X173819692Y-91154030D01*
X173824760Y-91155061D01*
X173824763Y-91155062D01*
X173910671Y-91172540D01*
X174038597Y-91198567D01*
X174043772Y-91198757D01*
X174043774Y-91198757D01*
X174256673Y-91206564D01*
X174256677Y-91206564D01*
X174261837Y-91206753D01*
X174266957Y-91206097D01*
X174266959Y-91206097D01*
X174478288Y-91179025D01*
X174478289Y-91179025D01*
X174483416Y-91178368D01*
X174553689Y-91157285D01*
X174692429Y-91115661D01*
X174692434Y-91115659D01*
X174697384Y-91114174D01*
X174897994Y-91015896D01*
X175079860Y-90886173D01*
X175136460Y-90829771D01*
X175182675Y-90783717D01*
X175238096Y-90728489D01*
X175278312Y-90672523D01*
X175365435Y-90551277D01*
X175368453Y-90547077D01*
X175393176Y-90497055D01*
X175465136Y-90351453D01*
X175465137Y-90351451D01*
X175467430Y-90346811D01*
X175469062Y-90341439D01*
X175494453Y-90257871D01*
X175533394Y-90198507D01*
X175598248Y-90169620D01*
X175615011Y-90168500D01*
X176580606Y-90168500D01*
X176648727Y-90188502D01*
X176683819Y-90222229D01*
X176779503Y-90358879D01*
X176793802Y-90379300D01*
X176955700Y-90541198D01*
X176960208Y-90544355D01*
X176960211Y-90544357D01*
X176970094Y-90551277D01*
X177143251Y-90672523D01*
X177148233Y-90674846D01*
X177148238Y-90674849D01*
X177182457Y-90690805D01*
X177235742Y-90737722D01*
X177255203Y-90805999D01*
X177234661Y-90873959D01*
X177182457Y-90919195D01*
X177148238Y-90935151D01*
X177148233Y-90935154D01*
X177143251Y-90937477D01*
X177105027Y-90964242D01*
X176960211Y-91065643D01*
X176960208Y-91065645D01*
X176955700Y-91068802D01*
X176793802Y-91230700D01*
X176662477Y-91418251D01*
X176660154Y-91423233D01*
X176660151Y-91423238D01*
X176574026Y-91607935D01*
X176565716Y-91625757D01*
X176564294Y-91631065D01*
X176564293Y-91631067D01*
X176512980Y-91822569D01*
X176506457Y-91846913D01*
X176486502Y-92075000D01*
X176506457Y-92303087D01*
X176507881Y-92308400D01*
X176507881Y-92308402D01*
X176563935Y-92517595D01*
X176565716Y-92524243D01*
X176568039Y-92529224D01*
X176568039Y-92529225D01*
X176660151Y-92726762D01*
X176660154Y-92726767D01*
X176662477Y-92731749D01*
X176731105Y-92829760D01*
X176786493Y-92908861D01*
X176793802Y-92919300D01*
X176955700Y-93081198D01*
X176960208Y-93084355D01*
X176960211Y-93084357D01*
X177001542Y-93113297D01*
X177143251Y-93212523D01*
X177148233Y-93214846D01*
X177148238Y-93214849D01*
X177345775Y-93306961D01*
X177350757Y-93309284D01*
X177356065Y-93310706D01*
X177356067Y-93310707D01*
X177566598Y-93367119D01*
X177566600Y-93367119D01*
X177571913Y-93368543D01*
X177800000Y-93388498D01*
X178028087Y-93368543D01*
X178033400Y-93367119D01*
X178033402Y-93367119D01*
X178243933Y-93310707D01*
X178243935Y-93310706D01*
X178249243Y-93309284D01*
X178254225Y-93306961D01*
X178451762Y-93214849D01*
X178451767Y-93214846D01*
X178456749Y-93212523D01*
X178598458Y-93113297D01*
X178639789Y-93084357D01*
X178639792Y-93084355D01*
X178644300Y-93081198D01*
X178806198Y-92919300D01*
X178813508Y-92908861D01*
X178868895Y-92829760D01*
X178937523Y-92731749D01*
X178939846Y-92726767D01*
X178939849Y-92726762D01*
X179031961Y-92529225D01*
X179031961Y-92529224D01*
X179034284Y-92524243D01*
X179036066Y-92517595D01*
X179092119Y-92308402D01*
X179092119Y-92308400D01*
X179093543Y-92303087D01*
X179113498Y-92075000D01*
X179093543Y-91846913D01*
X179092119Y-91841598D01*
X179092118Y-91841591D01*
X179076541Y-91783459D01*
X179078230Y-91712483D01*
X179109152Y-91661752D01*
X181621247Y-89149657D01*
X181629537Y-89142113D01*
X181636018Y-89138000D01*
X181682659Y-89088332D01*
X181685413Y-89085491D01*
X181705134Y-89065770D01*
X181707612Y-89062575D01*
X181715318Y-89053553D01*
X181717775Y-89050937D01*
X181745586Y-89021321D01*
X181755346Y-89003568D01*
X181766199Y-88987045D01*
X181767356Y-88985553D01*
X181778613Y-88971041D01*
X181796176Y-88930457D01*
X181801383Y-88919827D01*
X181822695Y-88881060D01*
X181824666Y-88873383D01*
X181824668Y-88873378D01*
X181827732Y-88861442D01*
X181834138Y-88842730D01*
X181839033Y-88831419D01*
X181842181Y-88824145D01*
X181843421Y-88816317D01*
X181843423Y-88816310D01*
X181849099Y-88780476D01*
X181851505Y-88768856D01*
X181860528Y-88733711D01*
X181860528Y-88733710D01*
X181862500Y-88726030D01*
X181862500Y-88705776D01*
X181864051Y-88686065D01*
X181865980Y-88673886D01*
X181867220Y-88666057D01*
X181863059Y-88622038D01*
X181862500Y-88610181D01*
X181862500Y-83626595D01*
X181882502Y-83558474D01*
X181899405Y-83537499D01*
X182597501Y-82839404D01*
X182659813Y-82805379D01*
X182686596Y-82802500D01*
X188404406Y-82802500D01*
X188472527Y-82822502D01*
X188493501Y-82839405D01*
X189344371Y-83690275D01*
X189378397Y-83752587D01*
X189381276Y-83779370D01*
X189381276Y-84987910D01*
X189388031Y-85050092D01*
X189439161Y-85186481D01*
X189526515Y-85303037D01*
X189643071Y-85390391D01*
X189779460Y-85441521D01*
X189835336Y-85447591D01*
X189836331Y-85447699D01*
X189841642Y-85448276D01*
X191537910Y-85448276D01*
X191543222Y-85447699D01*
X191544216Y-85447591D01*
X191600092Y-85441521D01*
X191736481Y-85390391D01*
X191853037Y-85303037D01*
X191940391Y-85186481D01*
X191991521Y-85050092D01*
X191998276Y-84987910D01*
X191998276Y-83291642D01*
X191991521Y-83229460D01*
X191940391Y-83093071D01*
X191853037Y-82976515D01*
X191736481Y-82889161D01*
X191600092Y-82838031D01*
X191537910Y-82831276D01*
X190329370Y-82831276D01*
X190261249Y-82811274D01*
X190240275Y-82794371D01*
X189222652Y-81776747D01*
X189215112Y-81768461D01*
X189211000Y-81761982D01*
X189161348Y-81715356D01*
X189158507Y-81712602D01*
X189138770Y-81692865D01*
X189135573Y-81690385D01*
X189126551Y-81682680D01*
X189113122Y-81670069D01*
X189094321Y-81652414D01*
X189087375Y-81648595D01*
X189087372Y-81648593D01*
X189076566Y-81642652D01*
X189060047Y-81631801D01*
X189059583Y-81631441D01*
X189044041Y-81619386D01*
X189036772Y-81616241D01*
X189036768Y-81616238D01*
X189003463Y-81601826D01*
X188992813Y-81596609D01*
X188954060Y-81575305D01*
X188934437Y-81570267D01*
X188915734Y-81563863D01*
X188904420Y-81558967D01*
X188904419Y-81558967D01*
X188897145Y-81555819D01*
X188889322Y-81554580D01*
X188889312Y-81554577D01*
X188853476Y-81548901D01*
X188841856Y-81546495D01*
X188806711Y-81537472D01*
X188806710Y-81537472D01*
X188799030Y-81535500D01*
X188778776Y-81535500D01*
X188759065Y-81533949D01*
X188746886Y-81532020D01*
X188739057Y-81530780D01*
X188709786Y-81533547D01*
X188695039Y-81534941D01*
X188683181Y-81535500D01*
X182450767Y-81535500D01*
X182439584Y-81534973D01*
X182432091Y-81533298D01*
X182424165Y-81533547D01*
X182424164Y-81533547D01*
X182364014Y-81535438D01*
X182360055Y-81535500D01*
X182332144Y-81535500D01*
X182328210Y-81535997D01*
X182328209Y-81535997D01*
X182328144Y-81536005D01*
X182316307Y-81536938D01*
X182284490Y-81537938D01*
X182280029Y-81538078D01*
X182272110Y-81538327D01*
X182254454Y-81543456D01*
X182252658Y-81543978D01*
X182233306Y-81547986D01*
X182226235Y-81548880D01*
X182213203Y-81550526D01*
X182205834Y-81553443D01*
X182205832Y-81553444D01*
X182172097Y-81566800D01*
X182160869Y-81570645D01*
X182118407Y-81582982D01*
X182111584Y-81587017D01*
X182111582Y-81587018D01*
X182100972Y-81593293D01*
X182083224Y-81601988D01*
X182064383Y-81609448D01*
X182057967Y-81614110D01*
X182057966Y-81614110D01*
X182028613Y-81635436D01*
X182018693Y-81641952D01*
X181987465Y-81660420D01*
X181987462Y-81660422D01*
X181980638Y-81664458D01*
X181966317Y-81678779D01*
X181951284Y-81691619D01*
X181934893Y-81703528D01*
X181926217Y-81714016D01*
X181906702Y-81737605D01*
X181898712Y-81746384D01*
X180836747Y-82808348D01*
X180828461Y-82815888D01*
X180821982Y-82820000D01*
X180816557Y-82825777D01*
X180775357Y-82869651D01*
X180772602Y-82872493D01*
X180752865Y-82892230D01*
X180750385Y-82895427D01*
X180742682Y-82904447D01*
X180712414Y-82936679D01*
X180708595Y-82943625D01*
X180708593Y-82943628D01*
X180702652Y-82954434D01*
X180691801Y-82970953D01*
X180679386Y-82986959D01*
X180676241Y-82994228D01*
X180676238Y-82994232D01*
X180661826Y-83027537D01*
X180656609Y-83038187D01*
X180635305Y-83076940D01*
X180633334Y-83084615D01*
X180633334Y-83084616D01*
X180630267Y-83096562D01*
X180623863Y-83115266D01*
X180615819Y-83133855D01*
X180614580Y-83141678D01*
X180614577Y-83141688D01*
X180608901Y-83177524D01*
X180606495Y-83189144D01*
X180595500Y-83231970D01*
X180595500Y-83252224D01*
X180593949Y-83271934D01*
X180590780Y-83291943D01*
X180591526Y-83299835D01*
X180594941Y-83335961D01*
X180595500Y-83347819D01*
X180595500Y-88331405D01*
X180575498Y-88399526D01*
X180558595Y-88420500D01*
X179326589Y-89652506D01*
X179264277Y-89686532D01*
X179193462Y-89681467D01*
X179136626Y-89638920D01*
X179111815Y-89572400D01*
X179111974Y-89552428D01*
X179113019Y-89540485D01*
X179113019Y-89540475D01*
X179113498Y-89535000D01*
X179093543Y-89306913D01*
X179049732Y-89143409D01*
X179035707Y-89091067D01*
X179035706Y-89091065D01*
X179034284Y-89085757D01*
X179021288Y-89057886D01*
X178939849Y-88883238D01*
X178939846Y-88883233D01*
X178937523Y-88878251D01*
X178836315Y-88733711D01*
X178809357Y-88695211D01*
X178809355Y-88695208D01*
X178806198Y-88690700D01*
X178644300Y-88528802D01*
X178639792Y-88525645D01*
X178639789Y-88525643D01*
X178489629Y-88420500D01*
X178456749Y-88397477D01*
X178451767Y-88395154D01*
X178451762Y-88395151D01*
X178254225Y-88303039D01*
X178254224Y-88303039D01*
X178249243Y-88300716D01*
X178243935Y-88299294D01*
X178243933Y-88299293D01*
X178033402Y-88242881D01*
X178033400Y-88242881D01*
X178028087Y-88241457D01*
X177800000Y-88221502D01*
X177571913Y-88241457D01*
X177566600Y-88242881D01*
X177566598Y-88242881D01*
X177356067Y-88299293D01*
X177356065Y-88299294D01*
X177350757Y-88300716D01*
X177345776Y-88303039D01*
X177345775Y-88303039D01*
X177148238Y-88395151D01*
X177148233Y-88395154D01*
X177143251Y-88397477D01*
X177110371Y-88420500D01*
X176960211Y-88525643D01*
X176960208Y-88525645D01*
X176955700Y-88528802D01*
X176793802Y-88690700D01*
X176790645Y-88695208D01*
X176790643Y-88695211D01*
X176683819Y-88847771D01*
X176628362Y-88892099D01*
X176580606Y-88901500D01*
X175234009Y-88901500D01*
X175165888Y-88881498D01*
X175140819Y-88860303D01*
X175129670Y-88848051D01*
X175125619Y-88844852D01*
X175125615Y-88844848D01*
X174958414Y-88712800D01*
X174958410Y-88712798D01*
X174954359Y-88709598D01*
X174949835Y-88707101D01*
X174949831Y-88707098D01*
X174898608Y-88678822D01*
X174848636Y-88628390D01*
X174833500Y-88568513D01*
X174833500Y-87669394D01*
X174853502Y-87601273D01*
X174887229Y-87566181D01*
X175039789Y-87459357D01*
X175039792Y-87459355D01*
X175044300Y-87456198D01*
X175206198Y-87294300D01*
X175337523Y-87106749D01*
X175339846Y-87101767D01*
X175339849Y-87101762D01*
X175431961Y-86904225D01*
X175431961Y-86904224D01*
X175434284Y-86899243D01*
X175493543Y-86678087D01*
X175513498Y-86450000D01*
X175493543Y-86221913D01*
X175475670Y-86155211D01*
X175435707Y-86006067D01*
X175435706Y-86006065D01*
X175434284Y-86000757D01*
X175421164Y-85972620D01*
X175339849Y-85798238D01*
X175339846Y-85798233D01*
X175337523Y-85793251D01*
X175206198Y-85605700D01*
X175044300Y-85443802D01*
X175039792Y-85440645D01*
X175039789Y-85440643D01*
X174960329Y-85385005D01*
X174856749Y-85312477D01*
X174851767Y-85310154D01*
X174851762Y-85310151D01*
X174654225Y-85218039D01*
X174654224Y-85218039D01*
X174649243Y-85215716D01*
X174643935Y-85214294D01*
X174643933Y-85214293D01*
X174433402Y-85157881D01*
X174433400Y-85157881D01*
X174428087Y-85156457D01*
X174200000Y-85136502D01*
X173971913Y-85156457D01*
X173966600Y-85157881D01*
X173966598Y-85157881D01*
X173756067Y-85214293D01*
X173756065Y-85214294D01*
X173750757Y-85215716D01*
X173745776Y-85218039D01*
X173745775Y-85218039D01*
X173548238Y-85310151D01*
X173548233Y-85310154D01*
X173543251Y-85312477D01*
X173439671Y-85385005D01*
X173360211Y-85440643D01*
X173360208Y-85440645D01*
X173355700Y-85443802D01*
X173193802Y-85605700D01*
X173190645Y-85610208D01*
X173190643Y-85610211D01*
X173083819Y-85762771D01*
X173028362Y-85807099D01*
X172980606Y-85816500D01*
X171348767Y-85816500D01*
X171337584Y-85815973D01*
X171330091Y-85814298D01*
X171322165Y-85814547D01*
X171322164Y-85814547D01*
X171262001Y-85816438D01*
X171258043Y-85816500D01*
X171230144Y-85816500D01*
X171226154Y-85817004D01*
X171214320Y-85817936D01*
X171170111Y-85819326D01*
X171162497Y-85821538D01*
X171162492Y-85821539D01*
X171150659Y-85824977D01*
X171131296Y-85828988D01*
X171111203Y-85831526D01*
X171103836Y-85834443D01*
X171103831Y-85834444D01*
X171070092Y-85847802D01*
X171058865Y-85851646D01*
X171016407Y-85863982D01*
X171009581Y-85868019D01*
X170998972Y-85874293D01*
X170981224Y-85882988D01*
X170962383Y-85890448D01*
X170955967Y-85895110D01*
X170955966Y-85895110D01*
X170926613Y-85916436D01*
X170916693Y-85922952D01*
X170885465Y-85941420D01*
X170885462Y-85941422D01*
X170878638Y-85945458D01*
X170864317Y-85959779D01*
X170849284Y-85972619D01*
X170832893Y-85984528D01*
X170827843Y-85990632D01*
X170827840Y-85990635D01*
X170818898Y-86001444D01*
X170760063Y-86041181D01*
X170689204Y-86042833D01*
X170633401Y-86027881D01*
X170633402Y-86027881D01*
X170628087Y-86026457D01*
X170400000Y-86006502D01*
X170171913Y-86026457D01*
X170166600Y-86027881D01*
X170166598Y-86027881D01*
X169956067Y-86084293D01*
X169956065Y-86084294D01*
X169950757Y-86085716D01*
X169945776Y-86088039D01*
X169945775Y-86088039D01*
X169748238Y-86180151D01*
X169748233Y-86180154D01*
X169743251Y-86182477D01*
X169638389Y-86255902D01*
X169560211Y-86310643D01*
X169560208Y-86310645D01*
X169555700Y-86313802D01*
X169393802Y-86475700D01*
X169262477Y-86663251D01*
X169260154Y-86668233D01*
X169260151Y-86668238D01*
X169168039Y-86865775D01*
X169165716Y-86870757D01*
X169164294Y-86876065D01*
X169164293Y-86876067D01*
X169133892Y-86989525D01*
X169106457Y-87091913D01*
X169086502Y-87320000D01*
X166925662Y-87320000D01*
X166863261Y-87236739D01*
X166746705Y-87149385D01*
X166610316Y-87098255D01*
X166548134Y-87091500D01*
X166337641Y-87091500D01*
X166269520Y-87071498D01*
X166235693Y-87039544D01*
X166233550Y-87036594D01*
X166227047Y-87026692D01*
X166208578Y-86995463D01*
X166204542Y-86988638D01*
X166190221Y-86974317D01*
X166177380Y-86959283D01*
X166170131Y-86949306D01*
X166165472Y-86942893D01*
X166131395Y-86914702D01*
X166122616Y-86906712D01*
X164351218Y-85135313D01*
X164317192Y-85073001D01*
X164319755Y-85009589D01*
X164330865Y-84973022D01*
X164332370Y-84968069D01*
X164361529Y-84746590D01*
X164363156Y-84680000D01*
X164344852Y-84457361D01*
X164290431Y-84240702D01*
X164201354Y-84035840D01*
X164080014Y-83848277D01*
X163929670Y-83683051D01*
X163925619Y-83679852D01*
X163925615Y-83679848D01*
X163758414Y-83547800D01*
X163758410Y-83547798D01*
X163754359Y-83544598D01*
X163558789Y-83436638D01*
X163553920Y-83434914D01*
X163553916Y-83434912D01*
X163353087Y-83363795D01*
X163353083Y-83363794D01*
X163348212Y-83362069D01*
X163343119Y-83361162D01*
X163343116Y-83361161D01*
X163133373Y-83323800D01*
X163133367Y-83323799D01*
X163128284Y-83322894D01*
X163054452Y-83321992D01*
X162910081Y-83320228D01*
X162910079Y-83320228D01*
X162904911Y-83320165D01*
X162684091Y-83353955D01*
X162471756Y-83423357D01*
X162273607Y-83526507D01*
X162269474Y-83529610D01*
X162269471Y-83529612D01*
X162209814Y-83574404D01*
X162094965Y-83660635D01*
X161940629Y-83822138D01*
X161814743Y-84006680D01*
X161720688Y-84209305D01*
X161660989Y-84424570D01*
X161637251Y-84646695D01*
X160408500Y-84646695D01*
X160408500Y-79334500D01*
X160428502Y-79266379D01*
X160482158Y-79219886D01*
X160534500Y-79208500D01*
X197765500Y-79208500D01*
X197833621Y-79228502D01*
G37*
%TD.AperFunction*%
%TD*%
M02*
