%TF.GenerationSoftware,KiCad,Pcbnew,6.0.11-3.fc37*%
%TF.CreationDate,2023-05-27T21:17:40+01:00*%
%TF.ProjectId,tda2822 board,74646132-3832-4322-9062-6f6172642e6b,rev?*%
%TF.SameCoordinates,Original*%
%TF.FileFunction,Copper,L1,Top*%
%TF.FilePolarity,Positive*%
%FSLAX46Y46*%
G04 Gerber Fmt 4.6, Leading zero omitted, Abs format (unit mm)*
G04 Created by KiCad (PCBNEW 6.0.11-3.fc37) date 2023-05-27 21:17:40*
%MOMM*%
%LPD*%
G01*
G04 APERTURE LIST*
%TA.AperFunction,ComponentPad*%
%ADD10C,1.600000*%
%TD*%
%TA.AperFunction,ComponentPad*%
%ADD11R,1.700000X1.700000*%
%TD*%
%TA.AperFunction,ComponentPad*%
%ADD12O,1.700000X1.700000*%
%TD*%
%TA.AperFunction,ComponentPad*%
%ADD13R,1.600000X1.600000*%
%TD*%
%TA.AperFunction,ComponentPad*%
%ADD14O,1.600000X1.600000*%
%TD*%
%TA.AperFunction,Conductor*%
%ADD15C,0.250000*%
%TD*%
G04 APERTURE END LIST*
D10*
%TO.P,C6,1*%
%TO.N,GND*%
X183200000Y-96200000D03*
%TO.P,C6,2*%
%TO.N,Net-(C6-Pad2)*%
X185700000Y-96200000D03*
%TD*%
D11*
%TO.P,J2,1,Pin_1*%
%TO.N,GND*%
X163000000Y-82140000D03*
D12*
%TO.P,J2,2,Pin_2*%
%TO.N,Net-(C2-Pad1)*%
X163000000Y-84680000D03*
%TD*%
D11*
%TO.P,RV1,1,1*%
%TO.N,unconnected-(RV1-Pad1)*%
X174200000Y-94925000D03*
D12*
%TO.P,RV1,2,2*%
%TO.N,GND*%
X174200000Y-92385000D03*
%TO.P,RV1,3,3*%
%TO.N,Net-(C3-Pad2)*%
X174200000Y-89845000D03*
%TD*%
D11*
%TO.P,J1,1,Pin_1*%
%TO.N,GND*%
X163000000Y-94840000D03*
D12*
%TO.P,J1,2,Pin_2*%
%TO.N,+5V*%
X163000000Y-97380000D03*
%TD*%
D11*
%TO.P,J3,1,Pin_1*%
%TO.N,Net-(C5-Pad2)*%
X196020000Y-92305000D03*
D12*
%TO.P,J3,2,Pin_2*%
%TO.N,GND*%
X196020000Y-89765000D03*
%TD*%
D10*
%TO.P,C3,1*%
%TO.N,GND*%
X174200000Y-83950000D03*
%TO.P,C3,2*%
%TO.N,Net-(C3-Pad2)*%
X174200000Y-86450000D03*
%TD*%
D13*
%TO.P,C4,1*%
%TO.N,Net-(C4-Pad1)*%
X190689776Y-84139776D03*
D10*
%TO.P,C4,2*%
%TO.N,GND*%
X190689776Y-86639776D03*
%TD*%
%TO.P,R1,1*%
%TO.N,Net-(C3-Pad2)*%
X170400000Y-87320000D03*
D14*
%TO.P,R1,2*%
%TO.N,Net-(C2-Pad2)*%
X170400000Y-97480000D03*
%TD*%
D13*
%TO.P,C5,1*%
%TO.N,Net-(C5-Pad1)*%
X190600000Y-90974435D03*
D10*
%TO.P,C5,2*%
%TO.N,Net-(C5-Pad2)*%
X190600000Y-93474435D03*
%TD*%
%TO.P,R2,1*%
%TO.N,Net-(C6-Pad2)*%
X185720000Y-99600000D03*
D14*
%TO.P,R2,2*%
%TO.N,Net-(C5-Pad2)*%
X195880000Y-99600000D03*
%TD*%
D13*
%TO.P,C2,1*%
%TO.N,Net-(C2-Pad1)*%
X165700000Y-88400000D03*
D10*
%TO.P,C2,2*%
%TO.N,Net-(C2-Pad2)*%
X165700000Y-90900000D03*
%TD*%
D13*
%TO.P,U1,1*%
%TO.N,Net-(C5-Pad1)*%
X185800000Y-85000000D03*
D14*
%TO.P,U1,2,V+*%
%TO.N,+5V*%
X185800000Y-87540000D03*
%TO.P,U1,3*%
%TO.N,unconnected-(U1-Pad3)*%
X185800000Y-90080000D03*
%TO.P,U1,4,V-*%
%TO.N,GND*%
X185800000Y-92620000D03*
%TO.P,U1,5,-*%
X178180000Y-92620000D03*
%TO.P,U1,6,+*%
X178180000Y-90080000D03*
%TO.P,U1,7,+*%
%TO.N,Net-(C3-Pad2)*%
X178180000Y-87540000D03*
%TO.P,U1,8,-*%
%TO.N,Net-(C4-Pad1)*%
X178180000Y-85000000D03*
%TD*%
D10*
%TO.P,C7,1*%
%TO.N,+5V*%
X180650000Y-96200000D03*
%TO.P,C7,2*%
%TO.N,GND*%
X178150000Y-96200000D03*
%TD*%
D15*
%TO.N,Net-(C2-Pad2)*%
X165700000Y-90900000D02*
X165700000Y-92780000D01*
X165700000Y-92780000D02*
X170400000Y-97480000D01*
%TO.N,Net-(C2-Pad1)*%
X165700000Y-88400000D02*
X165700000Y-87380000D01*
X165700000Y-87380000D02*
X163000000Y-84680000D01*
%TO.N,Net-(C4-Pad1)*%
X190689776Y-84139776D02*
X189250000Y-82700000D01*
X189250000Y-82700000D02*
X179200000Y-82700000D01*
X179200000Y-82700000D02*
X178180000Y-83720000D01*
X178180000Y-83720000D02*
X178180000Y-85000000D01*
%TO.N,+5V*%
X163000000Y-97380000D02*
X165620000Y-100000000D01*
X165620000Y-100000000D02*
X178750000Y-100000000D01*
X178750000Y-100000000D02*
X180650000Y-98100000D01*
X180650000Y-98100000D02*
X180650000Y-96200000D01*
X185800000Y-87540000D02*
X187600000Y-89340000D01*
X187600000Y-89340000D02*
X187600000Y-93000000D01*
X187600000Y-93000000D02*
X186300000Y-94300000D01*
X186300000Y-94300000D02*
X181500000Y-94300000D01*
X181500000Y-94300000D02*
X180650000Y-95150000D01*
X180650000Y-95150000D02*
X180650000Y-96200000D01*
%TO.N,Net-(C3-Pad2)*%
X174200000Y-86450000D02*
X177090000Y-86450000D01*
X177090000Y-86450000D02*
X178180000Y-87540000D01*
%TO.N,Net-(C5-Pad1)*%
X190600000Y-90974435D02*
X190600000Y-89800000D01*
X190600000Y-89800000D02*
X185800000Y-85000000D01*
%TO.N,Net-(C3-Pad2)*%
X172080000Y-87320000D02*
X172950000Y-86450000D01*
X172950000Y-86450000D02*
X174200000Y-86450000D01*
X174200000Y-89845000D02*
X174200000Y-86450000D01*
X170400000Y-87320000D02*
X172080000Y-87320000D01*
%TO.N,Net-(C5-Pad2)*%
X196020000Y-92305000D02*
X196020000Y-99460000D01*
X190600000Y-93474435D02*
X194850565Y-93474435D01*
X196020000Y-99460000D02*
X195880000Y-99600000D01*
X194850565Y-93474435D02*
X196020000Y-92305000D01*
%TO.N,Net-(C6-Pad2)*%
X185720000Y-99600000D02*
X185720000Y-96220000D01*
X185720000Y-96220000D02*
X185700000Y-96200000D01*
%TD*%
%TA.AperFunction,Conductor*%
%TO.N,GND*%
G36*
X197833621Y-79228502D02*
G01*
X197880114Y-79282158D01*
X197891500Y-79334500D01*
X197891500Y-101565500D01*
X197871498Y-101633621D01*
X197817842Y-101680114D01*
X197765500Y-101691500D01*
X160534500Y-101691500D01*
X160466379Y-101671498D01*
X160419886Y-101617842D01*
X160408500Y-101565500D01*
X160408500Y-97346695D01*
X161637251Y-97346695D01*
X161637548Y-97351848D01*
X161637548Y-97351851D01*
X161643011Y-97446590D01*
X161650110Y-97569715D01*
X161651247Y-97574761D01*
X161651248Y-97574767D01*
X161671119Y-97662939D01*
X161699222Y-97787639D01*
X161783266Y-97994616D01*
X161785965Y-97999020D01*
X161892029Y-98172101D01*
X161899987Y-98185088D01*
X162046250Y-98353938D01*
X162218126Y-98496632D01*
X162411000Y-98609338D01*
X162619692Y-98689030D01*
X162624760Y-98690061D01*
X162624763Y-98690062D01*
X162732012Y-98711882D01*
X162838597Y-98733567D01*
X162843772Y-98733757D01*
X162843774Y-98733757D01*
X163056673Y-98741564D01*
X163056677Y-98741564D01*
X163061837Y-98741753D01*
X163066957Y-98741097D01*
X163066959Y-98741097D01*
X163278288Y-98714025D01*
X163278289Y-98714025D01*
X163283416Y-98713368D01*
X163288367Y-98711883D01*
X163288370Y-98711882D01*
X163329829Y-98699444D01*
X163400825Y-98699028D01*
X163455131Y-98731035D01*
X165116343Y-100392247D01*
X165123887Y-100400537D01*
X165128000Y-100407018D01*
X165133777Y-100412443D01*
X165177667Y-100453658D01*
X165180509Y-100456413D01*
X165200231Y-100476135D01*
X165203355Y-100478558D01*
X165203359Y-100478562D01*
X165203424Y-100478612D01*
X165212445Y-100486317D01*
X165244679Y-100516586D01*
X165251627Y-100520405D01*
X165251629Y-100520407D01*
X165262432Y-100526346D01*
X165278959Y-100537202D01*
X165288698Y-100544757D01*
X165288700Y-100544758D01*
X165294960Y-100549614D01*
X165335540Y-100567174D01*
X165346188Y-100572391D01*
X165370976Y-100586018D01*
X165384940Y-100593695D01*
X165392616Y-100595666D01*
X165392619Y-100595667D01*
X165404562Y-100598733D01*
X165423267Y-100605137D01*
X165441855Y-100613181D01*
X165449678Y-100614420D01*
X165449688Y-100614423D01*
X165485524Y-100620099D01*
X165497144Y-100622505D01*
X165528959Y-100630673D01*
X165539970Y-100633500D01*
X165560224Y-100633500D01*
X165579934Y-100635051D01*
X165599943Y-100638220D01*
X165607835Y-100637474D01*
X165626580Y-100635702D01*
X165643962Y-100634059D01*
X165655819Y-100633500D01*
X178671233Y-100633500D01*
X178682416Y-100634027D01*
X178689909Y-100635702D01*
X178697835Y-100635453D01*
X178697836Y-100635453D01*
X178757986Y-100633562D01*
X178761945Y-100633500D01*
X178789856Y-100633500D01*
X178793791Y-100633003D01*
X178793856Y-100632995D01*
X178805693Y-100632062D01*
X178837951Y-100631048D01*
X178841970Y-100630922D01*
X178849889Y-100630673D01*
X178869343Y-100625021D01*
X178888700Y-100621013D01*
X178900930Y-100619468D01*
X178900931Y-100619468D01*
X178908797Y-100618474D01*
X178916168Y-100615555D01*
X178916170Y-100615555D01*
X178949912Y-100602196D01*
X178961142Y-100598351D01*
X178995983Y-100588229D01*
X178995984Y-100588229D01*
X179003593Y-100586018D01*
X179010412Y-100581985D01*
X179010417Y-100581983D01*
X179021028Y-100575707D01*
X179038776Y-100567012D01*
X179057617Y-100559552D01*
X179093387Y-100533564D01*
X179103307Y-100527048D01*
X179134535Y-100508580D01*
X179134538Y-100508578D01*
X179141362Y-100504542D01*
X179155683Y-100490221D01*
X179170717Y-100477380D01*
X179172431Y-100476135D01*
X179187107Y-100465472D01*
X179215298Y-100431395D01*
X179223288Y-100422616D01*
X181042253Y-98603652D01*
X181050539Y-98596112D01*
X181057018Y-98592000D01*
X181103644Y-98542348D01*
X181106398Y-98539507D01*
X181126135Y-98519770D01*
X181128615Y-98516573D01*
X181136320Y-98507551D01*
X181161159Y-98481100D01*
X181166586Y-98475321D01*
X181170405Y-98468375D01*
X181170407Y-98468372D01*
X181176348Y-98457566D01*
X181187199Y-98441047D01*
X181194758Y-98431301D01*
X181199614Y-98425041D01*
X181202759Y-98417772D01*
X181202762Y-98417768D01*
X181217174Y-98384463D01*
X181222391Y-98373813D01*
X181243695Y-98335060D01*
X181248733Y-98315437D01*
X181255137Y-98296734D01*
X181260033Y-98285420D01*
X181260033Y-98285419D01*
X181263181Y-98278145D01*
X181264420Y-98270322D01*
X181264423Y-98270312D01*
X181270099Y-98234476D01*
X181272505Y-98222856D01*
X181281528Y-98187711D01*
X181281528Y-98187710D01*
X181283500Y-98180030D01*
X181283500Y-98159776D01*
X181285051Y-98140065D01*
X181286980Y-98127886D01*
X181288220Y-98120057D01*
X181284059Y-98076038D01*
X181283500Y-98064181D01*
X181283500Y-97419394D01*
X181303502Y-97351273D01*
X181337229Y-97316181D01*
X181489789Y-97209357D01*
X181489792Y-97209355D01*
X181494300Y-97206198D01*
X181656198Y-97044300D01*
X181669170Y-97025775D01*
X181784366Y-96861257D01*
X181787523Y-96856749D01*
X181789846Y-96851767D01*
X181789849Y-96851762D01*
X181881961Y-96654225D01*
X181881961Y-96654224D01*
X181884284Y-96649243D01*
X181930250Y-96477699D01*
X181942119Y-96433402D01*
X181942119Y-96433400D01*
X181943543Y-96428087D01*
X181963498Y-96200000D01*
X181943543Y-95971913D01*
X181904588Y-95826531D01*
X181885707Y-95756067D01*
X181885706Y-95756065D01*
X181884284Y-95750757D01*
X181881961Y-95745775D01*
X181789849Y-95548238D01*
X181789846Y-95548233D01*
X181787523Y-95543251D01*
X181656198Y-95355700D01*
X181587296Y-95286798D01*
X181553270Y-95224486D01*
X181558335Y-95153671D01*
X181587296Y-95108608D01*
X181725499Y-94970405D01*
X181787811Y-94936379D01*
X181814594Y-94933500D01*
X184827829Y-94933500D01*
X184895950Y-94953502D01*
X184942443Y-95007158D01*
X184952547Y-95077432D01*
X184923053Y-95142012D01*
X184900099Y-95162713D01*
X184860216Y-95190639D01*
X184860210Y-95190644D01*
X184855700Y-95193802D01*
X184693802Y-95355700D01*
X184562477Y-95543251D01*
X184560154Y-95548233D01*
X184560151Y-95548238D01*
X184468039Y-95745775D01*
X184465716Y-95750757D01*
X184464294Y-95756065D01*
X184464293Y-95756067D01*
X184445412Y-95826531D01*
X184406457Y-95971913D01*
X184386502Y-96200000D01*
X184406457Y-96428087D01*
X184407881Y-96433400D01*
X184407881Y-96433402D01*
X184419751Y-96477699D01*
X184465716Y-96649243D01*
X184468039Y-96654224D01*
X184468039Y-96654225D01*
X184560151Y-96851762D01*
X184560154Y-96851767D01*
X184562477Y-96856749D01*
X184565634Y-96861257D01*
X184680831Y-97025775D01*
X184693802Y-97044300D01*
X184855700Y-97206198D01*
X184860208Y-97209355D01*
X184860211Y-97209357D01*
X185032771Y-97330185D01*
X185077099Y-97385642D01*
X185086500Y-97433398D01*
X185086500Y-98380606D01*
X185066498Y-98448727D01*
X185032771Y-98483819D01*
X184880211Y-98590643D01*
X184880208Y-98590645D01*
X184875700Y-98593802D01*
X184713802Y-98755700D01*
X184710645Y-98760208D01*
X184710643Y-98760211D01*
X184687671Y-98793019D01*
X184582477Y-98943251D01*
X184580154Y-98948233D01*
X184580151Y-98948238D01*
X184488039Y-99145775D01*
X184485716Y-99150757D01*
X184426457Y-99371913D01*
X184406502Y-99600000D01*
X184426457Y-99828087D01*
X184485716Y-100049243D01*
X184488039Y-100054224D01*
X184488039Y-100054225D01*
X184580151Y-100251762D01*
X184580154Y-100251767D01*
X184582477Y-100256749D01*
X184585634Y-100261257D01*
X184704766Y-100431395D01*
X184713802Y-100444300D01*
X184875700Y-100606198D01*
X184880208Y-100609355D01*
X184880211Y-100609357D01*
X184921432Y-100638220D01*
X185063251Y-100737523D01*
X185068233Y-100739846D01*
X185068238Y-100739849D01*
X185265775Y-100831961D01*
X185270757Y-100834284D01*
X185276065Y-100835706D01*
X185276067Y-100835707D01*
X185486598Y-100892119D01*
X185486600Y-100892119D01*
X185491913Y-100893543D01*
X185720000Y-100913498D01*
X185948087Y-100893543D01*
X185953400Y-100892119D01*
X185953402Y-100892119D01*
X186163933Y-100835707D01*
X186163935Y-100835706D01*
X186169243Y-100834284D01*
X186174225Y-100831961D01*
X186371762Y-100739849D01*
X186371767Y-100739846D01*
X186376749Y-100737523D01*
X186518568Y-100638220D01*
X186559789Y-100609357D01*
X186559792Y-100609355D01*
X186564300Y-100606198D01*
X186726198Y-100444300D01*
X186735235Y-100431395D01*
X186854366Y-100261257D01*
X186857523Y-100256749D01*
X186859846Y-100251767D01*
X186859849Y-100251762D01*
X186951961Y-100054225D01*
X186951961Y-100054224D01*
X186954284Y-100049243D01*
X187013543Y-99828087D01*
X187033498Y-99600000D01*
X187013543Y-99371913D01*
X186954284Y-99150757D01*
X186951961Y-99145775D01*
X186859849Y-98948238D01*
X186859846Y-98948233D01*
X186857523Y-98943251D01*
X186752329Y-98793019D01*
X186729357Y-98760211D01*
X186729355Y-98760208D01*
X186726198Y-98755700D01*
X186564300Y-98593802D01*
X186559792Y-98590645D01*
X186559789Y-98590643D01*
X186407229Y-98483819D01*
X186362901Y-98428362D01*
X186353500Y-98380606D01*
X186353500Y-97405389D01*
X186373502Y-97337268D01*
X186407228Y-97302177D01*
X186486613Y-97246591D01*
X186539789Y-97209357D01*
X186539792Y-97209355D01*
X186544300Y-97206198D01*
X186706198Y-97044300D01*
X186719170Y-97025775D01*
X186834366Y-96861257D01*
X186837523Y-96856749D01*
X186839846Y-96851767D01*
X186839849Y-96851762D01*
X186931961Y-96654225D01*
X186931961Y-96654224D01*
X186934284Y-96649243D01*
X186980250Y-96477699D01*
X186992119Y-96433402D01*
X186992119Y-96433400D01*
X186993543Y-96428087D01*
X187013498Y-96200000D01*
X186993543Y-95971913D01*
X186954588Y-95826531D01*
X186935707Y-95756067D01*
X186935706Y-95756065D01*
X186934284Y-95750757D01*
X186931961Y-95745775D01*
X186839849Y-95548238D01*
X186839846Y-95548233D01*
X186837523Y-95543251D01*
X186706198Y-95355700D01*
X186544300Y-95193802D01*
X186539792Y-95190645D01*
X186539789Y-95190643D01*
X186453923Y-95130519D01*
X186409595Y-95075062D01*
X186402286Y-95004442D01*
X186434317Y-94941082D01*
X186479813Y-94910153D01*
X186499914Y-94902195D01*
X186511142Y-94898351D01*
X186545983Y-94888229D01*
X186545984Y-94888229D01*
X186553593Y-94886018D01*
X186560412Y-94881985D01*
X186560417Y-94881983D01*
X186571028Y-94875707D01*
X186588776Y-94867012D01*
X186607617Y-94859552D01*
X186643387Y-94833564D01*
X186653307Y-94827048D01*
X186684535Y-94808580D01*
X186684538Y-94808578D01*
X186691362Y-94804542D01*
X186705683Y-94790221D01*
X186720717Y-94777380D01*
X186737107Y-94765472D01*
X186765298Y-94731395D01*
X186773288Y-94722616D01*
X187992247Y-93503657D01*
X188000537Y-93496113D01*
X188007018Y-93492000D01*
X188023513Y-93474435D01*
X188053658Y-93442333D01*
X188056413Y-93439491D01*
X188076135Y-93419769D01*
X188078612Y-93416576D01*
X188086317Y-93407555D01*
X188111159Y-93381100D01*
X188116586Y-93375321D01*
X188120407Y-93368371D01*
X188126346Y-93357568D01*
X188137202Y-93341041D01*
X188144757Y-93331302D01*
X188144758Y-93331300D01*
X188149614Y-93325040D01*
X188167174Y-93284460D01*
X188172391Y-93273812D01*
X188189875Y-93242009D01*
X188189876Y-93242007D01*
X188193695Y-93235060D01*
X188198733Y-93215437D01*
X188205137Y-93196734D01*
X188210033Y-93185420D01*
X188210033Y-93185419D01*
X188213181Y-93178145D01*
X188214420Y-93170322D01*
X188214423Y-93170312D01*
X188220099Y-93134476D01*
X188222505Y-93122856D01*
X188231528Y-93087711D01*
X188231528Y-93087710D01*
X188233500Y-93080030D01*
X188233500Y-93059776D01*
X188235051Y-93040065D01*
X188236980Y-93027886D01*
X188238220Y-93020057D01*
X188234059Y-92976038D01*
X188233500Y-92964181D01*
X188233500Y-89418763D01*
X188234027Y-89407579D01*
X188235701Y-89400091D01*
X188233562Y-89332032D01*
X188233500Y-89328075D01*
X188233500Y-89300144D01*
X188232994Y-89296138D01*
X188232061Y-89284292D01*
X188230922Y-89248037D01*
X188230673Y-89240110D01*
X188225022Y-89220658D01*
X188221014Y-89201306D01*
X188219468Y-89189068D01*
X188219467Y-89189066D01*
X188218474Y-89181203D01*
X188202194Y-89140086D01*
X188198359Y-89128885D01*
X188186018Y-89086406D01*
X188181985Y-89079587D01*
X188181983Y-89079582D01*
X188175707Y-89068971D01*
X188167010Y-89051221D01*
X188159552Y-89032383D01*
X188133571Y-88996623D01*
X188127053Y-88986701D01*
X188108578Y-88955460D01*
X188108574Y-88955455D01*
X188104542Y-88948637D01*
X188090218Y-88934313D01*
X188077376Y-88919278D01*
X188065472Y-88902893D01*
X188031406Y-88874711D01*
X188022627Y-88866722D01*
X187109152Y-87953247D01*
X187075126Y-87890935D01*
X187076540Y-87831541D01*
X187093543Y-87768087D01*
X187113498Y-87540000D01*
X187113019Y-87534525D01*
X187113019Y-87534514D01*
X187111974Y-87522570D01*
X187125962Y-87452965D01*
X187175361Y-87401973D01*
X187244487Y-87385782D01*
X187311393Y-87409534D01*
X187326588Y-87422492D01*
X188446396Y-88542301D01*
X189493185Y-89589090D01*
X189527211Y-89651402D01*
X189522146Y-89722218D01*
X189479656Y-89779010D01*
X189436739Y-89811174D01*
X189349385Y-89927730D01*
X189298255Y-90064119D01*
X189291500Y-90126301D01*
X189291500Y-91822569D01*
X189298255Y-91884751D01*
X189349385Y-92021140D01*
X189436739Y-92137696D01*
X189553295Y-92225050D01*
X189561703Y-92228202D01*
X189689684Y-92276180D01*
X189688954Y-92278126D01*
X189741205Y-92307980D01*
X189774021Y-92370938D01*
X189767591Y-92441642D01*
X189739502Y-92484435D01*
X189593802Y-92630135D01*
X189590645Y-92634643D01*
X189590643Y-92634646D01*
X189537839Y-92710058D01*
X189462477Y-92817686D01*
X189460154Y-92822668D01*
X189460151Y-92822673D01*
X189368110Y-93020057D01*
X189365716Y-93025192D01*
X189364294Y-93030500D01*
X189364293Y-93030502D01*
X189307881Y-93241033D01*
X189306457Y-93246348D01*
X189286502Y-93474435D01*
X189306457Y-93702522D01*
X189307881Y-93707835D01*
X189307881Y-93707837D01*
X189359710Y-93901262D01*
X189365716Y-93923678D01*
X189368039Y-93928659D01*
X189368039Y-93928660D01*
X189460151Y-94126197D01*
X189460154Y-94126202D01*
X189462477Y-94131184D01*
X189593802Y-94318735D01*
X189755700Y-94480633D01*
X189760208Y-94483790D01*
X189760211Y-94483792D01*
X189838389Y-94538533D01*
X189943251Y-94611958D01*
X189948233Y-94614281D01*
X189948238Y-94614284D01*
X190145775Y-94706396D01*
X190150757Y-94708719D01*
X190156065Y-94710141D01*
X190156067Y-94710142D01*
X190366598Y-94766554D01*
X190366600Y-94766554D01*
X190371913Y-94767978D01*
X190600000Y-94787933D01*
X190828087Y-94767978D01*
X190833400Y-94766554D01*
X190833402Y-94766554D01*
X191043933Y-94710142D01*
X191043935Y-94710141D01*
X191049243Y-94708719D01*
X191054225Y-94706396D01*
X191251762Y-94614284D01*
X191251767Y-94614281D01*
X191256749Y-94611958D01*
X191361611Y-94538533D01*
X191439789Y-94483792D01*
X191439792Y-94483790D01*
X191444300Y-94480633D01*
X191606198Y-94318735D01*
X191716181Y-94161664D01*
X191771638Y-94117336D01*
X191819394Y-94107935D01*
X194771798Y-94107935D01*
X194782981Y-94108462D01*
X194790474Y-94110137D01*
X194798400Y-94109888D01*
X194798401Y-94109888D01*
X194858551Y-94107997D01*
X194862510Y-94107935D01*
X194890421Y-94107935D01*
X194894356Y-94107438D01*
X194894421Y-94107430D01*
X194906258Y-94106497D01*
X194938516Y-94105483D01*
X194942535Y-94105357D01*
X194950454Y-94105108D01*
X194969908Y-94099456D01*
X194989265Y-94095448D01*
X195001495Y-94093903D01*
X195001496Y-94093903D01*
X195009362Y-94092909D01*
X195016733Y-94089990D01*
X195016735Y-94089990D01*
X195050477Y-94076631D01*
X195061707Y-94072786D01*
X195096548Y-94062664D01*
X195096549Y-94062664D01*
X195104158Y-94060453D01*
X195110977Y-94056420D01*
X195110982Y-94056418D01*
X195121593Y-94050142D01*
X195139341Y-94041447D01*
X195158182Y-94033987D01*
X195164600Y-94029324D01*
X195164604Y-94029322D01*
X195186441Y-94013457D01*
X195253309Y-93989599D01*
X195322460Y-94005681D01*
X195371939Y-94056596D01*
X195386500Y-94115394D01*
X195386500Y-98306082D01*
X195366498Y-98374203D01*
X195313751Y-98420276D01*
X195223251Y-98462477D01*
X195145983Y-98516581D01*
X195040211Y-98590643D01*
X195040208Y-98590645D01*
X195035700Y-98593802D01*
X194873802Y-98755700D01*
X194870645Y-98760208D01*
X194870643Y-98760211D01*
X194847671Y-98793019D01*
X194742477Y-98943251D01*
X194740154Y-98948233D01*
X194740151Y-98948238D01*
X194648039Y-99145775D01*
X194645716Y-99150757D01*
X194586457Y-99371913D01*
X194566502Y-99600000D01*
X194586457Y-99828087D01*
X194645716Y-100049243D01*
X194648039Y-100054224D01*
X194648039Y-100054225D01*
X194740151Y-100251762D01*
X194740154Y-100251767D01*
X194742477Y-100256749D01*
X194745634Y-100261257D01*
X194864766Y-100431395D01*
X194873802Y-100444300D01*
X195035700Y-100606198D01*
X195040208Y-100609355D01*
X195040211Y-100609357D01*
X195081432Y-100638220D01*
X195223251Y-100737523D01*
X195228233Y-100739846D01*
X195228238Y-100739849D01*
X195425775Y-100831961D01*
X195430757Y-100834284D01*
X195436065Y-100835706D01*
X195436067Y-100835707D01*
X195646598Y-100892119D01*
X195646600Y-100892119D01*
X195651913Y-100893543D01*
X195880000Y-100913498D01*
X196108087Y-100893543D01*
X196113400Y-100892119D01*
X196113402Y-100892119D01*
X196323933Y-100835707D01*
X196323935Y-100835706D01*
X196329243Y-100834284D01*
X196334225Y-100831961D01*
X196531762Y-100739849D01*
X196531767Y-100739846D01*
X196536749Y-100737523D01*
X196678568Y-100638220D01*
X196719789Y-100609357D01*
X196719792Y-100609355D01*
X196724300Y-100606198D01*
X196886198Y-100444300D01*
X196895235Y-100431395D01*
X197014366Y-100261257D01*
X197017523Y-100256749D01*
X197019846Y-100251767D01*
X197019849Y-100251762D01*
X197111961Y-100054225D01*
X197111961Y-100054224D01*
X197114284Y-100049243D01*
X197173543Y-99828087D01*
X197193498Y-99600000D01*
X197173543Y-99371913D01*
X197114284Y-99150757D01*
X197111961Y-99145775D01*
X197019849Y-98948238D01*
X197019846Y-98948233D01*
X197017523Y-98943251D01*
X196912329Y-98793019D01*
X196889357Y-98760211D01*
X196889355Y-98760208D01*
X196886198Y-98755700D01*
X196724300Y-98593802D01*
X196707229Y-98581849D01*
X196662901Y-98526393D01*
X196653500Y-98478636D01*
X196653500Y-93789500D01*
X196673502Y-93721379D01*
X196727158Y-93674886D01*
X196779500Y-93663500D01*
X196918134Y-93663500D01*
X196980316Y-93656745D01*
X197116705Y-93605615D01*
X197233261Y-93518261D01*
X197320615Y-93401705D01*
X197371745Y-93265316D01*
X197378500Y-93203134D01*
X197378500Y-91406866D01*
X197371745Y-91344684D01*
X197320615Y-91208295D01*
X197233261Y-91091739D01*
X197116705Y-91004385D01*
X196980316Y-90953255D01*
X196918134Y-90946500D01*
X195121866Y-90946500D01*
X195059684Y-90953255D01*
X194923295Y-91004385D01*
X194806739Y-91091739D01*
X194719385Y-91208295D01*
X194668255Y-91344684D01*
X194661500Y-91406866D01*
X194661500Y-92714935D01*
X194641498Y-92783056D01*
X194587842Y-92829549D01*
X194535500Y-92840935D01*
X191819394Y-92840935D01*
X191751273Y-92820933D01*
X191716181Y-92787206D01*
X191609357Y-92634646D01*
X191609355Y-92634643D01*
X191606198Y-92630135D01*
X191460498Y-92484435D01*
X191426472Y-92422123D01*
X191431537Y-92351308D01*
X191474084Y-92294472D01*
X191510737Y-92277303D01*
X191510316Y-92276180D01*
X191638297Y-92228202D01*
X191646705Y-92225050D01*
X191763261Y-92137696D01*
X191850615Y-92021140D01*
X191901745Y-91884751D01*
X191908500Y-91822569D01*
X191908500Y-90126301D01*
X191901745Y-90064119D01*
X191850615Y-89927730D01*
X191763261Y-89811174D01*
X191646705Y-89723820D01*
X191510316Y-89672690D01*
X191448134Y-89665935D01*
X191315348Y-89665935D01*
X191247227Y-89645933D01*
X191200734Y-89592277D01*
X191194351Y-89575088D01*
X191188230Y-89554019D01*
X191188229Y-89554016D01*
X191186018Y-89546407D01*
X191175707Y-89528972D01*
X191167012Y-89511224D01*
X191159552Y-89492383D01*
X191133564Y-89456613D01*
X191127048Y-89446693D01*
X191108580Y-89415465D01*
X191108578Y-89415462D01*
X191104542Y-89408638D01*
X191090221Y-89394317D01*
X191077380Y-89379283D01*
X191070131Y-89369306D01*
X191065472Y-89362893D01*
X191031395Y-89334702D01*
X191022616Y-89326712D01*
X187145405Y-85449500D01*
X187111379Y-85387188D01*
X187108500Y-85360405D01*
X187108500Y-84151866D01*
X187101745Y-84089684D01*
X187050615Y-83953295D01*
X186963261Y-83836739D01*
X186846705Y-83749385D01*
X186710316Y-83698255D01*
X186648134Y-83691500D01*
X184951866Y-83691500D01*
X184889684Y-83698255D01*
X184753295Y-83749385D01*
X184636739Y-83836739D01*
X184549385Y-83953295D01*
X184498255Y-84089684D01*
X184491500Y-84151866D01*
X184491500Y-85848134D01*
X184491869Y-85851531D01*
X184492185Y-85854440D01*
X184498255Y-85910316D01*
X184549385Y-86046705D01*
X184636739Y-86163261D01*
X184753295Y-86250615D01*
X184889684Y-86301745D01*
X184900474Y-86302917D01*
X184902606Y-86303803D01*
X184905222Y-86304425D01*
X184905121Y-86304848D01*
X184966035Y-86330155D01*
X185006463Y-86388517D01*
X185008922Y-86459471D01*
X184972629Y-86520490D01*
X184963969Y-86527489D01*
X184960207Y-86530646D01*
X184955700Y-86533802D01*
X184793802Y-86695700D01*
X184662477Y-86883251D01*
X184660154Y-86888233D01*
X184660151Y-86888238D01*
X184574284Y-87072383D01*
X184565716Y-87090757D01*
X184564294Y-87096065D01*
X184564293Y-87096067D01*
X184510132Y-87298197D01*
X184506457Y-87311913D01*
X184486502Y-87540000D01*
X184506457Y-87768087D01*
X184507880Y-87773398D01*
X184507881Y-87773402D01*
X184558658Y-87962901D01*
X184565716Y-87989243D01*
X184568039Y-87994224D01*
X184568039Y-87994225D01*
X184660151Y-88191762D01*
X184660154Y-88191767D01*
X184662477Y-88196749D01*
X184793802Y-88384300D01*
X184955700Y-88546198D01*
X184960208Y-88549355D01*
X184960211Y-88549357D01*
X184963930Y-88551961D01*
X185143251Y-88677523D01*
X185148233Y-88679846D01*
X185148238Y-88679849D01*
X185182457Y-88695805D01*
X185235742Y-88742722D01*
X185255203Y-88810999D01*
X185234661Y-88878959D01*
X185182457Y-88924195D01*
X185148238Y-88940151D01*
X185148233Y-88940154D01*
X185143251Y-88942477D01*
X185084806Y-88983401D01*
X184960211Y-89070643D01*
X184960208Y-89070645D01*
X184955700Y-89073802D01*
X184793802Y-89235700D01*
X184790645Y-89240208D01*
X184790643Y-89240211D01*
X184782717Y-89251531D01*
X184662477Y-89423251D01*
X184660154Y-89428233D01*
X184660151Y-89428238D01*
X184583659Y-89592277D01*
X184565716Y-89630757D01*
X184564294Y-89636065D01*
X184564293Y-89636067D01*
X184518609Y-89806562D01*
X184506457Y-89851913D01*
X184486502Y-90080000D01*
X184506457Y-90308087D01*
X184507881Y-90313400D01*
X184507881Y-90313402D01*
X184544686Y-90450757D01*
X184565716Y-90529243D01*
X184568039Y-90534224D01*
X184568039Y-90534225D01*
X184660151Y-90731762D01*
X184660154Y-90731767D01*
X184662477Y-90736749D01*
X184665634Y-90741257D01*
X184780621Y-90905475D01*
X184793802Y-90924300D01*
X184955700Y-91086198D01*
X184960208Y-91089355D01*
X184960211Y-91089357D01*
X185023114Y-91133402D01*
X185143251Y-91217523D01*
X185148233Y-91219846D01*
X185148238Y-91219849D01*
X185345775Y-91311961D01*
X185350757Y-91314284D01*
X185356065Y-91315706D01*
X185356067Y-91315707D01*
X185566598Y-91372119D01*
X185566600Y-91372119D01*
X185571913Y-91373543D01*
X185800000Y-91393498D01*
X186028087Y-91373543D01*
X186033400Y-91372119D01*
X186033402Y-91372119D01*
X186243933Y-91315707D01*
X186243935Y-91315706D01*
X186249243Y-91314284D01*
X186254225Y-91311961D01*
X186451762Y-91219849D01*
X186451767Y-91219846D01*
X186456749Y-91217523D01*
X186576886Y-91133402D01*
X186639789Y-91089357D01*
X186639792Y-91089355D01*
X186644300Y-91086198D01*
X186751405Y-90979093D01*
X186813717Y-90945067D01*
X186884532Y-90950132D01*
X186941368Y-90992679D01*
X186966179Y-91059199D01*
X186966500Y-91068188D01*
X186966500Y-92685405D01*
X186946498Y-92753526D01*
X186929595Y-92774501D01*
X186074499Y-93629596D01*
X186012187Y-93663621D01*
X185985404Y-93666500D01*
X181578768Y-93666500D01*
X181567585Y-93665973D01*
X181560092Y-93664298D01*
X181552166Y-93664547D01*
X181552165Y-93664547D01*
X181492002Y-93666438D01*
X181488044Y-93666500D01*
X181460144Y-93666500D01*
X181456154Y-93667004D01*
X181444320Y-93667936D01*
X181400111Y-93669326D01*
X181392495Y-93671539D01*
X181392493Y-93671539D01*
X181380652Y-93674979D01*
X181361293Y-93678988D01*
X181359983Y-93679154D01*
X181341203Y-93681526D01*
X181333837Y-93684442D01*
X181333831Y-93684444D01*
X181300098Y-93697800D01*
X181288868Y-93701645D01*
X181272646Y-93706358D01*
X181246407Y-93713981D01*
X181239584Y-93718016D01*
X181228966Y-93724295D01*
X181211213Y-93732992D01*
X181203568Y-93736019D01*
X181192383Y-93740448D01*
X181185968Y-93745109D01*
X181156612Y-93766437D01*
X181146695Y-93772951D01*
X181108638Y-93795458D01*
X181094317Y-93809779D01*
X181079284Y-93822619D01*
X181062893Y-93834528D01*
X181057842Y-93840633D01*
X181057837Y-93840638D01*
X181034701Y-93868604D01*
X181026713Y-93877382D01*
X180257747Y-94646348D01*
X180249461Y-94653888D01*
X180242982Y-94658000D01*
X180197536Y-94706396D01*
X180196357Y-94707651D01*
X180193602Y-94710493D01*
X180173865Y-94730230D01*
X180171385Y-94733427D01*
X180163682Y-94742447D01*
X180133414Y-94774679D01*
X180129595Y-94781625D01*
X180129593Y-94781628D01*
X180123652Y-94792434D01*
X180112801Y-94808953D01*
X180100386Y-94824959D01*
X180097241Y-94832228D01*
X180097238Y-94832232D01*
X180082826Y-94865537D01*
X180077609Y-94876187D01*
X180056305Y-94914940D01*
X180054334Y-94922615D01*
X180054334Y-94922616D01*
X180051267Y-94934562D01*
X180044863Y-94953266D01*
X180036819Y-94971855D01*
X180035579Y-94979684D01*
X180035578Y-94979687D01*
X180034475Y-94986648D01*
X180004061Y-95050800D01*
X179982298Y-95070146D01*
X179810211Y-95190643D01*
X179810208Y-95190645D01*
X179805700Y-95193802D01*
X179643802Y-95355700D01*
X179512477Y-95543251D01*
X179510154Y-95548233D01*
X179510151Y-95548238D01*
X179418039Y-95745775D01*
X179415716Y-95750757D01*
X179414294Y-95756065D01*
X179414293Y-95756067D01*
X179395412Y-95826531D01*
X179356457Y-95971913D01*
X179336502Y-96200000D01*
X179356457Y-96428087D01*
X179357881Y-96433400D01*
X179357881Y-96433402D01*
X179369751Y-96477699D01*
X179415716Y-96649243D01*
X179418039Y-96654224D01*
X179418039Y-96654225D01*
X179510151Y-96851762D01*
X179510154Y-96851767D01*
X179512477Y-96856749D01*
X179515634Y-96861257D01*
X179630831Y-97025775D01*
X179643802Y-97044300D01*
X179805700Y-97206198D01*
X179810208Y-97209355D01*
X179810211Y-97209357D01*
X179962771Y-97316181D01*
X180007099Y-97371638D01*
X180016500Y-97419394D01*
X180016500Y-97785406D01*
X179996498Y-97853527D01*
X179979595Y-97874501D01*
X178524500Y-99329595D01*
X178462188Y-99363621D01*
X178435405Y-99366500D01*
X165934594Y-99366500D01*
X165866473Y-99346498D01*
X165845499Y-99329595D01*
X164351218Y-97835313D01*
X164317192Y-97773001D01*
X164319755Y-97709589D01*
X164320212Y-97708087D01*
X164332370Y-97668069D01*
X164361529Y-97446590D01*
X164361851Y-97433398D01*
X164363074Y-97383365D01*
X164363074Y-97383361D01*
X164363156Y-97380000D01*
X164344852Y-97157361D01*
X164290431Y-96940702D01*
X164201354Y-96735840D01*
X164136571Y-96635700D01*
X164082822Y-96552617D01*
X164082820Y-96552614D01*
X164080014Y-96548277D01*
X163929670Y-96383051D01*
X163925619Y-96379852D01*
X163925615Y-96379848D01*
X163758414Y-96247800D01*
X163758410Y-96247798D01*
X163754359Y-96244598D01*
X163710215Y-96220229D01*
X163702136Y-96215769D01*
X163558789Y-96136638D01*
X163553920Y-96134914D01*
X163553916Y-96134912D01*
X163353087Y-96063795D01*
X163353083Y-96063794D01*
X163348212Y-96062069D01*
X163343119Y-96061162D01*
X163343116Y-96061161D01*
X163133373Y-96023800D01*
X163133367Y-96023799D01*
X163128284Y-96022894D01*
X163054452Y-96021992D01*
X162910081Y-96020228D01*
X162910079Y-96020228D01*
X162904911Y-96020165D01*
X162684091Y-96053955D01*
X162471756Y-96123357D01*
X162443126Y-96138261D01*
X162281712Y-96222288D01*
X162273607Y-96226507D01*
X162269474Y-96229610D01*
X162269471Y-96229612D01*
X162197699Y-96283500D01*
X162094965Y-96360635D01*
X161940629Y-96522138D01*
X161814743Y-96706680D01*
X161799003Y-96740590D01*
X161745084Y-96856749D01*
X161720688Y-96909305D01*
X161660989Y-97124570D01*
X161637251Y-97346695D01*
X160408500Y-97346695D01*
X160408500Y-84646695D01*
X161637251Y-84646695D01*
X161637548Y-84651848D01*
X161637548Y-84651851D01*
X161643011Y-84746590D01*
X161650110Y-84869715D01*
X161651247Y-84874761D01*
X161651248Y-84874767D01*
X161671119Y-84962939D01*
X161699222Y-85087639D01*
X161783266Y-85294616D01*
X161791724Y-85308418D01*
X161877429Y-85448276D01*
X161899987Y-85485088D01*
X162046250Y-85653938D01*
X162055066Y-85661257D01*
X162214054Y-85793251D01*
X162218126Y-85796632D01*
X162411000Y-85909338D01*
X162415825Y-85911180D01*
X162415826Y-85911181D01*
X162432937Y-85917715D01*
X162619692Y-85989030D01*
X162624760Y-85990061D01*
X162624763Y-85990062D01*
X162704075Y-86006198D01*
X162838597Y-86033567D01*
X162843772Y-86033757D01*
X162843774Y-86033757D01*
X163056673Y-86041564D01*
X163056677Y-86041564D01*
X163061837Y-86041753D01*
X163066957Y-86041097D01*
X163066959Y-86041097D01*
X163278288Y-86014025D01*
X163278289Y-86014025D01*
X163283416Y-86013368D01*
X163288367Y-86011883D01*
X163288370Y-86011882D01*
X163329829Y-85999444D01*
X163400825Y-85999028D01*
X163455131Y-86031035D01*
X164512656Y-87088560D01*
X164546682Y-87150872D01*
X164541617Y-87221687D01*
X164524387Y-87253220D01*
X164449385Y-87353295D01*
X164398255Y-87489684D01*
X164391500Y-87551866D01*
X164391500Y-89248134D01*
X164398255Y-89310316D01*
X164449385Y-89446705D01*
X164536739Y-89563261D01*
X164653295Y-89650615D01*
X164661703Y-89653767D01*
X164789684Y-89701745D01*
X164788954Y-89703691D01*
X164841205Y-89733545D01*
X164874021Y-89796503D01*
X164867591Y-89867207D01*
X164839502Y-89910000D01*
X164693802Y-90055700D01*
X164690645Y-90060208D01*
X164690643Y-90060211D01*
X164643220Y-90127939D01*
X164562477Y-90243251D01*
X164560154Y-90248233D01*
X164560151Y-90248238D01*
X164514186Y-90346811D01*
X164465716Y-90450757D01*
X164464294Y-90456065D01*
X164464293Y-90456067D01*
X164413484Y-90645689D01*
X164406457Y-90671913D01*
X164386502Y-90900000D01*
X164406457Y-91128087D01*
X164407881Y-91133400D01*
X164407881Y-91133402D01*
X164429576Y-91214366D01*
X164465716Y-91349243D01*
X164468039Y-91354224D01*
X164468039Y-91354225D01*
X164560151Y-91551762D01*
X164560154Y-91551767D01*
X164562477Y-91556749D01*
X164693802Y-91744300D01*
X164855700Y-91906198D01*
X164860208Y-91909355D01*
X164860211Y-91909357D01*
X165012771Y-92016181D01*
X165057099Y-92071638D01*
X165066500Y-92119394D01*
X165066500Y-92701233D01*
X165065973Y-92712416D01*
X165064298Y-92719909D01*
X165064547Y-92727835D01*
X165064547Y-92727836D01*
X165066438Y-92787986D01*
X165066500Y-92791945D01*
X165066500Y-92819856D01*
X165066997Y-92823790D01*
X165066997Y-92823791D01*
X165067005Y-92823856D01*
X165067938Y-92835693D01*
X165069327Y-92879889D01*
X165074978Y-92899339D01*
X165078987Y-92918700D01*
X165081526Y-92938797D01*
X165084445Y-92946168D01*
X165084445Y-92946170D01*
X165097804Y-92979912D01*
X165101649Y-92991142D01*
X165110094Y-93020210D01*
X165113982Y-93033593D01*
X165118015Y-93040412D01*
X165118017Y-93040417D01*
X165124293Y-93051028D01*
X165132988Y-93068776D01*
X165140448Y-93087617D01*
X165145110Y-93094033D01*
X165145110Y-93094034D01*
X165166436Y-93123387D01*
X165172952Y-93133307D01*
X165195458Y-93171362D01*
X165209779Y-93185683D01*
X165222619Y-93200716D01*
X165234528Y-93217107D01*
X165264629Y-93242009D01*
X165268605Y-93245298D01*
X165277384Y-93253288D01*
X169090848Y-97066752D01*
X169124874Y-97129064D01*
X169123459Y-97188459D01*
X169107882Y-97246591D01*
X169107881Y-97246598D01*
X169106457Y-97251913D01*
X169086502Y-97480000D01*
X169106457Y-97708087D01*
X169165716Y-97929243D01*
X169168039Y-97934224D01*
X169168039Y-97934225D01*
X169260151Y-98131762D01*
X169260154Y-98131767D01*
X169262477Y-98136749D01*
X169298161Y-98187711D01*
X169387597Y-98315438D01*
X169393802Y-98324300D01*
X169555700Y-98486198D01*
X169560208Y-98489355D01*
X169560211Y-98489357D01*
X169607650Y-98522574D01*
X169743251Y-98617523D01*
X169748233Y-98619846D01*
X169748238Y-98619849D01*
X169896599Y-98689030D01*
X169950757Y-98714284D01*
X169956065Y-98715706D01*
X169956067Y-98715707D01*
X170166598Y-98772119D01*
X170166600Y-98772119D01*
X170171913Y-98773543D01*
X170400000Y-98793498D01*
X170628087Y-98773543D01*
X170633400Y-98772119D01*
X170633402Y-98772119D01*
X170843933Y-98715707D01*
X170843935Y-98715706D01*
X170849243Y-98714284D01*
X170903401Y-98689030D01*
X171051762Y-98619849D01*
X171051767Y-98619846D01*
X171056749Y-98617523D01*
X171192350Y-98522574D01*
X171239789Y-98489357D01*
X171239792Y-98489355D01*
X171244300Y-98486198D01*
X171406198Y-98324300D01*
X171412404Y-98315438D01*
X171501839Y-98187711D01*
X171537523Y-98136749D01*
X171539846Y-98131767D01*
X171539849Y-98131762D01*
X171631961Y-97934225D01*
X171631961Y-97934224D01*
X171634284Y-97929243D01*
X171693543Y-97708087D01*
X171713498Y-97480000D01*
X171693543Y-97251913D01*
X171681294Y-97206198D01*
X171635707Y-97036067D01*
X171635706Y-97036065D01*
X171634284Y-97030757D01*
X171590077Y-96935954D01*
X171539849Y-96828238D01*
X171539846Y-96828233D01*
X171537523Y-96823251D01*
X171452903Y-96702401D01*
X171409357Y-96640211D01*
X171409355Y-96640208D01*
X171406198Y-96635700D01*
X171244300Y-96473802D01*
X171239792Y-96470645D01*
X171239789Y-96470643D01*
X171161611Y-96415902D01*
X171056749Y-96342477D01*
X171051767Y-96340154D01*
X171051762Y-96340151D01*
X170854225Y-96248039D01*
X170854224Y-96248039D01*
X170849243Y-96245716D01*
X170843935Y-96244294D01*
X170843933Y-96244293D01*
X170633402Y-96187881D01*
X170633400Y-96187881D01*
X170628087Y-96186457D01*
X170400000Y-96166502D01*
X170171913Y-96186457D01*
X170166602Y-96187880D01*
X170166591Y-96187882D01*
X170108459Y-96203459D01*
X170037483Y-96201770D01*
X169986752Y-96170848D01*
X169639038Y-95823134D01*
X172841500Y-95823134D01*
X172848255Y-95885316D01*
X172899385Y-96021705D01*
X172986739Y-96138261D01*
X173103295Y-96225615D01*
X173239684Y-96276745D01*
X173301866Y-96283500D01*
X175098134Y-96283500D01*
X175160316Y-96276745D01*
X175296705Y-96225615D01*
X175413261Y-96138261D01*
X175500615Y-96021705D01*
X175551745Y-95885316D01*
X175558500Y-95823134D01*
X175558500Y-94026866D01*
X175551745Y-93964684D01*
X175500615Y-93828295D01*
X175413261Y-93711739D01*
X175296705Y-93624385D01*
X175160316Y-93573255D01*
X175098134Y-93566500D01*
X173301866Y-93566500D01*
X173239684Y-93573255D01*
X173103295Y-93624385D01*
X172986739Y-93711739D01*
X172899385Y-93828295D01*
X172848255Y-93964684D01*
X172841500Y-94026866D01*
X172841500Y-95823134D01*
X169639038Y-95823134D01*
X166370405Y-92554500D01*
X166336379Y-92492188D01*
X166333500Y-92465405D01*
X166333500Y-92119394D01*
X166353502Y-92051273D01*
X166387229Y-92016181D01*
X166539789Y-91909357D01*
X166539792Y-91909355D01*
X166544300Y-91906198D01*
X166706198Y-91744300D01*
X166837523Y-91556749D01*
X166839846Y-91551767D01*
X166839849Y-91551762D01*
X166931961Y-91354225D01*
X166931961Y-91354224D01*
X166934284Y-91349243D01*
X166970425Y-91214366D01*
X166992119Y-91133402D01*
X166992119Y-91133400D01*
X166993543Y-91128087D01*
X167013498Y-90900000D01*
X166993543Y-90671913D01*
X166986516Y-90645689D01*
X166935707Y-90456067D01*
X166935706Y-90456065D01*
X166934284Y-90450757D01*
X166885814Y-90346811D01*
X166839849Y-90248238D01*
X166839846Y-90248233D01*
X166837523Y-90243251D01*
X166756780Y-90127939D01*
X166709357Y-90060211D01*
X166709355Y-90060208D01*
X166706198Y-90055700D01*
X166560498Y-89910000D01*
X166526472Y-89847688D01*
X166531537Y-89776873D01*
X166574084Y-89720037D01*
X166610737Y-89702868D01*
X166610316Y-89701745D01*
X166738297Y-89653767D01*
X166746705Y-89650615D01*
X166863261Y-89563261D01*
X166950615Y-89446705D01*
X167001745Y-89310316D01*
X167008500Y-89248134D01*
X167008500Y-87551866D01*
X167001745Y-87489684D01*
X166950615Y-87353295D01*
X166925662Y-87320000D01*
X169086502Y-87320000D01*
X169106457Y-87548087D01*
X169165716Y-87769243D01*
X169168039Y-87774224D01*
X169168039Y-87774225D01*
X169260151Y-87971762D01*
X169260154Y-87971767D01*
X169262477Y-87976749D01*
X169393802Y-88164300D01*
X169555700Y-88326198D01*
X169560208Y-88329355D01*
X169560211Y-88329357D01*
X169632236Y-88379789D01*
X169743251Y-88457523D01*
X169748233Y-88459846D01*
X169748238Y-88459849D01*
X169925059Y-88542301D01*
X169950757Y-88554284D01*
X169956065Y-88555706D01*
X169956067Y-88555707D01*
X170166598Y-88612119D01*
X170166600Y-88612119D01*
X170171913Y-88613543D01*
X170400000Y-88633498D01*
X170628087Y-88613543D01*
X170633400Y-88612119D01*
X170633402Y-88612119D01*
X170843933Y-88555707D01*
X170843935Y-88555706D01*
X170849243Y-88554284D01*
X170874941Y-88542301D01*
X171051762Y-88459849D01*
X171051767Y-88459846D01*
X171056749Y-88457523D01*
X171167764Y-88379789D01*
X171239789Y-88329357D01*
X171239792Y-88329355D01*
X171244300Y-88326198D01*
X171406198Y-88164300D01*
X171516181Y-88007229D01*
X171571638Y-87962901D01*
X171619394Y-87953500D01*
X172001233Y-87953500D01*
X172012416Y-87954027D01*
X172019909Y-87955702D01*
X172027835Y-87955453D01*
X172027836Y-87955453D01*
X172087986Y-87953562D01*
X172091945Y-87953500D01*
X172119856Y-87953500D01*
X172123791Y-87953003D01*
X172123856Y-87952995D01*
X172135693Y-87952062D01*
X172167951Y-87951048D01*
X172171970Y-87950922D01*
X172179889Y-87950673D01*
X172199343Y-87945021D01*
X172218700Y-87941013D01*
X172230930Y-87939468D01*
X172230931Y-87939468D01*
X172238797Y-87938474D01*
X172246168Y-87935555D01*
X172246170Y-87935555D01*
X172279912Y-87922196D01*
X172291142Y-87918351D01*
X172325983Y-87908229D01*
X172325984Y-87908229D01*
X172333593Y-87906018D01*
X172340412Y-87901985D01*
X172340417Y-87901983D01*
X172351028Y-87895707D01*
X172368776Y-87887012D01*
X172387617Y-87879552D01*
X172423387Y-87853564D01*
X172433307Y-87847048D01*
X172464535Y-87828580D01*
X172464538Y-87828578D01*
X172471362Y-87824542D01*
X172485683Y-87810221D01*
X172500717Y-87797380D01*
X172510694Y-87790131D01*
X172517107Y-87785472D01*
X172522158Y-87779367D01*
X172522163Y-87779362D01*
X172545299Y-87751396D01*
X172553287Y-87742618D01*
X173009221Y-87286684D01*
X173071533Y-87252658D01*
X173142348Y-87257723D01*
X173193463Y-87293817D01*
X173193802Y-87294300D01*
X173355700Y-87456198D01*
X173360208Y-87459355D01*
X173360211Y-87459357D01*
X173512771Y-87566181D01*
X173557099Y-87621638D01*
X173566500Y-87669394D01*
X173566500Y-88566692D01*
X173546498Y-88634813D01*
X173498683Y-88678453D01*
X173473607Y-88691507D01*
X173469474Y-88694610D01*
X173469471Y-88694612D01*
X173314458Y-88810999D01*
X173294965Y-88825635D01*
X173255701Y-88866722D01*
X173197813Y-88927299D01*
X173140629Y-88987138D01*
X173137715Y-88991410D01*
X173137714Y-88991411D01*
X173052556Y-89116249D01*
X173014743Y-89171680D01*
X172979299Y-89248037D01*
X172950391Y-89310316D01*
X172920688Y-89374305D01*
X172860989Y-89589570D01*
X172837251Y-89811695D01*
X172837548Y-89816848D01*
X172837548Y-89816851D01*
X172842919Y-89910000D01*
X172850110Y-90034715D01*
X172851247Y-90039761D01*
X172851248Y-90039767D01*
X172870750Y-90126301D01*
X172899222Y-90252639D01*
X172983266Y-90459616D01*
X173099987Y-90650088D01*
X173246250Y-90818938D01*
X173418126Y-90961632D01*
X173611000Y-91074338D01*
X173615825Y-91076180D01*
X173615826Y-91076181D01*
X173675371Y-91098919D01*
X173819692Y-91154030D01*
X173824760Y-91155061D01*
X173824763Y-91155062D01*
X173932017Y-91176883D01*
X174038597Y-91198567D01*
X174043772Y-91198757D01*
X174043774Y-91198757D01*
X174256673Y-91206564D01*
X174256677Y-91206564D01*
X174261837Y-91206753D01*
X174266957Y-91206097D01*
X174266959Y-91206097D01*
X174478288Y-91179025D01*
X174478289Y-91179025D01*
X174483416Y-91178368D01*
X174488366Y-91176883D01*
X174692429Y-91115661D01*
X174692434Y-91115659D01*
X174697384Y-91114174D01*
X174897994Y-91015896D01*
X175079860Y-90886173D01*
X175238096Y-90728489D01*
X175297594Y-90645689D01*
X175365435Y-90551277D01*
X175368453Y-90547077D01*
X175379892Y-90523933D01*
X175465136Y-90351453D01*
X175465137Y-90351451D01*
X175467430Y-90346811D01*
X175532370Y-90133069D01*
X175561529Y-89911590D01*
X175561964Y-89893802D01*
X175563074Y-89848365D01*
X175563074Y-89848361D01*
X175563156Y-89845000D01*
X175544852Y-89622361D01*
X175490431Y-89405702D01*
X175401354Y-89200840D01*
X175322909Y-89079582D01*
X175282822Y-89017617D01*
X175282820Y-89017614D01*
X175280014Y-89013277D01*
X175129670Y-88848051D01*
X175125619Y-88844852D01*
X175125615Y-88844848D01*
X174958414Y-88712800D01*
X174958410Y-88712798D01*
X174954359Y-88709598D01*
X174949835Y-88707101D01*
X174949831Y-88707098D01*
X174898608Y-88678822D01*
X174848636Y-88628390D01*
X174833500Y-88568513D01*
X174833500Y-87669394D01*
X174853502Y-87601273D01*
X174887229Y-87566181D01*
X175039789Y-87459357D01*
X175039792Y-87459355D01*
X175044300Y-87456198D01*
X175206198Y-87294300D01*
X175235356Y-87252658D01*
X175316181Y-87137229D01*
X175371638Y-87092901D01*
X175419394Y-87083500D01*
X176775406Y-87083500D01*
X176843527Y-87103502D01*
X176864501Y-87120405D01*
X176870848Y-87126752D01*
X176904874Y-87189064D01*
X176903459Y-87248459D01*
X176887882Y-87306591D01*
X176887881Y-87306598D01*
X176886457Y-87311913D01*
X176866502Y-87540000D01*
X176886457Y-87768087D01*
X176887880Y-87773398D01*
X176887881Y-87773402D01*
X176938658Y-87962901D01*
X176945716Y-87989243D01*
X176948039Y-87994224D01*
X176948039Y-87994225D01*
X177040151Y-88191762D01*
X177040154Y-88191767D01*
X177042477Y-88196749D01*
X177173802Y-88384300D01*
X177335700Y-88546198D01*
X177340208Y-88549355D01*
X177340211Y-88549357D01*
X177343930Y-88551961D01*
X177523251Y-88677523D01*
X177528233Y-88679846D01*
X177528238Y-88679849D01*
X177725775Y-88771961D01*
X177730757Y-88774284D01*
X177736065Y-88775706D01*
X177736067Y-88775707D01*
X177946598Y-88832119D01*
X177946600Y-88832119D01*
X177951913Y-88833543D01*
X178180000Y-88853498D01*
X178408087Y-88833543D01*
X178413400Y-88832119D01*
X178413402Y-88832119D01*
X178623933Y-88775707D01*
X178623935Y-88775706D01*
X178629243Y-88774284D01*
X178634225Y-88771961D01*
X178831762Y-88679849D01*
X178831767Y-88679846D01*
X178836749Y-88677523D01*
X179016070Y-88551961D01*
X179019789Y-88549357D01*
X179019792Y-88549355D01*
X179024300Y-88546198D01*
X179186198Y-88384300D01*
X179317523Y-88196749D01*
X179319846Y-88191767D01*
X179319849Y-88191762D01*
X179411961Y-87994225D01*
X179411961Y-87994224D01*
X179414284Y-87989243D01*
X179421343Y-87962901D01*
X179472119Y-87773402D01*
X179472120Y-87773398D01*
X179473543Y-87768087D01*
X179493498Y-87540000D01*
X179473543Y-87311913D01*
X179469868Y-87298197D01*
X179415707Y-87096067D01*
X179415706Y-87096065D01*
X179414284Y-87090757D01*
X179405716Y-87072383D01*
X179319849Y-86888238D01*
X179319846Y-86888233D01*
X179317523Y-86883251D01*
X179186198Y-86695700D01*
X179024300Y-86533802D01*
X179019792Y-86530645D01*
X179019789Y-86530643D01*
X178941322Y-86475700D01*
X178836749Y-86402477D01*
X178831767Y-86400154D01*
X178831762Y-86400151D01*
X178797543Y-86384195D01*
X178744258Y-86337278D01*
X178724797Y-86269001D01*
X178745339Y-86201041D01*
X178797543Y-86155805D01*
X178831762Y-86139849D01*
X178831767Y-86139846D01*
X178836749Y-86137523D01*
X178966450Y-86046705D01*
X179019789Y-86009357D01*
X179019792Y-86009355D01*
X179024300Y-86006198D01*
X179186198Y-85844300D01*
X179193100Y-85834444D01*
X179314366Y-85661257D01*
X179317523Y-85656749D01*
X179319846Y-85651767D01*
X179319849Y-85651762D01*
X179411961Y-85454225D01*
X179411961Y-85454224D01*
X179414284Y-85449243D01*
X179416589Y-85440643D01*
X179472119Y-85233402D01*
X179472119Y-85233400D01*
X179473543Y-85228087D01*
X179493498Y-85000000D01*
X179473543Y-84771913D01*
X179465860Y-84743240D01*
X179415707Y-84556067D01*
X179415706Y-84556065D01*
X179414284Y-84550757D01*
X179357838Y-84429707D01*
X179319849Y-84348238D01*
X179319846Y-84348233D01*
X179317523Y-84343251D01*
X179186198Y-84155700D01*
X179024300Y-83993802D01*
X179019791Y-83990645D01*
X179019783Y-83990638D01*
X179016611Y-83988417D01*
X178972285Y-83932958D01*
X178964980Y-83862338D01*
X178999792Y-83796113D01*
X179425500Y-83370405D01*
X179487812Y-83336379D01*
X179514595Y-83333500D01*
X188935406Y-83333500D01*
X189003527Y-83353502D01*
X189024501Y-83370405D01*
X189344371Y-83690275D01*
X189378397Y-83752587D01*
X189381276Y-83779370D01*
X189381276Y-84987910D01*
X189388031Y-85050092D01*
X189439161Y-85186481D01*
X189526515Y-85303037D01*
X189643071Y-85390391D01*
X189779460Y-85441521D01*
X189835336Y-85447591D01*
X189836331Y-85447699D01*
X189841642Y-85448276D01*
X191537910Y-85448276D01*
X191543222Y-85447699D01*
X191544216Y-85447591D01*
X191600092Y-85441521D01*
X191736481Y-85390391D01*
X191853037Y-85303037D01*
X191940391Y-85186481D01*
X191991521Y-85050092D01*
X191998276Y-84987910D01*
X191998276Y-83291642D01*
X191991521Y-83229460D01*
X191940391Y-83093071D01*
X191853037Y-82976515D01*
X191736481Y-82889161D01*
X191600092Y-82838031D01*
X191537910Y-82831276D01*
X190329371Y-82831276D01*
X190261250Y-82811274D01*
X190240276Y-82794371D01*
X189753652Y-82307747D01*
X189746112Y-82299461D01*
X189742000Y-82292982D01*
X189716034Y-82268598D01*
X189692349Y-82246357D01*
X189689507Y-82243602D01*
X189669770Y-82223865D01*
X189666573Y-82221385D01*
X189657551Y-82213680D01*
X189644122Y-82201069D01*
X189625321Y-82183414D01*
X189618375Y-82179595D01*
X189618372Y-82179593D01*
X189607566Y-82173652D01*
X189591047Y-82162801D01*
X189590583Y-82162441D01*
X189575041Y-82150386D01*
X189567772Y-82147241D01*
X189567768Y-82147238D01*
X189534463Y-82132826D01*
X189523813Y-82127609D01*
X189485060Y-82106305D01*
X189465437Y-82101267D01*
X189446734Y-82094863D01*
X189435420Y-82089967D01*
X189435419Y-82089967D01*
X189428145Y-82086819D01*
X189420322Y-82085580D01*
X189420312Y-82085577D01*
X189384476Y-82079901D01*
X189372856Y-82077495D01*
X189337711Y-82068472D01*
X189337710Y-82068472D01*
X189330030Y-82066500D01*
X189309776Y-82066500D01*
X189290065Y-82064949D01*
X189277886Y-82063020D01*
X189270057Y-82061780D01*
X189240786Y-82064547D01*
X189226039Y-82065941D01*
X189214181Y-82066500D01*
X179278767Y-82066500D01*
X179267584Y-82065973D01*
X179260091Y-82064298D01*
X179252165Y-82064547D01*
X179252164Y-82064547D01*
X179192001Y-82066438D01*
X179188043Y-82066500D01*
X179160144Y-82066500D01*
X179156154Y-82067004D01*
X179144320Y-82067936D01*
X179100111Y-82069326D01*
X179092497Y-82071538D01*
X179092492Y-82071539D01*
X179080659Y-82074977D01*
X179061296Y-82078988D01*
X179041203Y-82081526D01*
X179033836Y-82084443D01*
X179033831Y-82084444D01*
X179000092Y-82097802D01*
X178988865Y-82101646D01*
X178946407Y-82113982D01*
X178939581Y-82118019D01*
X178928972Y-82124293D01*
X178911224Y-82132988D01*
X178892383Y-82140448D01*
X178885967Y-82145110D01*
X178885966Y-82145110D01*
X178856613Y-82166436D01*
X178846693Y-82172952D01*
X178815465Y-82191420D01*
X178815462Y-82191422D01*
X178808638Y-82195458D01*
X178794317Y-82209779D01*
X178779284Y-82222619D01*
X178762893Y-82234528D01*
X178757843Y-82240632D01*
X178757838Y-82240637D01*
X178734707Y-82268598D01*
X178726717Y-82277379D01*
X177787742Y-83216353D01*
X177779463Y-83223887D01*
X177772982Y-83228000D01*
X177764234Y-83237316D01*
X177726357Y-83277651D01*
X177723602Y-83280493D01*
X177703865Y-83300230D01*
X177701385Y-83303427D01*
X177693682Y-83312447D01*
X177663414Y-83344679D01*
X177659595Y-83351625D01*
X177659593Y-83351628D01*
X177653652Y-83362434D01*
X177642801Y-83378953D01*
X177630386Y-83394959D01*
X177627241Y-83402228D01*
X177627238Y-83402232D01*
X177612826Y-83435537D01*
X177607609Y-83446187D01*
X177586305Y-83484940D01*
X177584334Y-83492615D01*
X177584334Y-83492616D01*
X177581267Y-83504562D01*
X177574863Y-83523266D01*
X177573461Y-83526507D01*
X177566819Y-83541855D01*
X177565580Y-83549678D01*
X177565577Y-83549688D01*
X177559901Y-83585524D01*
X177557495Y-83597144D01*
X177546500Y-83639970D01*
X177546500Y-83660224D01*
X177544949Y-83679934D01*
X177541780Y-83699943D01*
X177542526Y-83707835D01*
X177545941Y-83743961D01*
X177546500Y-83755819D01*
X177546500Y-83780606D01*
X177526498Y-83848727D01*
X177492771Y-83883819D01*
X177340211Y-83990643D01*
X177340208Y-83990645D01*
X177335700Y-83993802D01*
X177173802Y-84155700D01*
X177042477Y-84343251D01*
X177040154Y-84348233D01*
X177040151Y-84348238D01*
X177002162Y-84429707D01*
X176945716Y-84550757D01*
X176944294Y-84556065D01*
X176944293Y-84556067D01*
X176894140Y-84743240D01*
X176886457Y-84771913D01*
X176866502Y-85000000D01*
X176886457Y-85228087D01*
X176887881Y-85233400D01*
X176887881Y-85233402D01*
X176943412Y-85440643D01*
X176945716Y-85449243D01*
X177020777Y-85610211D01*
X177033385Y-85637250D01*
X177044046Y-85707442D01*
X177015066Y-85772254D01*
X176955646Y-85811111D01*
X176919190Y-85816500D01*
X175419394Y-85816500D01*
X175351273Y-85796498D01*
X175316181Y-85762771D01*
X175209357Y-85610211D01*
X175209355Y-85610208D01*
X175206198Y-85605700D01*
X175044300Y-85443802D01*
X175039792Y-85440645D01*
X175039789Y-85440643D01*
X174925197Y-85360405D01*
X174856749Y-85312477D01*
X174851767Y-85310154D01*
X174851762Y-85310151D01*
X174654225Y-85218039D01*
X174654224Y-85218039D01*
X174649243Y-85215716D01*
X174643935Y-85214294D01*
X174643933Y-85214293D01*
X174433402Y-85157881D01*
X174433400Y-85157881D01*
X174428087Y-85156457D01*
X174200000Y-85136502D01*
X173971913Y-85156457D01*
X173966600Y-85157881D01*
X173966598Y-85157881D01*
X173756067Y-85214293D01*
X173756065Y-85214294D01*
X173750757Y-85215716D01*
X173745776Y-85218039D01*
X173745775Y-85218039D01*
X173548238Y-85310151D01*
X173548233Y-85310154D01*
X173543251Y-85312477D01*
X173474803Y-85360405D01*
X173360211Y-85440643D01*
X173360208Y-85440645D01*
X173355700Y-85443802D01*
X173193802Y-85605700D01*
X173190645Y-85610208D01*
X173190643Y-85610211D01*
X173084777Y-85761403D01*
X173029320Y-85805731D01*
X172985523Y-85815070D01*
X172951559Y-85816138D01*
X172941999Y-85816438D01*
X172938043Y-85816500D01*
X172910144Y-85816500D01*
X172906154Y-85817004D01*
X172894320Y-85817936D01*
X172850111Y-85819326D01*
X172842497Y-85821538D01*
X172842492Y-85821539D01*
X172830659Y-85824977D01*
X172811296Y-85828988D01*
X172791203Y-85831526D01*
X172783836Y-85834443D01*
X172783831Y-85834444D01*
X172750092Y-85847802D01*
X172738865Y-85851646D01*
X172696407Y-85863982D01*
X172689581Y-85868019D01*
X172678972Y-85874293D01*
X172661224Y-85882988D01*
X172642383Y-85890448D01*
X172635967Y-85895110D01*
X172635966Y-85895110D01*
X172606613Y-85916436D01*
X172596693Y-85922952D01*
X172565465Y-85941420D01*
X172565462Y-85941422D01*
X172558638Y-85945458D01*
X172544317Y-85959779D01*
X172529284Y-85972619D01*
X172512893Y-85984528D01*
X172507842Y-85990633D01*
X172507837Y-85990638D01*
X172484701Y-86018604D01*
X172476713Y-86027382D01*
X171854500Y-86649595D01*
X171792188Y-86683621D01*
X171765405Y-86686500D01*
X171619394Y-86686500D01*
X171551273Y-86666498D01*
X171516181Y-86632771D01*
X171409357Y-86480211D01*
X171409355Y-86480208D01*
X171406198Y-86475700D01*
X171244300Y-86313802D01*
X171239792Y-86310645D01*
X171239789Y-86310643D01*
X171083261Y-86201041D01*
X171056749Y-86182477D01*
X171051767Y-86180154D01*
X171051762Y-86180151D01*
X170854225Y-86088039D01*
X170854224Y-86088039D01*
X170849243Y-86085716D01*
X170843935Y-86084294D01*
X170843933Y-86084293D01*
X170633402Y-86027881D01*
X170633400Y-86027881D01*
X170628087Y-86026457D01*
X170400000Y-86006502D01*
X170171913Y-86026457D01*
X170166600Y-86027881D01*
X170166598Y-86027881D01*
X169956067Y-86084293D01*
X169956065Y-86084294D01*
X169950757Y-86085716D01*
X169945776Y-86088039D01*
X169945775Y-86088039D01*
X169748238Y-86180151D01*
X169748233Y-86180154D01*
X169743251Y-86182477D01*
X169716739Y-86201041D01*
X169560211Y-86310643D01*
X169560208Y-86310645D01*
X169555700Y-86313802D01*
X169393802Y-86475700D01*
X169390645Y-86480208D01*
X169390643Y-86480211D01*
X169357539Y-86527489D01*
X169262477Y-86663251D01*
X169260154Y-86668233D01*
X169260151Y-86668238D01*
X169245242Y-86700211D01*
X169165716Y-86870757D01*
X169164294Y-86876065D01*
X169164293Y-86876067D01*
X169132301Y-86995463D01*
X169106457Y-87091913D01*
X169086502Y-87320000D01*
X166925662Y-87320000D01*
X166863261Y-87236739D01*
X166746705Y-87149385D01*
X166610316Y-87098255D01*
X166548134Y-87091500D01*
X166337641Y-87091500D01*
X166269520Y-87071498D01*
X166235693Y-87039544D01*
X166233550Y-87036594D01*
X166227047Y-87026692D01*
X166208578Y-86995463D01*
X166204542Y-86988638D01*
X166190221Y-86974317D01*
X166177380Y-86959283D01*
X166170131Y-86949306D01*
X166165472Y-86942893D01*
X166131395Y-86914702D01*
X166122616Y-86906712D01*
X164351218Y-85135313D01*
X164317192Y-85073001D01*
X164319755Y-85009589D01*
X164322669Y-85000000D01*
X164332370Y-84968069D01*
X164361529Y-84746590D01*
X164363156Y-84680000D01*
X164344852Y-84457361D01*
X164290431Y-84240702D01*
X164201354Y-84035840D01*
X164103007Y-83883819D01*
X164082822Y-83852617D01*
X164082820Y-83852614D01*
X164080014Y-83848277D01*
X163929670Y-83683051D01*
X163925619Y-83679852D01*
X163925615Y-83679848D01*
X163758414Y-83547800D01*
X163758410Y-83547798D01*
X163754359Y-83544598D01*
X163736212Y-83534580D01*
X163699231Y-83514166D01*
X163558789Y-83436638D01*
X163553920Y-83434914D01*
X163553916Y-83434912D01*
X163353087Y-83363795D01*
X163353083Y-83363794D01*
X163348212Y-83362069D01*
X163343119Y-83361162D01*
X163343116Y-83361161D01*
X163133373Y-83323800D01*
X163133367Y-83323799D01*
X163128284Y-83322894D01*
X163054452Y-83321992D01*
X162910081Y-83320228D01*
X162910079Y-83320228D01*
X162904911Y-83320165D01*
X162684091Y-83353955D01*
X162471756Y-83423357D01*
X162273607Y-83526507D01*
X162269474Y-83529610D01*
X162269471Y-83529612D01*
X162099100Y-83657530D01*
X162094965Y-83660635D01*
X161940629Y-83822138D01*
X161937715Y-83826410D01*
X161937714Y-83826411D01*
X161898553Y-83883819D01*
X161814743Y-84006680D01*
X161776214Y-84089684D01*
X161743477Y-84160211D01*
X161720688Y-84209305D01*
X161660989Y-84424570D01*
X161637251Y-84646695D01*
X160408500Y-84646695D01*
X160408500Y-79334500D01*
X160428502Y-79266379D01*
X160482158Y-79219886D01*
X160534500Y-79208500D01*
X197765500Y-79208500D01*
X197833621Y-79228502D01*
G37*
%TD.AperFunction*%
%TD*%
M02*
