%TF.GenerationSoftware,KiCad,Pcbnew,6.0.11-3.fc37*%
%TF.CreationDate,2023-05-27T19:12:09+01:00*%
%TF.ProjectId,tda2822 board,74646132-3832-4322-9062-6f6172642e6b,rev?*%
%TF.SameCoordinates,Original*%
%TF.FileFunction,Legend,Top*%
%TF.FilePolarity,Positive*%
%FSLAX46Y46*%
G04 Gerber Fmt 4.6, Leading zero omitted, Abs format (unit mm)*
G04 Created by KiCad (PCBNEW 6.0.11-3.fc37) date 2023-05-27 19:12:09*
%MOMM*%
%LPD*%
G01*
G04 APERTURE LIST*
%ADD10C,0.150000*%
%ADD11C,0.120000*%
G04 APERTURE END LIST*
D10*
%TO.C,C7*%
X180633333Y-98957142D02*
X180585714Y-99004761D01*
X180442857Y-99052380D01*
X180347619Y-99052380D01*
X180204761Y-99004761D01*
X180109523Y-98909523D01*
X180061904Y-98814285D01*
X180014285Y-98623809D01*
X180014285Y-98480952D01*
X180061904Y-98290476D01*
X180109523Y-98195238D01*
X180204761Y-98100000D01*
X180347619Y-98052380D01*
X180442857Y-98052380D01*
X180585714Y-98100000D01*
X180633333Y-98147619D01*
X180966666Y-98052380D02*
X181633333Y-98052380D01*
X181204761Y-99052380D01*
%TO.C,U1*%
X181238095Y-88652380D02*
X181238095Y-89461904D01*
X181285714Y-89557142D01*
X181333333Y-89604761D01*
X181428571Y-89652380D01*
X181619047Y-89652380D01*
X181714285Y-89604761D01*
X181761904Y-89557142D01*
X181809523Y-89461904D01*
X181809523Y-88652380D01*
X182809523Y-89652380D02*
X182238095Y-89652380D01*
X182523809Y-89652380D02*
X182523809Y-88652380D01*
X182428571Y-88795238D01*
X182333333Y-88890476D01*
X182238095Y-88938095D01*
%TO.C,J3*%
X195686666Y-94087380D02*
X195686666Y-94801666D01*
X195639047Y-94944523D01*
X195543809Y-95039761D01*
X195400952Y-95087380D01*
X195305714Y-95087380D01*
X196067619Y-94087380D02*
X196686666Y-94087380D01*
X196353333Y-94468333D01*
X196496190Y-94468333D01*
X196591428Y-94515952D01*
X196639047Y-94563571D01*
X196686666Y-94658809D01*
X196686666Y-94896904D01*
X196639047Y-94992142D01*
X196591428Y-95039761D01*
X196496190Y-95087380D01*
X196210476Y-95087380D01*
X196115238Y-95039761D01*
X196067619Y-94992142D01*
%TO.C,J2*%
X162666666Y-79262380D02*
X162666666Y-79976666D01*
X162619047Y-80119523D01*
X162523809Y-80214761D01*
X162380952Y-80262380D01*
X162285714Y-80262380D01*
X163095238Y-79357619D02*
X163142857Y-79310000D01*
X163238095Y-79262380D01*
X163476190Y-79262380D01*
X163571428Y-79310000D01*
X163619047Y-79357619D01*
X163666666Y-79452857D01*
X163666666Y-79548095D01*
X163619047Y-79690952D01*
X163047619Y-80262380D01*
X163666666Y-80262380D01*
%TO.C,J1*%
X162666666Y-91962380D02*
X162666666Y-92676666D01*
X162619047Y-92819523D01*
X162523809Y-92914761D01*
X162380952Y-92962380D01*
X162285714Y-92962380D01*
X163666666Y-92962380D02*
X163095238Y-92962380D01*
X163380952Y-92962380D02*
X163380952Y-91962380D01*
X163285714Y-92105238D01*
X163190476Y-92200476D01*
X163095238Y-92248095D01*
%TO.C,RV1*%
X173604761Y-97707380D02*
X173271428Y-97231190D01*
X173033333Y-97707380D02*
X173033333Y-96707380D01*
X173414285Y-96707380D01*
X173509523Y-96755000D01*
X173557142Y-96802619D01*
X173604761Y-96897857D01*
X173604761Y-97040714D01*
X173557142Y-97135952D01*
X173509523Y-97183571D01*
X173414285Y-97231190D01*
X173033333Y-97231190D01*
X173890476Y-96707380D02*
X174223809Y-97707380D01*
X174557142Y-96707380D01*
X175414285Y-97707380D02*
X174842857Y-97707380D01*
X175128571Y-97707380D02*
X175128571Y-96707380D01*
X175033333Y-96850238D01*
X174938095Y-96945476D01*
X174842857Y-96993095D01*
%TO.C,R2*%
X190633333Y-97852380D02*
X190300000Y-97376190D01*
X190061904Y-97852380D02*
X190061904Y-96852380D01*
X190442857Y-96852380D01*
X190538095Y-96900000D01*
X190585714Y-96947619D01*
X190633333Y-97042857D01*
X190633333Y-97185714D01*
X190585714Y-97280952D01*
X190538095Y-97328571D01*
X190442857Y-97376190D01*
X190061904Y-97376190D01*
X191014285Y-96947619D02*
X191061904Y-96900000D01*
X191157142Y-96852380D01*
X191395238Y-96852380D01*
X191490476Y-96900000D01*
X191538095Y-96947619D01*
X191585714Y-97042857D01*
X191585714Y-97138095D01*
X191538095Y-97280952D01*
X190966666Y-97852380D01*
X191585714Y-97852380D01*
%TO.C,R1*%
X167833333Y-92852380D02*
X167500000Y-92376190D01*
X167261904Y-92852380D02*
X167261904Y-91852380D01*
X167642857Y-91852380D01*
X167738095Y-91900000D01*
X167785714Y-91947619D01*
X167833333Y-92042857D01*
X167833333Y-92185714D01*
X167785714Y-92280952D01*
X167738095Y-92328571D01*
X167642857Y-92376190D01*
X167261904Y-92376190D01*
X168785714Y-92852380D02*
X168214285Y-92852380D01*
X168500000Y-92852380D02*
X168500000Y-91852380D01*
X168404761Y-91995238D01*
X168309523Y-92090476D01*
X168214285Y-92138095D01*
%TO.C,C6*%
X182833333Y-98957142D02*
X182785714Y-99004761D01*
X182642857Y-99052380D01*
X182547619Y-99052380D01*
X182404761Y-99004761D01*
X182309523Y-98909523D01*
X182261904Y-98814285D01*
X182214285Y-98623809D01*
X182214285Y-98480952D01*
X182261904Y-98290476D01*
X182309523Y-98195238D01*
X182404761Y-98100000D01*
X182547619Y-98052380D01*
X182642857Y-98052380D01*
X182785714Y-98100000D01*
X182833333Y-98147619D01*
X183690476Y-98052380D02*
X183500000Y-98052380D01*
X183404761Y-98100000D01*
X183357142Y-98147619D01*
X183261904Y-98290476D01*
X183214285Y-98480952D01*
X183214285Y-98861904D01*
X183261904Y-98957142D01*
X183309523Y-99004761D01*
X183404761Y-99052380D01*
X183595238Y-99052380D01*
X183690476Y-99004761D01*
X183738095Y-98957142D01*
X183785714Y-98861904D01*
X183785714Y-98623809D01*
X183738095Y-98528571D01*
X183690476Y-98480952D01*
X183595238Y-98433333D01*
X183404761Y-98433333D01*
X183309523Y-98480952D01*
X183261904Y-98528571D01*
X183214285Y-98623809D01*
%TO.C,C5*%
X193033333Y-95357142D02*
X192985714Y-95404761D01*
X192842857Y-95452380D01*
X192747619Y-95452380D01*
X192604761Y-95404761D01*
X192509523Y-95309523D01*
X192461904Y-95214285D01*
X192414285Y-95023809D01*
X192414285Y-94880952D01*
X192461904Y-94690476D01*
X192509523Y-94595238D01*
X192604761Y-94500000D01*
X192747619Y-94452380D01*
X192842857Y-94452380D01*
X192985714Y-94500000D01*
X193033333Y-94547619D01*
X193938095Y-94452380D02*
X193461904Y-94452380D01*
X193414285Y-94928571D01*
X193461904Y-94880952D01*
X193557142Y-94833333D01*
X193795238Y-94833333D01*
X193890476Y-94880952D01*
X193938095Y-94928571D01*
X193985714Y-95023809D01*
X193985714Y-95261904D01*
X193938095Y-95357142D01*
X193890476Y-95404761D01*
X193795238Y-95452380D01*
X193557142Y-95452380D01*
X193461904Y-95404761D01*
X193414285Y-95357142D01*
%TO.C,C4*%
X187233333Y-88646918D02*
X187185714Y-88694537D01*
X187042857Y-88742156D01*
X186947619Y-88742156D01*
X186804761Y-88694537D01*
X186709523Y-88599299D01*
X186661904Y-88504061D01*
X186614285Y-88313585D01*
X186614285Y-88170728D01*
X186661904Y-87980252D01*
X186709523Y-87885014D01*
X186804761Y-87789776D01*
X186947619Y-87742156D01*
X187042857Y-87742156D01*
X187185714Y-87789776D01*
X187233333Y-87837395D01*
X188090476Y-88075490D02*
X188090476Y-88742156D01*
X187852380Y-87694537D02*
X187614285Y-88408823D01*
X188233333Y-88408823D01*
%TO.C,C3*%
X174033333Y-82557142D02*
X173985714Y-82604761D01*
X173842857Y-82652380D01*
X173747619Y-82652380D01*
X173604761Y-82604761D01*
X173509523Y-82509523D01*
X173461904Y-82414285D01*
X173414285Y-82223809D01*
X173414285Y-82080952D01*
X173461904Y-81890476D01*
X173509523Y-81795238D01*
X173604761Y-81700000D01*
X173747619Y-81652380D01*
X173842857Y-81652380D01*
X173985714Y-81700000D01*
X174033333Y-81747619D01*
X174366666Y-81652380D02*
X174985714Y-81652380D01*
X174652380Y-82033333D01*
X174795238Y-82033333D01*
X174890476Y-82080952D01*
X174938095Y-82128571D01*
X174985714Y-82223809D01*
X174985714Y-82461904D01*
X174938095Y-82557142D01*
X174890476Y-82604761D01*
X174795238Y-82652380D01*
X174509523Y-82652380D01*
X174414285Y-82604761D01*
X174366666Y-82557142D01*
%TO.C,C2*%
X166433333Y-80757142D02*
X166385714Y-80804761D01*
X166242857Y-80852380D01*
X166147619Y-80852380D01*
X166004761Y-80804761D01*
X165909523Y-80709523D01*
X165861904Y-80614285D01*
X165814285Y-80423809D01*
X165814285Y-80280952D01*
X165861904Y-80090476D01*
X165909523Y-79995238D01*
X166004761Y-79900000D01*
X166147619Y-79852380D01*
X166242857Y-79852380D01*
X166385714Y-79900000D01*
X166433333Y-79947619D01*
X166814285Y-79947619D02*
X166861904Y-79900000D01*
X166957142Y-79852380D01*
X167195238Y-79852380D01*
X167290476Y-79900000D01*
X167338095Y-79947619D01*
X167385714Y-80042857D01*
X167385714Y-80138095D01*
X167338095Y-80280952D01*
X166766666Y-80852380D01*
X167385714Y-80852380D01*
%TO.C,C1*%
X167633333Y-102446918D02*
X167585714Y-102494537D01*
X167442857Y-102542156D01*
X167347619Y-102542156D01*
X167204761Y-102494537D01*
X167109523Y-102399299D01*
X167061904Y-102304061D01*
X167014285Y-102113585D01*
X167014285Y-101970728D01*
X167061904Y-101780252D01*
X167109523Y-101685014D01*
X167204761Y-101589776D01*
X167347619Y-101542156D01*
X167442857Y-101542156D01*
X167585714Y-101589776D01*
X167633333Y-101637395D01*
X168585714Y-102542156D02*
X168014285Y-102542156D01*
X168300000Y-102542156D02*
X168300000Y-101542156D01*
X168204761Y-101685014D01*
X168109523Y-101780252D01*
X168014285Y-101827871D01*
D11*
%TO.C,C7*%
X181520000Y-97570000D02*
X181520000Y-96865000D01*
X181520000Y-94830000D02*
X177280000Y-94830000D01*
X181520000Y-97570000D02*
X177280000Y-97570000D01*
X177280000Y-95535000D02*
X177280000Y-94830000D01*
X181520000Y-95535000D02*
X181520000Y-94830000D01*
X177280000Y-97570000D02*
X177280000Y-96865000D01*
%TO.C,U1*%
X179340000Y-94330000D02*
X180990000Y-94330000D01*
X184640000Y-94330000D02*
X184640000Y-84050000D01*
X179340000Y-84050000D02*
X179340000Y-94330000D01*
X182990000Y-94330000D02*
X184640000Y-94330000D01*
X184640000Y-84050000D02*
X179340000Y-84050000D01*
X182990000Y-94330000D02*
G75*
G03*
X180990000Y-94330000I-1000000J0D01*
G01*
%TO.C,J3*%
X197350000Y-92305000D02*
X197350000Y-93635000D01*
X197350000Y-88435000D02*
X194690000Y-88435000D01*
X197350000Y-91035000D02*
X197350000Y-88435000D01*
X197350000Y-91035000D02*
X194690000Y-91035000D01*
X197350000Y-93635000D02*
X196020000Y-93635000D01*
X194690000Y-91035000D02*
X194690000Y-88435000D01*
%TO.C,J2*%
X164330000Y-83410000D02*
X164330000Y-86010000D01*
X161670000Y-80810000D02*
X163000000Y-80810000D01*
X161670000Y-83410000D02*
X164330000Y-83410000D01*
X161670000Y-83410000D02*
X161670000Y-86010000D01*
X161670000Y-86010000D02*
X164330000Y-86010000D01*
X161670000Y-82140000D02*
X161670000Y-80810000D01*
%TO.C,J1*%
X161670000Y-94840000D02*
X161670000Y-93510000D01*
X161670000Y-98710000D02*
X164330000Y-98710000D01*
X161670000Y-96110000D02*
X161670000Y-98710000D01*
X161670000Y-96110000D02*
X164330000Y-96110000D01*
X161670000Y-93510000D02*
X163000000Y-93510000D01*
X164330000Y-96110000D02*
X164330000Y-98710000D01*
%TO.C,RV1*%
X175530000Y-88515000D02*
X172870000Y-88515000D01*
X175530000Y-93655000D02*
X175530000Y-88515000D01*
X175530000Y-94925000D02*
X175530000Y-96255000D01*
X172870000Y-93655000D02*
X172870000Y-88515000D01*
X175530000Y-96255000D02*
X174200000Y-96255000D01*
X175530000Y-93655000D02*
X172870000Y-93655000D01*
%TO.C,R2*%
X194070000Y-98230000D02*
X187530000Y-98230000D01*
X187530000Y-100970000D02*
X194070000Y-100970000D01*
X194070000Y-100970000D02*
X194070000Y-98230000D01*
X187530000Y-98230000D02*
X187530000Y-100970000D01*
X186760000Y-99600000D02*
X187530000Y-99600000D01*
X194840000Y-99600000D02*
X194070000Y-99600000D01*
%TO.C,R1*%
X170400000Y-96440000D02*
X170400000Y-95670000D01*
X170400000Y-88360000D02*
X170400000Y-89130000D01*
X171770000Y-89130000D02*
X169030000Y-89130000D01*
X169030000Y-95670000D02*
X171770000Y-95670000D01*
X169030000Y-89130000D02*
X169030000Y-95670000D01*
X171770000Y-95670000D02*
X171770000Y-89130000D01*
%TO.C,C6*%
X182330000Y-94830000D02*
X182330000Y-95535000D01*
X182330000Y-97570000D02*
X186570000Y-97570000D01*
X182330000Y-94830000D02*
X186570000Y-94830000D01*
X186570000Y-96865000D02*
X186570000Y-97570000D01*
X182330000Y-96865000D02*
X182330000Y-97570000D01*
X186570000Y-94830000D02*
X186570000Y-95535000D01*
%TO.C,C5*%
X189560000Y-93305435D02*
X188252000Y-93305435D01*
X192299000Y-94185435D02*
X191640000Y-94185435D01*
X191919000Y-94465435D02*
X191640000Y-94465435D01*
X191983000Y-94425435D02*
X191640000Y-94425435D01*
X189560000Y-92704435D02*
X188064000Y-92704435D01*
X192847000Y-93505435D02*
X191640000Y-93505435D01*
X193180000Y-92224435D02*
X188020000Y-92224435D01*
X189560000Y-93385435D02*
X188290000Y-93385435D01*
X189560000Y-94065435D02*
X188774000Y-94065435D01*
X189560000Y-93665435D02*
X188451000Y-93665435D01*
X189560000Y-92945435D02*
X188120000Y-92945435D01*
X189560000Y-93705435D02*
X188478000Y-93705435D01*
X192043000Y-94385435D02*
X191640000Y-94385435D01*
X193179000Y-92304435D02*
X188021000Y-92304435D01*
X192635000Y-93825435D02*
X191640000Y-93825435D01*
X191118000Y-94785435D02*
X190082000Y-94785435D01*
X193055000Y-93025435D02*
X191640000Y-93025435D01*
X192824000Y-93545435D02*
X191640000Y-93545435D01*
X189560000Y-93345435D02*
X188271000Y-93345435D01*
X189560000Y-94145435D02*
X188857000Y-94145435D01*
X189560000Y-93865435D02*
X188596000Y-93865435D01*
X189560000Y-94465435D02*
X189281000Y-94465435D01*
X189560000Y-94505435D02*
X189349000Y-94505435D01*
X189560000Y-94025435D02*
X188736000Y-94025435D01*
X189560000Y-92784435D02*
X188080000Y-92784435D01*
X193136000Y-92704435D02*
X191640000Y-92704435D01*
X193080000Y-92945435D02*
X191640000Y-92945435D01*
X193014000Y-93145435D02*
X191640000Y-93145435D01*
X189560000Y-92904435D02*
X188109000Y-92904435D01*
X191277000Y-94745435D02*
X189923000Y-94745435D01*
X192775000Y-93625435D02*
X191640000Y-93625435D01*
X189560000Y-92985435D02*
X188132000Y-92985435D01*
X192385000Y-94105435D02*
X191640000Y-94105435D01*
X189560000Y-94385435D02*
X189157000Y-94385435D01*
X192537000Y-93945435D02*
X191640000Y-93945435D01*
X192749000Y-93665435D02*
X191640000Y-93665435D01*
X192929000Y-93345435D02*
X191640000Y-93345435D01*
X189560000Y-92584435D02*
X188044000Y-92584435D01*
X189560000Y-94425435D02*
X189217000Y-94425435D01*
X193111000Y-92824435D02*
X191640000Y-92824435D01*
X191698000Y-94585435D02*
X189502000Y-94585435D01*
X192343000Y-94145435D02*
X191640000Y-94145435D01*
X189560000Y-92464435D02*
X188031000Y-92464435D01*
X189560000Y-92744435D02*
X188072000Y-92744435D01*
X193143000Y-92664435D02*
X191640000Y-92664435D01*
X193176000Y-92384435D02*
X188024000Y-92384435D01*
X192695000Y-93745435D02*
X191640000Y-93745435D01*
X189560000Y-93465435D02*
X188332000Y-93465435D01*
X192982000Y-93225435D02*
X191640000Y-93225435D01*
X189560000Y-92864435D02*
X188099000Y-92864435D01*
X193128000Y-92744435D02*
X191640000Y-92744435D01*
X193180000Y-92264435D02*
X188020000Y-92264435D01*
X192965000Y-93265435D02*
X191640000Y-93265435D01*
X189560000Y-94225435D02*
X188947000Y-94225435D01*
X193101000Y-92864435D02*
X191640000Y-92864435D01*
X193161000Y-92544435D02*
X191640000Y-92544435D01*
X192800000Y-93585435D02*
X191640000Y-93585435D01*
X189560000Y-93825435D02*
X188565000Y-93825435D01*
X192426000Y-94065435D02*
X191640000Y-94065435D01*
X189560000Y-92624435D02*
X188050000Y-92624435D01*
X193042000Y-93065435D02*
X191640000Y-93065435D01*
X193120000Y-92784435D02*
X191640000Y-92784435D01*
X193150000Y-92624435D02*
X191640000Y-92624435D01*
X189560000Y-93625435D02*
X188425000Y-93625435D01*
X189560000Y-93185435D02*
X188202000Y-93185435D01*
X193178000Y-92344435D02*
X188022000Y-92344435D01*
X193173000Y-92424435D02*
X188027000Y-92424435D01*
X193169000Y-92464435D02*
X191640000Y-92464435D01*
X189560000Y-92824435D02*
X188089000Y-92824435D01*
X189560000Y-94105435D02*
X188815000Y-94105435D01*
X192890000Y-93425435D02*
X191640000Y-93425435D01*
X192665000Y-93785435D02*
X191640000Y-93785435D01*
X189560000Y-93265435D02*
X188235000Y-93265435D01*
X192253000Y-94225435D02*
X191640000Y-94225435D01*
X193156000Y-92584435D02*
X191640000Y-92584435D01*
X189560000Y-93945435D02*
X188663000Y-93945435D01*
X189560000Y-93065435D02*
X188158000Y-93065435D01*
X189560000Y-93785435D02*
X188535000Y-93785435D01*
X189560000Y-93505435D02*
X188353000Y-93505435D01*
X189560000Y-93985435D02*
X188699000Y-93985435D01*
X189560000Y-93025435D02*
X188145000Y-93025435D01*
X189560000Y-93545435D02*
X188376000Y-93545435D01*
X192998000Y-93185435D02*
X191640000Y-93185435D01*
X192075000Y-89419660D02*
X192075000Y-89919660D01*
X189560000Y-94265435D02*
X188995000Y-94265435D01*
X191405000Y-94705435D02*
X189795000Y-94705435D01*
X191851000Y-94505435D02*
X191640000Y-94505435D01*
X189560000Y-93105435D02*
X188172000Y-93105435D01*
X189560000Y-92504435D02*
X188035000Y-92504435D01*
X190884000Y-94825435D02*
X190316000Y-94825435D01*
X193028000Y-93105435D02*
X191640000Y-93105435D01*
X191611000Y-94625435D02*
X189589000Y-94625435D01*
X189560000Y-93225435D02*
X188218000Y-93225435D01*
X192604000Y-93865435D02*
X191640000Y-93865435D01*
X192100000Y-94345435D02*
X191640000Y-94345435D01*
X191778000Y-94545435D02*
X189422000Y-94545435D01*
X192722000Y-93705435D02*
X191640000Y-93705435D01*
X189560000Y-93585435D02*
X188400000Y-93585435D01*
X189560000Y-93145435D02*
X188186000Y-93145435D01*
X192325000Y-89669660D02*
X191825000Y-89669660D01*
X192948000Y-93305435D02*
X191640000Y-93305435D01*
X192571000Y-93905435D02*
X191640000Y-93905435D01*
X193091000Y-92904435D02*
X191640000Y-92904435D01*
X189560000Y-93745435D02*
X188505000Y-93745435D01*
X189560000Y-92544435D02*
X188039000Y-92544435D01*
X189560000Y-93425435D02*
X188310000Y-93425435D01*
X192868000Y-93465435D02*
X191640000Y-93465435D01*
X192154000Y-94305435D02*
X191640000Y-94305435D01*
X192910000Y-93385435D02*
X191640000Y-93385435D01*
X189560000Y-94305435D02*
X189046000Y-94305435D01*
X191515000Y-94665435D02*
X189685000Y-94665435D01*
X189560000Y-93905435D02*
X188629000Y-93905435D01*
X193165000Y-92504435D02*
X191640000Y-92504435D01*
X189560000Y-94345435D02*
X189100000Y-94345435D01*
X192501000Y-93985435D02*
X191640000Y-93985435D01*
X189560000Y-92664435D02*
X188057000Y-92664435D01*
X192205000Y-94265435D02*
X191640000Y-94265435D01*
X193068000Y-92985435D02*
X191640000Y-92985435D01*
X189560000Y-94185435D02*
X188901000Y-94185435D01*
X192464000Y-94025435D02*
X191640000Y-94025435D01*
X193220000Y-92224435D02*
G75*
G03*
X193220000Y-92224435I-2620000J0D01*
G01*
%TO.C,C4*%
X191640000Y-85429224D02*
X192948000Y-85429224D01*
X188901000Y-84549224D02*
X189560000Y-84549224D01*
X189281000Y-84269224D02*
X189560000Y-84269224D01*
X189217000Y-84309224D02*
X189560000Y-84309224D01*
X191640000Y-86030224D02*
X193136000Y-86030224D01*
X188353000Y-85229224D02*
X189560000Y-85229224D01*
X188020000Y-86510224D02*
X193180000Y-86510224D01*
X191640000Y-85349224D02*
X192910000Y-85349224D01*
X191640000Y-84669224D02*
X192426000Y-84669224D01*
X191640000Y-85069224D02*
X192749000Y-85069224D01*
X191640000Y-85789224D02*
X193080000Y-85789224D01*
X191640000Y-85029224D02*
X192722000Y-85029224D01*
X189157000Y-84349224D02*
X189560000Y-84349224D01*
X188021000Y-86430224D02*
X193179000Y-86430224D01*
X188565000Y-84909224D02*
X189560000Y-84909224D01*
X190082000Y-83949224D02*
X191118000Y-83949224D01*
X188145000Y-85709224D02*
X189560000Y-85709224D01*
X188376000Y-85189224D02*
X189560000Y-85189224D01*
X191640000Y-85389224D02*
X192929000Y-85389224D01*
X191640000Y-84589224D02*
X192343000Y-84589224D01*
X191640000Y-84869224D02*
X192604000Y-84869224D01*
X191640000Y-84269224D02*
X191919000Y-84269224D01*
X191640000Y-84229224D02*
X191851000Y-84229224D01*
X191640000Y-84709224D02*
X192464000Y-84709224D01*
X191640000Y-85950224D02*
X193120000Y-85950224D01*
X188064000Y-86030224D02*
X189560000Y-86030224D01*
X188120000Y-85789224D02*
X189560000Y-85789224D01*
X188186000Y-85589224D02*
X189560000Y-85589224D01*
X191640000Y-85830224D02*
X193091000Y-85830224D01*
X189923000Y-83989224D02*
X191277000Y-83989224D01*
X188425000Y-85109224D02*
X189560000Y-85109224D01*
X191640000Y-85749224D02*
X193068000Y-85749224D01*
X188815000Y-84629224D02*
X189560000Y-84629224D01*
X191640000Y-84349224D02*
X192043000Y-84349224D01*
X188663000Y-84789224D02*
X189560000Y-84789224D01*
X188451000Y-85069224D02*
X189560000Y-85069224D01*
X188271000Y-85389224D02*
X189560000Y-85389224D01*
X191640000Y-86150224D02*
X193156000Y-86150224D01*
X191640000Y-84309224D02*
X191983000Y-84309224D01*
X188089000Y-85910224D02*
X189560000Y-85910224D01*
X189502000Y-84149224D02*
X191698000Y-84149224D01*
X188857000Y-84589224D02*
X189560000Y-84589224D01*
X191640000Y-86270224D02*
X193169000Y-86270224D01*
X191640000Y-85990224D02*
X193128000Y-85990224D01*
X188057000Y-86070224D02*
X189560000Y-86070224D01*
X188024000Y-86350224D02*
X193176000Y-86350224D01*
X188505000Y-84989224D02*
X189560000Y-84989224D01*
X191640000Y-85269224D02*
X192868000Y-85269224D01*
X188218000Y-85509224D02*
X189560000Y-85509224D01*
X191640000Y-85870224D02*
X193101000Y-85870224D01*
X188072000Y-85990224D02*
X189560000Y-85990224D01*
X188020000Y-86470224D02*
X193180000Y-86470224D01*
X188235000Y-85469224D02*
X189560000Y-85469224D01*
X191640000Y-84509224D02*
X192253000Y-84509224D01*
X188099000Y-85870224D02*
X189560000Y-85870224D01*
X188039000Y-86190224D02*
X189560000Y-86190224D01*
X188400000Y-85149224D02*
X189560000Y-85149224D01*
X191640000Y-84909224D02*
X192635000Y-84909224D01*
X188774000Y-84669224D02*
X189560000Y-84669224D01*
X191640000Y-86110224D02*
X193150000Y-86110224D01*
X188158000Y-85669224D02*
X189560000Y-85669224D01*
X188080000Y-85950224D02*
X189560000Y-85950224D01*
X188050000Y-86110224D02*
X189560000Y-86110224D01*
X191640000Y-85109224D02*
X192775000Y-85109224D01*
X191640000Y-85549224D02*
X192998000Y-85549224D01*
X188022000Y-86390224D02*
X193178000Y-86390224D01*
X188027000Y-86310224D02*
X193173000Y-86310224D01*
X188031000Y-86270224D02*
X189560000Y-86270224D01*
X191640000Y-85910224D02*
X193111000Y-85910224D01*
X191640000Y-84629224D02*
X192385000Y-84629224D01*
X188310000Y-85309224D02*
X189560000Y-85309224D01*
X188535000Y-84949224D02*
X189560000Y-84949224D01*
X191640000Y-85469224D02*
X192965000Y-85469224D01*
X188947000Y-84509224D02*
X189560000Y-84509224D01*
X188044000Y-86150224D02*
X189560000Y-86150224D01*
X191640000Y-84789224D02*
X192537000Y-84789224D01*
X191640000Y-85669224D02*
X193042000Y-85669224D01*
X191640000Y-84949224D02*
X192665000Y-84949224D01*
X191640000Y-85229224D02*
X192847000Y-85229224D01*
X191640000Y-84749224D02*
X192501000Y-84749224D01*
X191640000Y-85709224D02*
X193055000Y-85709224D01*
X191640000Y-85189224D02*
X192824000Y-85189224D01*
X188202000Y-85549224D02*
X189560000Y-85549224D01*
X189125000Y-89314999D02*
X189125000Y-88814999D01*
X191640000Y-84469224D02*
X192205000Y-84469224D01*
X189795000Y-84029224D02*
X191405000Y-84029224D01*
X189349000Y-84229224D02*
X189560000Y-84229224D01*
X191640000Y-85629224D02*
X193028000Y-85629224D01*
X191640000Y-86230224D02*
X193165000Y-86230224D01*
X190316000Y-83909224D02*
X190884000Y-83909224D01*
X188172000Y-85629224D02*
X189560000Y-85629224D01*
X189589000Y-84109224D02*
X191611000Y-84109224D01*
X191640000Y-85509224D02*
X192982000Y-85509224D01*
X188596000Y-84869224D02*
X189560000Y-84869224D01*
X189100000Y-84389224D02*
X189560000Y-84389224D01*
X189422000Y-84189224D02*
X191778000Y-84189224D01*
X188478000Y-85029224D02*
X189560000Y-85029224D01*
X191640000Y-85149224D02*
X192800000Y-85149224D01*
X191640000Y-85589224D02*
X193014000Y-85589224D01*
X188875000Y-89064999D02*
X189375000Y-89064999D01*
X188252000Y-85429224D02*
X189560000Y-85429224D01*
X188629000Y-84829224D02*
X189560000Y-84829224D01*
X188109000Y-85830224D02*
X189560000Y-85830224D01*
X191640000Y-84989224D02*
X192695000Y-84989224D01*
X191640000Y-86190224D02*
X193161000Y-86190224D01*
X191640000Y-85309224D02*
X192890000Y-85309224D01*
X188332000Y-85269224D02*
X189560000Y-85269224D01*
X189046000Y-84429224D02*
X189560000Y-84429224D01*
X188290000Y-85349224D02*
X189560000Y-85349224D01*
X191640000Y-84429224D02*
X192154000Y-84429224D01*
X189685000Y-84069224D02*
X191515000Y-84069224D01*
X191640000Y-84829224D02*
X192571000Y-84829224D01*
X188035000Y-86230224D02*
X189560000Y-86230224D01*
X191640000Y-84389224D02*
X192100000Y-84389224D01*
X188699000Y-84749224D02*
X189560000Y-84749224D01*
X191640000Y-86070224D02*
X193143000Y-86070224D01*
X188995000Y-84469224D02*
X189560000Y-84469224D01*
X188132000Y-85749224D02*
X189560000Y-85749224D01*
X191640000Y-84549224D02*
X192299000Y-84549224D01*
X188736000Y-84709224D02*
X189560000Y-84709224D01*
X193220000Y-86510224D02*
G75*
G03*
X193220000Y-86510224I-2620000J0D01*
G01*
%TO.C,C3*%
X175570000Y-83080000D02*
X174865000Y-83080000D01*
X172830000Y-83080000D02*
X172830000Y-87320000D01*
X175570000Y-83080000D02*
X175570000Y-87320000D01*
X173535000Y-87320000D02*
X172830000Y-87320000D01*
X173535000Y-83080000D02*
X172830000Y-83080000D01*
X175570000Y-87320000D02*
X174865000Y-87320000D01*
%TO.C,C2*%
X170170776Y-84240000D02*
X170170776Y-85548000D01*
X171050776Y-81501000D02*
X171050776Y-82160000D01*
X171330776Y-81881000D02*
X171330776Y-82160000D01*
X171290776Y-81817000D02*
X171290776Y-82160000D01*
X169569776Y-84240000D02*
X169569776Y-85736000D01*
X170370776Y-80953000D02*
X170370776Y-82160000D01*
X169089776Y-80620000D02*
X169089776Y-85780000D01*
X170250776Y-84240000D02*
X170250776Y-85510000D01*
X170930776Y-84240000D02*
X170930776Y-85026000D01*
X170530776Y-84240000D02*
X170530776Y-85349000D01*
X169810776Y-84240000D02*
X169810776Y-85680000D01*
X170570776Y-84240000D02*
X170570776Y-85322000D01*
X171250776Y-81757000D02*
X171250776Y-82160000D01*
X169169776Y-80621000D02*
X169169776Y-85779000D01*
X170690776Y-81165000D02*
X170690776Y-82160000D01*
X171650776Y-82682000D02*
X171650776Y-83718000D01*
X169890776Y-80745000D02*
X169890776Y-82160000D01*
X170410776Y-80976000D02*
X170410776Y-82160000D01*
X170210776Y-84240000D02*
X170210776Y-85529000D01*
X171010776Y-84240000D02*
X171010776Y-84943000D01*
X170730776Y-84240000D02*
X170730776Y-85204000D01*
X171330776Y-84240000D02*
X171330776Y-84519000D01*
X171370776Y-84240000D02*
X171370776Y-84451000D01*
X170890776Y-84240000D02*
X170890776Y-85064000D01*
X169649776Y-84240000D02*
X169649776Y-85720000D01*
X169569776Y-80664000D02*
X169569776Y-82160000D01*
X169810776Y-80720000D02*
X169810776Y-82160000D01*
X170010776Y-80786000D02*
X170010776Y-82160000D01*
X169769776Y-84240000D02*
X169769776Y-85691000D01*
X171610776Y-82523000D02*
X171610776Y-83877000D01*
X170490776Y-81025000D02*
X170490776Y-82160000D01*
X169850776Y-84240000D02*
X169850776Y-85668000D01*
X170970776Y-81415000D02*
X170970776Y-82160000D01*
X171250776Y-84240000D02*
X171250776Y-84643000D01*
X170810776Y-81263000D02*
X170810776Y-82160000D01*
X170530776Y-81051000D02*
X170530776Y-82160000D01*
X170210776Y-80871000D02*
X170210776Y-82160000D01*
X169449776Y-84240000D02*
X169449776Y-85756000D01*
X171290776Y-84240000D02*
X171290776Y-84583000D01*
X169689776Y-80689000D02*
X169689776Y-82160000D01*
X171450776Y-82102000D02*
X171450776Y-84298000D01*
X171010776Y-81457000D02*
X171010776Y-82160000D01*
X169329776Y-84240000D02*
X169329776Y-85769000D01*
X169609776Y-84240000D02*
X169609776Y-85728000D01*
X169529776Y-80657000D02*
X169529776Y-82160000D01*
X169249776Y-80624000D02*
X169249776Y-85776000D01*
X170610776Y-81105000D02*
X170610776Y-82160000D01*
X170330776Y-84240000D02*
X170330776Y-85468000D01*
X170090776Y-80818000D02*
X170090776Y-82160000D01*
X169729776Y-84240000D02*
X169729776Y-85701000D01*
X169609776Y-80672000D02*
X169609776Y-82160000D01*
X169129776Y-80620000D02*
X169129776Y-85780000D01*
X170130776Y-80835000D02*
X170130776Y-82160000D01*
X171090776Y-84240000D02*
X171090776Y-84853000D01*
X169729776Y-80699000D02*
X169729776Y-82160000D01*
X169409776Y-80639000D02*
X169409776Y-82160000D01*
X170450776Y-81000000D02*
X170450776Y-82160000D01*
X170690776Y-84240000D02*
X170690776Y-85235000D01*
X170930776Y-81374000D02*
X170930776Y-82160000D01*
X169489776Y-84240000D02*
X169489776Y-85750000D01*
X169930776Y-80758000D02*
X169930776Y-82160000D01*
X169649776Y-80680000D02*
X169649776Y-82160000D01*
X169489776Y-80650000D02*
X169489776Y-82160000D01*
X170490776Y-84240000D02*
X170490776Y-85375000D01*
X170050776Y-84240000D02*
X170050776Y-85598000D01*
X169209776Y-80622000D02*
X169209776Y-85778000D01*
X169289776Y-80627000D02*
X169289776Y-85773000D01*
X169329776Y-80631000D02*
X169329776Y-82160000D01*
X169689776Y-84240000D02*
X169689776Y-85711000D01*
X170970776Y-84240000D02*
X170970776Y-84985000D01*
X170290776Y-80910000D02*
X170290776Y-82160000D01*
X170650776Y-81135000D02*
X170650776Y-82160000D01*
X170130776Y-84240000D02*
X170130776Y-85565000D01*
X171090776Y-81547000D02*
X171090776Y-82160000D01*
X169449776Y-80644000D02*
X169449776Y-82160000D01*
X170810776Y-84240000D02*
X170810776Y-85137000D01*
X169930776Y-84240000D02*
X169930776Y-85642000D01*
X170650776Y-84240000D02*
X170650776Y-85265000D01*
X170370776Y-84240000D02*
X170370776Y-85447000D01*
X170850776Y-84240000D02*
X170850776Y-85101000D01*
X169890776Y-84240000D02*
X169890776Y-85655000D01*
X170410776Y-84240000D02*
X170410776Y-85424000D01*
X170050776Y-80802000D02*
X170050776Y-82160000D01*
X166285001Y-81725000D02*
X166785001Y-81725000D01*
X171130776Y-84240000D02*
X171130776Y-84805000D01*
X171570776Y-82395000D02*
X171570776Y-84005000D01*
X171370776Y-81949000D02*
X171370776Y-82160000D01*
X169970776Y-84240000D02*
X169970776Y-85628000D01*
X169369776Y-84240000D02*
X169369776Y-85765000D01*
X171690776Y-82916000D02*
X171690776Y-83484000D01*
X169970776Y-80772000D02*
X169970776Y-82160000D01*
X171490776Y-82189000D02*
X171490776Y-84211000D01*
X170090776Y-84240000D02*
X170090776Y-85582000D01*
X170730776Y-81196000D02*
X170730776Y-82160000D01*
X171210776Y-81700000D02*
X171210776Y-82160000D01*
X171410776Y-82022000D02*
X171410776Y-84378000D01*
X170570776Y-81078000D02*
X170570776Y-82160000D01*
X170450776Y-84240000D02*
X170450776Y-85400000D01*
X170010776Y-84240000D02*
X170010776Y-85614000D01*
X166535001Y-81475000D02*
X166535001Y-81975000D01*
X170170776Y-80852000D02*
X170170776Y-82160000D01*
X170770776Y-81229000D02*
X170770776Y-82160000D01*
X169769776Y-80709000D02*
X169769776Y-82160000D01*
X170610776Y-84240000D02*
X170610776Y-85295000D01*
X169409776Y-84240000D02*
X169409776Y-85761000D01*
X170290776Y-84240000D02*
X170290776Y-85490000D01*
X170330776Y-80932000D02*
X170330776Y-82160000D01*
X171170776Y-81646000D02*
X171170776Y-82160000D01*
X170250776Y-80890000D02*
X170250776Y-82160000D01*
X171170776Y-84240000D02*
X171170776Y-84754000D01*
X171530776Y-82285000D02*
X171530776Y-84115000D01*
X170770776Y-84240000D02*
X170770776Y-85171000D01*
X169369776Y-80635000D02*
X169369776Y-82160000D01*
X171210776Y-84240000D02*
X171210776Y-84700000D01*
X170850776Y-81299000D02*
X170850776Y-82160000D01*
X169529776Y-84240000D02*
X169529776Y-85743000D01*
X171130776Y-81595000D02*
X171130776Y-82160000D01*
X169850776Y-80732000D02*
X169850776Y-82160000D01*
X171050776Y-84240000D02*
X171050776Y-84899000D01*
X170890776Y-81336000D02*
X170890776Y-82160000D01*
X171709776Y-83200000D02*
G75*
G03*
X171709776Y-83200000I-2620000J0D01*
G01*
%TO.C,C1*%
X166620000Y-102089776D02*
G75*
G03*
X166620000Y-102089776I-2620000J0D01*
G01*
X165864000Y-103890776D02*
X165040000Y-103890776D01*
X162960000Y-104050776D02*
X162301000Y-104050776D01*
X166468000Y-102850776D02*
X165040000Y-102850776D01*
X165605000Y-104130776D02*
X165040000Y-104130776D01*
X162960000Y-102529776D02*
X161457000Y-102529776D01*
X165901000Y-103850776D02*
X165040000Y-103850776D01*
X162960000Y-104210776D02*
X162500000Y-104210776D01*
X166565000Y-102369776D02*
X165040000Y-102369776D01*
X162960000Y-103770776D02*
X162029000Y-103770776D01*
X164915000Y-104530776D02*
X163085000Y-104530776D01*
X162960000Y-104170776D02*
X162446000Y-104170776D01*
X166310000Y-103250776D02*
X165040000Y-103250776D01*
X165554000Y-104170776D02*
X165040000Y-104170776D01*
X166268000Y-103330776D02*
X165040000Y-103330776D01*
X162960000Y-103290776D02*
X161710000Y-103290776D01*
X162960000Y-102409776D02*
X161439000Y-102409776D01*
X162960000Y-103610776D02*
X161905000Y-103610776D01*
X166491000Y-102769776D02*
X165040000Y-102769776D01*
X165971000Y-103770776D02*
X165040000Y-103770776D01*
X166348000Y-103170776D02*
X165040000Y-103170776D01*
X165725000Y-99535001D02*
X165225000Y-99535001D01*
X162960000Y-103010776D02*
X161586000Y-103010776D01*
X162960000Y-103450776D02*
X161800000Y-103450776D01*
X166122000Y-103570776D02*
X165040000Y-103570776D01*
X165178000Y-104410776D02*
X162822000Y-104410776D01*
X165500000Y-104210776D02*
X165040000Y-104210776D01*
X166004000Y-103730776D02*
X165040000Y-103730776D01*
X162960000Y-103090776D02*
X161618000Y-103090776D01*
X165011000Y-104490776D02*
X162989000Y-104490776D01*
X166428000Y-102970776D02*
X165040000Y-102970776D01*
X164284000Y-104690776D02*
X163716000Y-104690776D01*
X162960000Y-102369776D02*
X161435000Y-102369776D01*
X162960000Y-102970776D02*
X161572000Y-102970776D01*
X165251000Y-104370776D02*
X165040000Y-104370776D01*
X164805000Y-104570776D02*
X163195000Y-104570776D01*
X162960000Y-104130776D02*
X162395000Y-104130776D01*
X165475000Y-99285001D02*
X165475000Y-99785001D01*
X166398000Y-103050776D02*
X165040000Y-103050776D01*
X162960000Y-103410776D02*
X161776000Y-103410776D01*
X162960000Y-102890776D02*
X161545000Y-102890776D01*
X162960000Y-103850776D02*
X162099000Y-103850776D01*
X162960000Y-103370776D02*
X161753000Y-103370776D01*
X162960000Y-103650776D02*
X161935000Y-103650776D01*
X162960000Y-102930776D02*
X161558000Y-102930776D01*
X162960000Y-103810776D02*
X162063000Y-103810776D01*
X166556000Y-102449776D02*
X165040000Y-102449776D01*
X165653000Y-104090776D02*
X165040000Y-104090776D01*
X162960000Y-103130776D02*
X161635000Y-103130776D01*
X166065000Y-103650776D02*
X165040000Y-103650776D01*
X166290000Y-103290776D02*
X165040000Y-103290776D01*
X162960000Y-103970776D02*
X162215000Y-103970776D01*
X162960000Y-102689776D02*
X161489000Y-102689776D01*
X166569000Y-102329776D02*
X165040000Y-102329776D01*
X166573000Y-102289776D02*
X161427000Y-102289776D01*
X166578000Y-102209776D02*
X161422000Y-102209776D01*
X162960000Y-103050776D02*
X161602000Y-103050776D01*
X162960000Y-103490776D02*
X161825000Y-103490776D01*
X166550000Y-102489776D02*
X165040000Y-102489776D01*
X166520000Y-102649776D02*
X165040000Y-102649776D01*
X166442000Y-102930776D02*
X165040000Y-102930776D01*
X162960000Y-102489776D02*
X161450000Y-102489776D01*
X165826000Y-103930776D02*
X165040000Y-103930776D01*
X162960000Y-103690776D02*
X161965000Y-103690776D01*
X166200000Y-103450776D02*
X165040000Y-103450776D01*
X166561000Y-102409776D02*
X165040000Y-102409776D01*
X166501000Y-102729776D02*
X165040000Y-102729776D01*
X162960000Y-104090776D02*
X162347000Y-104090776D01*
X166365000Y-103130776D02*
X165040000Y-103130776D01*
X166580000Y-102129776D02*
X161420000Y-102129776D01*
X166528000Y-102609776D02*
X165040000Y-102609776D01*
X162960000Y-102729776D02*
X161499000Y-102729776D01*
X166382000Y-103090776D02*
X165040000Y-103090776D01*
X162960000Y-103330776D02*
X161732000Y-103330776D01*
X166095000Y-103610776D02*
X165040000Y-103610776D01*
X166576000Y-102249776D02*
X161424000Y-102249776D01*
X166543000Y-102529776D02*
X165040000Y-102529776D01*
X162960000Y-102609776D02*
X161472000Y-102609776D01*
X162960000Y-102329776D02*
X161431000Y-102329776D01*
X165743000Y-104010776D02*
X165040000Y-104010776D01*
X165098000Y-104450776D02*
X162902000Y-104450776D01*
X166511000Y-102689776D02*
X165040000Y-102689776D01*
X162960000Y-104290776D02*
X162617000Y-104290776D01*
X162960000Y-102449776D02*
X161444000Y-102449776D01*
X166329000Y-103210776D02*
X165040000Y-103210776D01*
X166149000Y-103530776D02*
X165040000Y-103530776D01*
X165937000Y-103810776D02*
X165040000Y-103810776D01*
X162960000Y-104250776D02*
X162557000Y-104250776D01*
X165785000Y-103970776D02*
X165040000Y-103970776D01*
X162960000Y-102850776D02*
X161532000Y-102850776D01*
X166175000Y-103490776D02*
X165040000Y-103490776D01*
X164677000Y-104610776D02*
X163323000Y-104610776D01*
X162960000Y-102769776D02*
X161509000Y-102769776D01*
X166414000Y-103010776D02*
X165040000Y-103010776D01*
X166480000Y-102810776D02*
X165040000Y-102810776D01*
X166536000Y-102569776D02*
X165040000Y-102569776D01*
X162960000Y-102649776D02*
X161480000Y-102649776D01*
X162960000Y-103890776D02*
X162136000Y-103890776D01*
X162960000Y-104370776D02*
X162749000Y-104370776D01*
X162960000Y-104330776D02*
X162681000Y-104330776D01*
X162960000Y-103730776D02*
X161996000Y-103730776D01*
X162960000Y-104010776D02*
X162257000Y-104010776D01*
X162960000Y-103210776D02*
X161671000Y-103210776D01*
X166224000Y-103410776D02*
X165040000Y-103410776D01*
X166455000Y-102890776D02*
X165040000Y-102890776D01*
X164518000Y-104650776D02*
X163482000Y-104650776D01*
X166035000Y-103690776D02*
X165040000Y-103690776D01*
X166579000Y-102169776D02*
X161421000Y-102169776D01*
X165443000Y-104250776D02*
X165040000Y-104250776D01*
X162960000Y-103570776D02*
X161878000Y-103570776D01*
X162960000Y-102810776D02*
X161520000Y-102810776D01*
X162960000Y-103530776D02*
X161851000Y-103530776D01*
X162960000Y-103930776D02*
X162174000Y-103930776D01*
X162960000Y-103250776D02*
X161690000Y-103250776D01*
X166580000Y-102089776D02*
X161420000Y-102089776D01*
X166247000Y-103370776D02*
X165040000Y-103370776D01*
X162960000Y-102569776D02*
X161464000Y-102569776D01*
X165383000Y-104290776D02*
X165040000Y-104290776D01*
X165319000Y-104330776D02*
X165040000Y-104330776D01*
X165699000Y-104050776D02*
X165040000Y-104050776D01*
X162960000Y-103170776D02*
X161652000Y-103170776D01*
%TD*%
M02*
