%TF.GenerationSoftware,KiCad,Pcbnew,6.0.11-3.fc37*%
%TF.CreationDate,2023-05-27T21:17:40+01:00*%
%TF.ProjectId,tda2822 board,74646132-3832-4322-9062-6f6172642e6b,rev?*%
%TF.SameCoordinates,Original*%
%TF.FileFunction,Legend,Top*%
%TF.FilePolarity,Positive*%
%FSLAX46Y46*%
G04 Gerber Fmt 4.6, Leading zero omitted, Abs format (unit mm)*
G04 Created by KiCad (PCBNEW 6.0.11-3.fc37) date 2023-05-27 21:17:40*
%MOMM*%
%LPD*%
G01*
G04 APERTURE LIST*
%ADD10C,0.150000*%
%ADD11C,0.120000*%
G04 APERTURE END LIST*
D10*
%TO.C,C6*%
X182833333Y-98957142D02*
X182785714Y-99004761D01*
X182642857Y-99052380D01*
X182547619Y-99052380D01*
X182404761Y-99004761D01*
X182309523Y-98909523D01*
X182261904Y-98814285D01*
X182214285Y-98623809D01*
X182214285Y-98480952D01*
X182261904Y-98290476D01*
X182309523Y-98195238D01*
X182404761Y-98100000D01*
X182547619Y-98052380D01*
X182642857Y-98052380D01*
X182785714Y-98100000D01*
X182833333Y-98147619D01*
X183690476Y-98052380D02*
X183500000Y-98052380D01*
X183404761Y-98100000D01*
X183357142Y-98147619D01*
X183261904Y-98290476D01*
X183214285Y-98480952D01*
X183214285Y-98861904D01*
X183261904Y-98957142D01*
X183309523Y-99004761D01*
X183404761Y-99052380D01*
X183595238Y-99052380D01*
X183690476Y-99004761D01*
X183738095Y-98957142D01*
X183785714Y-98861904D01*
X183785714Y-98623809D01*
X183738095Y-98528571D01*
X183690476Y-98480952D01*
X183595238Y-98433333D01*
X183404761Y-98433333D01*
X183309523Y-98480952D01*
X183261904Y-98528571D01*
X183214285Y-98623809D01*
%TO.C,J2*%
X165266666Y-83052380D02*
X165266666Y-83766666D01*
X165219047Y-83909523D01*
X165123809Y-84004761D01*
X164980952Y-84052380D01*
X164885714Y-84052380D01*
X165695238Y-83147619D02*
X165742857Y-83100000D01*
X165838095Y-83052380D01*
X166076190Y-83052380D01*
X166171428Y-83100000D01*
X166219047Y-83147619D01*
X166266666Y-83242857D01*
X166266666Y-83338095D01*
X166219047Y-83480952D01*
X165647619Y-84052380D01*
X166266666Y-84052380D01*
%TO.C,RV1*%
X173604761Y-97707380D02*
X173271428Y-97231190D01*
X173033333Y-97707380D02*
X173033333Y-96707380D01*
X173414285Y-96707380D01*
X173509523Y-96755000D01*
X173557142Y-96802619D01*
X173604761Y-96897857D01*
X173604761Y-97040714D01*
X173557142Y-97135952D01*
X173509523Y-97183571D01*
X173414285Y-97231190D01*
X173033333Y-97231190D01*
X173890476Y-96707380D02*
X174223809Y-97707380D01*
X174557142Y-96707380D01*
X175414285Y-97707380D02*
X174842857Y-97707380D01*
X175128571Y-97707380D02*
X175128571Y-96707380D01*
X175033333Y-96850238D01*
X174938095Y-96945476D01*
X174842857Y-96993095D01*
%TO.C,J1*%
X165266666Y-95452380D02*
X165266666Y-96166666D01*
X165219047Y-96309523D01*
X165123809Y-96404761D01*
X164980952Y-96452380D01*
X164885714Y-96452380D01*
X166266666Y-96452380D02*
X165695238Y-96452380D01*
X165980952Y-96452380D02*
X165980952Y-95452380D01*
X165885714Y-95595238D01*
X165790476Y-95690476D01*
X165695238Y-95738095D01*
%TO.C,J3*%
X195686666Y-94087380D02*
X195686666Y-94801666D01*
X195639047Y-94944523D01*
X195543809Y-95039761D01*
X195400952Y-95087380D01*
X195305714Y-95087380D01*
X196067619Y-94087380D02*
X196686666Y-94087380D01*
X196353333Y-94468333D01*
X196496190Y-94468333D01*
X196591428Y-94515952D01*
X196639047Y-94563571D01*
X196686666Y-94658809D01*
X196686666Y-94896904D01*
X196639047Y-94992142D01*
X196591428Y-95039761D01*
X196496190Y-95087380D01*
X196210476Y-95087380D01*
X196115238Y-95039761D01*
X196067619Y-94992142D01*
%TO.C,C3*%
X174033333Y-82557142D02*
X173985714Y-82604761D01*
X173842857Y-82652380D01*
X173747619Y-82652380D01*
X173604761Y-82604761D01*
X173509523Y-82509523D01*
X173461904Y-82414285D01*
X173414285Y-82223809D01*
X173414285Y-82080952D01*
X173461904Y-81890476D01*
X173509523Y-81795238D01*
X173604761Y-81700000D01*
X173747619Y-81652380D01*
X173842857Y-81652380D01*
X173985714Y-81700000D01*
X174033333Y-81747619D01*
X174366666Y-81652380D02*
X174985714Y-81652380D01*
X174652380Y-82033333D01*
X174795238Y-82033333D01*
X174890476Y-82080952D01*
X174938095Y-82128571D01*
X174985714Y-82223809D01*
X174985714Y-82461904D01*
X174938095Y-82557142D01*
X174890476Y-82604761D01*
X174795238Y-82652380D01*
X174509523Y-82652380D01*
X174414285Y-82604761D01*
X174366666Y-82557142D01*
%TO.C,C4*%
X193723109Y-83967366D02*
X193675490Y-84014985D01*
X193532633Y-84062604D01*
X193437395Y-84062604D01*
X193294537Y-84014985D01*
X193199299Y-83919747D01*
X193151680Y-83824509D01*
X193104061Y-83634033D01*
X193104061Y-83491176D01*
X193151680Y-83300700D01*
X193199299Y-83205462D01*
X193294537Y-83110224D01*
X193437395Y-83062604D01*
X193532633Y-83062604D01*
X193675490Y-83110224D01*
X193723109Y-83157843D01*
X194580252Y-83395938D02*
X194580252Y-84062604D01*
X194342156Y-83014985D02*
X194104061Y-83729271D01*
X194723109Y-83729271D01*
%TO.C,R1*%
X170133333Y-92452380D02*
X169800000Y-91976190D01*
X169561904Y-92452380D02*
X169561904Y-91452380D01*
X169942857Y-91452380D01*
X170038095Y-91500000D01*
X170085714Y-91547619D01*
X170133333Y-91642857D01*
X170133333Y-91785714D01*
X170085714Y-91880952D01*
X170038095Y-91928571D01*
X169942857Y-91976190D01*
X169561904Y-91976190D01*
X171085714Y-92452380D02*
X170514285Y-92452380D01*
X170800000Y-92452380D02*
X170800000Y-91452380D01*
X170704761Y-91595238D01*
X170609523Y-91690476D01*
X170514285Y-91738095D01*
%TO.C,C5*%
X193033333Y-95357142D02*
X192985714Y-95404761D01*
X192842857Y-95452380D01*
X192747619Y-95452380D01*
X192604761Y-95404761D01*
X192509523Y-95309523D01*
X192461904Y-95214285D01*
X192414285Y-95023809D01*
X192414285Y-94880952D01*
X192461904Y-94690476D01*
X192509523Y-94595238D01*
X192604761Y-94500000D01*
X192747619Y-94452380D01*
X192842857Y-94452380D01*
X192985714Y-94500000D01*
X193033333Y-94547619D01*
X193938095Y-94452380D02*
X193461904Y-94452380D01*
X193414285Y-94928571D01*
X193461904Y-94880952D01*
X193557142Y-94833333D01*
X193795238Y-94833333D01*
X193890476Y-94880952D01*
X193938095Y-94928571D01*
X193985714Y-95023809D01*
X193985714Y-95261904D01*
X193938095Y-95357142D01*
X193890476Y-95404761D01*
X193795238Y-95452380D01*
X193557142Y-95452380D01*
X193461904Y-95404761D01*
X193414285Y-95357142D01*
%TO.C,R2*%
X190633333Y-97852380D02*
X190300000Y-97376190D01*
X190061904Y-97852380D02*
X190061904Y-96852380D01*
X190442857Y-96852380D01*
X190538095Y-96900000D01*
X190585714Y-96947619D01*
X190633333Y-97042857D01*
X190633333Y-97185714D01*
X190585714Y-97280952D01*
X190538095Y-97328571D01*
X190442857Y-97376190D01*
X190061904Y-97376190D01*
X191014285Y-96947619D02*
X191061904Y-96900000D01*
X191157142Y-96852380D01*
X191395238Y-96852380D01*
X191490476Y-96900000D01*
X191538095Y-96947619D01*
X191585714Y-97042857D01*
X191585714Y-97138095D01*
X191538095Y-97280952D01*
X190966666Y-97852380D01*
X191585714Y-97852380D01*
%TO.C,C2*%
X162133333Y-88357142D02*
X162085714Y-88404761D01*
X161942857Y-88452380D01*
X161847619Y-88452380D01*
X161704761Y-88404761D01*
X161609523Y-88309523D01*
X161561904Y-88214285D01*
X161514285Y-88023809D01*
X161514285Y-87880952D01*
X161561904Y-87690476D01*
X161609523Y-87595238D01*
X161704761Y-87500000D01*
X161847619Y-87452380D01*
X161942857Y-87452380D01*
X162085714Y-87500000D01*
X162133333Y-87547619D01*
X162514285Y-87547619D02*
X162561904Y-87500000D01*
X162657142Y-87452380D01*
X162895238Y-87452380D01*
X162990476Y-87500000D01*
X163038095Y-87547619D01*
X163085714Y-87642857D01*
X163085714Y-87738095D01*
X163038095Y-87880952D01*
X162466666Y-88452380D01*
X163085714Y-88452380D01*
%TO.C,C7*%
X180633333Y-98957142D02*
X180585714Y-99004761D01*
X180442857Y-99052380D01*
X180347619Y-99052380D01*
X180204761Y-99004761D01*
X180109523Y-98909523D01*
X180061904Y-98814285D01*
X180014285Y-98623809D01*
X180014285Y-98480952D01*
X180061904Y-98290476D01*
X180109523Y-98195238D01*
X180204761Y-98100000D01*
X180347619Y-98052380D01*
X180442857Y-98052380D01*
X180585714Y-98100000D01*
X180633333Y-98147619D01*
X180966666Y-98052380D02*
X181633333Y-98052380D01*
X181204761Y-99052380D01*
D11*
%TO.C,C6*%
X186570000Y-94830000D02*
X186570000Y-95535000D01*
X182330000Y-94830000D02*
X186570000Y-94830000D01*
X182330000Y-96865000D02*
X182330000Y-97570000D01*
X182330000Y-94830000D02*
X182330000Y-95535000D01*
X186570000Y-96865000D02*
X186570000Y-97570000D01*
X182330000Y-97570000D02*
X186570000Y-97570000D01*
%TO.C,J2*%
X161670000Y-82140000D02*
X161670000Y-80810000D01*
X161670000Y-83410000D02*
X164330000Y-83410000D01*
X161670000Y-80810000D02*
X163000000Y-80810000D01*
X161670000Y-83410000D02*
X161670000Y-86010000D01*
X161670000Y-86010000D02*
X164330000Y-86010000D01*
X164330000Y-83410000D02*
X164330000Y-86010000D01*
%TO.C,RV1*%
X172870000Y-93655000D02*
X172870000Y-88515000D01*
X175530000Y-88515000D02*
X172870000Y-88515000D01*
X175530000Y-93655000D02*
X172870000Y-93655000D01*
X175530000Y-94925000D02*
X175530000Y-96255000D01*
X175530000Y-93655000D02*
X175530000Y-88515000D01*
X175530000Y-96255000D02*
X174200000Y-96255000D01*
%TO.C,J1*%
X161670000Y-96110000D02*
X161670000Y-98710000D01*
X164330000Y-96110000D02*
X164330000Y-98710000D01*
X161670000Y-93510000D02*
X163000000Y-93510000D01*
X161670000Y-96110000D02*
X164330000Y-96110000D01*
X161670000Y-94840000D02*
X161670000Y-93510000D01*
X161670000Y-98710000D02*
X164330000Y-98710000D01*
%TO.C,J3*%
X197350000Y-93635000D02*
X196020000Y-93635000D01*
X197350000Y-91035000D02*
X194690000Y-91035000D01*
X197350000Y-91035000D02*
X197350000Y-88435000D01*
X197350000Y-92305000D02*
X197350000Y-93635000D01*
X197350000Y-88435000D02*
X194690000Y-88435000D01*
X194690000Y-91035000D02*
X194690000Y-88435000D01*
%TO.C,C3*%
X173535000Y-83080000D02*
X172830000Y-83080000D01*
X173535000Y-87320000D02*
X172830000Y-87320000D01*
X172830000Y-83080000D02*
X172830000Y-87320000D01*
X175570000Y-83080000D02*
X175570000Y-87320000D01*
X175570000Y-83080000D02*
X174865000Y-83080000D01*
X175570000Y-87320000D02*
X174865000Y-87320000D01*
%TO.C,C4*%
X193144776Y-86190776D02*
X191729776Y-86190776D01*
X189649776Y-87310776D02*
X188946776Y-87310776D01*
X189649776Y-85709776D02*
X188128776Y-85709776D01*
X189649776Y-87350776D02*
X188990776Y-87350776D01*
X189649776Y-86510776D02*
X188360776Y-86510776D01*
X189649776Y-87670776D02*
X189438776Y-87670776D01*
X189649776Y-86150776D02*
X188221776Y-86150776D01*
X193209776Y-85949776D02*
X191729776Y-85949776D01*
X192784776Y-86910776D02*
X191729776Y-86910776D01*
X189649776Y-86430776D02*
X188324776Y-86430776D01*
X189649776Y-87270776D02*
X188904776Y-87270776D01*
X189649776Y-87230776D02*
X188863776Y-87230776D01*
X189649776Y-86110776D02*
X188209776Y-86110776D01*
X193239776Y-85789776D02*
X191729776Y-85789776D01*
X192342776Y-87390776D02*
X191729776Y-87390776D01*
X192432776Y-87310776D02*
X191729776Y-87310776D01*
X193254776Y-85669776D02*
X191729776Y-85669776D01*
X189649776Y-86710776D02*
X188465776Y-86710776D01*
X189649776Y-86750776D02*
X188489776Y-86750776D01*
X189649776Y-86190776D02*
X188234776Y-86190776D01*
X192243776Y-87470776D02*
X191729776Y-87470776D01*
X189649776Y-86390776D02*
X188307776Y-86390776D01*
X189649776Y-87430776D02*
X189084776Y-87430776D01*
X190973776Y-87990776D02*
X190405776Y-87990776D01*
X189649776Y-87550776D02*
X189246776Y-87550776D01*
X193037776Y-86470776D02*
X191729776Y-86470776D01*
X193269776Y-85389776D02*
X188109776Y-85389776D01*
X189649776Y-85989776D02*
X188178776Y-85989776D01*
X192999776Y-86550776D02*
X191729776Y-86550776D01*
X192724776Y-86990776D02*
X191729776Y-86990776D01*
X189649776Y-86630776D02*
X188421776Y-86630776D01*
X193250776Y-85709776D02*
X191729776Y-85709776D01*
X192979776Y-86590776D02*
X191729776Y-86590776D01*
X193018776Y-86510776D02*
X191729776Y-86510776D01*
X192590776Y-87150776D02*
X191729776Y-87150776D01*
X191366776Y-87910776D02*
X190012776Y-87910776D01*
X193217776Y-85909776D02*
X191729776Y-85909776D01*
X192189776Y-87510776D02*
X191729776Y-87510776D01*
X189649776Y-87030776D02*
X188685776Y-87030776D01*
X193169776Y-86110776D02*
X191729776Y-86110776D01*
X191940776Y-87670776D02*
X191729776Y-87670776D01*
X189649776Y-87390776D02*
X189036776Y-87390776D01*
X189649776Y-87590776D02*
X189306776Y-87590776D01*
X193131776Y-86230776D02*
X191729776Y-86230776D01*
X189649776Y-87630776D02*
X189370776Y-87630776D01*
X192414776Y-82835001D02*
X191914776Y-82835001D01*
X193258776Y-85629776D02*
X191729776Y-85629776D01*
X193190776Y-86029776D02*
X191729776Y-86029776D01*
X192008776Y-87630776D02*
X191729776Y-87630776D01*
X193269776Y-85429776D02*
X188109776Y-85429776D01*
X189649776Y-86910776D02*
X188594776Y-86910776D01*
X189649776Y-87150776D02*
X188788776Y-87150776D01*
X192388776Y-87350776D02*
X191729776Y-87350776D01*
X189649776Y-85909776D02*
X188161776Y-85909776D01*
X189649776Y-86790776D02*
X188514776Y-86790776D01*
X189649776Y-86350776D02*
X188291776Y-86350776D01*
X191787776Y-87750776D02*
X189591776Y-87750776D01*
X193071776Y-86390776D02*
X191729776Y-86390776D01*
X193268776Y-85469776D02*
X188110776Y-85469776D01*
X189649776Y-86310776D02*
X188275776Y-86310776D01*
X193180776Y-86069776D02*
X191729776Y-86069776D01*
X192889776Y-86750776D02*
X191729776Y-86750776D01*
X191604776Y-87830776D02*
X189774776Y-87830776D01*
X193232776Y-85829776D02*
X191729776Y-85829776D01*
X192294776Y-87430776D02*
X191729776Y-87430776D01*
X192164776Y-82585001D02*
X192164776Y-83085001D01*
X189649776Y-85749776D02*
X188133776Y-85749776D01*
X192132776Y-87550776D02*
X191729776Y-87550776D01*
X192864776Y-86790776D02*
X191729776Y-86790776D01*
X189649776Y-87510776D02*
X189189776Y-87510776D01*
X189649776Y-86230776D02*
X188247776Y-86230776D01*
X192838776Y-86830776D02*
X191729776Y-86830776D01*
X189649776Y-85629776D02*
X188120776Y-85629776D01*
X189649776Y-87470776D02*
X189135776Y-87470776D01*
X193054776Y-86430776D02*
X191729776Y-86430776D01*
X193262776Y-85589776D02*
X188116776Y-85589776D01*
X189649776Y-86950776D02*
X188624776Y-86950776D01*
X192660776Y-87070776D02*
X191729776Y-87070776D01*
X191494776Y-87870776D02*
X189884776Y-87870776D01*
X191867776Y-87710776D02*
X189511776Y-87710776D01*
X189649776Y-87070776D02*
X188718776Y-87070776D01*
X193103776Y-86310776D02*
X191729776Y-86310776D01*
X189649776Y-85669776D02*
X188124776Y-85669776D01*
X189649776Y-86029776D02*
X188188776Y-86029776D01*
X192626776Y-87110776D02*
X191729776Y-87110776D01*
X189649776Y-86069776D02*
X188198776Y-86069776D01*
X189649776Y-85949776D02*
X188169776Y-85949776D01*
X189649776Y-86590776D02*
X188399776Y-86590776D01*
X193117776Y-86270776D02*
X191729776Y-86270776D01*
X192913776Y-86710776D02*
X191729776Y-86710776D01*
X189649776Y-86270776D02*
X188261776Y-86270776D01*
X193245776Y-85749776D02*
X191729776Y-85749776D01*
X193087776Y-86350776D02*
X191729776Y-86350776D01*
X193265776Y-85549776D02*
X188113776Y-85549776D01*
X193200776Y-85989776D02*
X191729776Y-85989776D01*
X192754776Y-86950776D02*
X191729776Y-86950776D01*
X193267776Y-85509776D02*
X188111776Y-85509776D01*
X191207776Y-87950776D02*
X190171776Y-87950776D01*
X192957776Y-86630776D02*
X191729776Y-86630776D01*
X189649776Y-85829776D02*
X188146776Y-85829776D01*
X189649776Y-86470776D02*
X188341776Y-86470776D01*
X191700776Y-87790776D02*
X189678776Y-87790776D01*
X189649776Y-87110776D02*
X188752776Y-87110776D01*
X192072776Y-87590776D02*
X191729776Y-87590776D01*
X192811776Y-86870776D02*
X191729776Y-86870776D01*
X189649776Y-86670776D02*
X188442776Y-86670776D01*
X189649776Y-86550776D02*
X188379776Y-86550776D01*
X189649776Y-86990776D02*
X188654776Y-86990776D01*
X192693776Y-87030776D02*
X191729776Y-87030776D01*
X189649776Y-86830776D02*
X188540776Y-86830776D01*
X189649776Y-85789776D02*
X188139776Y-85789776D01*
X192515776Y-87230776D02*
X191729776Y-87230776D01*
X192553776Y-87190776D02*
X191729776Y-87190776D01*
X189649776Y-86870776D02*
X188567776Y-86870776D01*
X192474776Y-87270776D02*
X191729776Y-87270776D01*
X193225776Y-85869776D02*
X191729776Y-85869776D01*
X189649776Y-85869776D02*
X188153776Y-85869776D01*
X193157776Y-86150776D02*
X191729776Y-86150776D01*
X189649776Y-87190776D02*
X188825776Y-87190776D01*
X192936776Y-86670776D02*
X191729776Y-86670776D01*
X193309776Y-85389776D02*
G75*
G03*
X193309776Y-85389776I-2620000J0D01*
G01*
%TO.C,R1*%
X169030000Y-95670000D02*
X171770000Y-95670000D01*
X170400000Y-88360000D02*
X170400000Y-89130000D01*
X171770000Y-95670000D02*
X171770000Y-89130000D01*
X171770000Y-89130000D02*
X169030000Y-89130000D01*
X170400000Y-96440000D02*
X170400000Y-95670000D01*
X169030000Y-89130000D02*
X169030000Y-95670000D01*
%TO.C,C5*%
X189560000Y-93825435D02*
X188565000Y-93825435D01*
X193128000Y-92744435D02*
X191640000Y-92744435D01*
X191277000Y-94745435D02*
X189923000Y-94745435D01*
X189560000Y-93065435D02*
X188158000Y-93065435D01*
X193173000Y-92424435D02*
X188027000Y-92424435D01*
X192910000Y-93385435D02*
X191640000Y-93385435D01*
X189560000Y-93545435D02*
X188376000Y-93545435D01*
X189560000Y-94305435D02*
X189046000Y-94305435D01*
X193101000Y-92864435D02*
X191640000Y-92864435D01*
X193176000Y-92384435D02*
X188024000Y-92384435D01*
X189560000Y-93585435D02*
X188400000Y-93585435D01*
X192890000Y-93425435D02*
X191640000Y-93425435D01*
X189560000Y-92985435D02*
X188132000Y-92985435D01*
X192929000Y-93345435D02*
X191640000Y-93345435D01*
X193111000Y-92824435D02*
X191640000Y-92824435D01*
X193120000Y-92784435D02*
X191640000Y-92784435D01*
X192205000Y-94265435D02*
X191640000Y-94265435D01*
X192385000Y-94105435D02*
X191640000Y-94105435D01*
X189560000Y-93465435D02*
X188332000Y-93465435D01*
X189560000Y-94345435D02*
X189100000Y-94345435D01*
X189560000Y-93425435D02*
X188310000Y-93425435D01*
X190884000Y-94825435D02*
X190316000Y-94825435D01*
X189560000Y-93025435D02*
X188145000Y-93025435D01*
X189560000Y-93505435D02*
X188353000Y-93505435D01*
X191405000Y-94705435D02*
X189795000Y-94705435D01*
X189560000Y-93305435D02*
X188252000Y-93305435D01*
X193068000Y-92985435D02*
X191640000Y-92985435D01*
X189560000Y-93265435D02*
X188235000Y-93265435D01*
X193165000Y-92504435D02*
X191640000Y-92504435D01*
X192426000Y-94065435D02*
X191640000Y-94065435D01*
X192868000Y-93465435D02*
X191640000Y-93465435D01*
X192775000Y-93625435D02*
X191640000Y-93625435D01*
X192948000Y-93305435D02*
X191640000Y-93305435D01*
X189560000Y-92744435D02*
X188072000Y-92744435D01*
X192982000Y-93225435D02*
X191640000Y-93225435D01*
X189560000Y-93865435D02*
X188596000Y-93865435D01*
X189560000Y-92464435D02*
X188031000Y-92464435D01*
X192847000Y-93505435D02*
X191640000Y-93505435D01*
X192537000Y-93945435D02*
X191640000Y-93945435D01*
X192154000Y-94305435D02*
X191640000Y-94305435D01*
X189560000Y-93945435D02*
X188663000Y-93945435D01*
X193178000Y-92344435D02*
X188022000Y-92344435D01*
X189560000Y-93625435D02*
X188425000Y-93625435D01*
X189560000Y-92584435D02*
X188044000Y-92584435D01*
X191983000Y-94425435D02*
X191640000Y-94425435D01*
X189560000Y-94425435D02*
X189217000Y-94425435D01*
X189560000Y-93745435D02*
X188505000Y-93745435D01*
X193180000Y-92224435D02*
X188020000Y-92224435D01*
X192665000Y-93785435D02*
X191640000Y-93785435D01*
X192299000Y-94185435D02*
X191640000Y-94185435D01*
X189560000Y-93225435D02*
X188218000Y-93225435D01*
X192075000Y-89419660D02*
X192075000Y-89919660D01*
X191698000Y-94585435D02*
X189502000Y-94585435D01*
X191611000Y-94625435D02*
X189589000Y-94625435D01*
X189560000Y-93985435D02*
X188699000Y-93985435D01*
X189560000Y-93345435D02*
X188271000Y-93345435D01*
X193143000Y-92664435D02*
X191640000Y-92664435D01*
X189560000Y-93145435D02*
X188186000Y-93145435D01*
X191778000Y-94545435D02*
X189422000Y-94545435D01*
X189560000Y-93665435D02*
X188451000Y-93665435D01*
X192343000Y-94145435D02*
X191640000Y-94145435D01*
X189560000Y-94385435D02*
X189157000Y-94385435D01*
X193150000Y-92624435D02*
X191640000Y-92624435D01*
X192501000Y-93985435D02*
X191640000Y-93985435D01*
X189560000Y-93905435D02*
X188629000Y-93905435D01*
X189560000Y-94105435D02*
X188815000Y-94105435D01*
X189560000Y-92704435D02*
X188064000Y-92704435D01*
X193180000Y-92264435D02*
X188020000Y-92264435D01*
X193014000Y-93145435D02*
X191640000Y-93145435D01*
X189560000Y-94465435D02*
X189281000Y-94465435D01*
X189560000Y-94065435D02*
X188774000Y-94065435D01*
X193028000Y-93105435D02*
X191640000Y-93105435D01*
X191118000Y-94785435D02*
X190082000Y-94785435D01*
X189560000Y-92504435D02*
X188035000Y-92504435D01*
X193055000Y-93025435D02*
X191640000Y-93025435D01*
X193156000Y-92584435D02*
X191640000Y-92584435D01*
X192824000Y-93545435D02*
X191640000Y-93545435D01*
X192998000Y-93185435D02*
X191640000Y-93185435D01*
X189560000Y-92824435D02*
X188089000Y-92824435D01*
X189560000Y-93705435D02*
X188478000Y-93705435D01*
X193179000Y-92304435D02*
X188021000Y-92304435D01*
X189560000Y-94265435D02*
X188995000Y-94265435D01*
X189560000Y-92784435D02*
X188080000Y-92784435D01*
X192325000Y-89669660D02*
X191825000Y-89669660D01*
X192749000Y-93665435D02*
X191640000Y-93665435D01*
X192043000Y-94385435D02*
X191640000Y-94385435D01*
X189560000Y-92945435D02*
X188120000Y-92945435D01*
X189560000Y-94185435D02*
X188901000Y-94185435D01*
X189560000Y-92624435D02*
X188050000Y-92624435D01*
X192965000Y-93265435D02*
X191640000Y-93265435D01*
X193042000Y-93065435D02*
X191640000Y-93065435D01*
X189560000Y-94505435D02*
X189349000Y-94505435D01*
X192800000Y-93585435D02*
X191640000Y-93585435D01*
X193136000Y-92704435D02*
X191640000Y-92704435D01*
X189560000Y-94025435D02*
X188736000Y-94025435D01*
X189560000Y-92664435D02*
X188057000Y-92664435D01*
X191919000Y-94465435D02*
X191640000Y-94465435D01*
X189560000Y-92864435D02*
X188099000Y-92864435D01*
X192571000Y-93905435D02*
X191640000Y-93905435D01*
X192604000Y-93865435D02*
X191640000Y-93865435D01*
X193161000Y-92544435D02*
X191640000Y-92544435D01*
X189560000Y-93385435D02*
X188290000Y-93385435D01*
X193169000Y-92464435D02*
X191640000Y-92464435D01*
X193080000Y-92945435D02*
X191640000Y-92945435D01*
X189560000Y-93185435D02*
X188202000Y-93185435D01*
X191515000Y-94665435D02*
X189685000Y-94665435D01*
X192100000Y-94345435D02*
X191640000Y-94345435D01*
X192464000Y-94025435D02*
X191640000Y-94025435D01*
X192635000Y-93825435D02*
X191640000Y-93825435D01*
X189560000Y-93785435D02*
X188535000Y-93785435D01*
X189560000Y-92904435D02*
X188109000Y-92904435D01*
X191851000Y-94505435D02*
X191640000Y-94505435D01*
X189560000Y-94225435D02*
X188947000Y-94225435D01*
X189560000Y-92544435D02*
X188039000Y-92544435D01*
X192722000Y-93705435D02*
X191640000Y-93705435D01*
X189560000Y-93105435D02*
X188172000Y-93105435D01*
X192695000Y-93745435D02*
X191640000Y-93745435D01*
X192253000Y-94225435D02*
X191640000Y-94225435D01*
X193091000Y-92904435D02*
X191640000Y-92904435D01*
X189560000Y-94145435D02*
X188857000Y-94145435D01*
X193220000Y-92224435D02*
G75*
G03*
X193220000Y-92224435I-2620000J0D01*
G01*
%TO.C,R2*%
X186760000Y-99600000D02*
X187530000Y-99600000D01*
X194070000Y-100970000D02*
X194070000Y-98230000D01*
X194840000Y-99600000D02*
X194070000Y-99600000D01*
X194070000Y-98230000D02*
X187530000Y-98230000D01*
X187530000Y-98230000D02*
X187530000Y-100970000D01*
X187530000Y-100970000D02*
X194070000Y-100970000D01*
%TO.C,C2*%
X164660000Y-90811000D02*
X163390000Y-90811000D01*
X167019000Y-91891000D02*
X166740000Y-91891000D01*
X166615000Y-92091000D02*
X164785000Y-92091000D01*
X168201000Y-90290000D02*
X166740000Y-90290000D01*
X164660000Y-90411000D02*
X163232000Y-90411000D01*
X164660000Y-90891000D02*
X163432000Y-90891000D01*
X168278000Y-89770000D02*
X163122000Y-89770000D01*
X166878000Y-91971000D02*
X164522000Y-91971000D01*
X167849000Y-91091000D02*
X166740000Y-91091000D01*
X164660000Y-90130000D02*
X163164000Y-90130000D01*
X164660000Y-91811000D02*
X164257000Y-91811000D01*
X168065000Y-90691000D02*
X166740000Y-90691000D01*
X164660000Y-90531000D02*
X163272000Y-90531000D01*
X164660000Y-91051000D02*
X163525000Y-91051000D01*
X166951000Y-91931000D02*
X166740000Y-91931000D01*
X168256000Y-90010000D02*
X166740000Y-90010000D01*
X168142000Y-90491000D02*
X166740000Y-90491000D01*
X167305000Y-91691000D02*
X166740000Y-91691000D01*
X164660000Y-91611000D02*
X164001000Y-91611000D01*
X167947000Y-90931000D02*
X166740000Y-90931000D01*
X168269000Y-89890000D02*
X166740000Y-89890000D01*
X164660000Y-90931000D02*
X163453000Y-90931000D01*
X164660000Y-91331000D02*
X163729000Y-91331000D01*
X168211000Y-90250000D02*
X166740000Y-90250000D01*
X164660000Y-90611000D02*
X163302000Y-90611000D01*
X168168000Y-90411000D02*
X166740000Y-90411000D01*
X167795000Y-91171000D02*
X166740000Y-91171000D01*
X164660000Y-89930000D02*
X163135000Y-89930000D01*
X164660000Y-91251000D02*
X163665000Y-91251000D01*
X168279000Y-89730000D02*
X163121000Y-89730000D01*
X167443000Y-91571000D02*
X166740000Y-91571000D01*
X164660000Y-90371000D02*
X163220000Y-90371000D01*
X166218000Y-92211000D02*
X165182000Y-92211000D01*
X168280000Y-89650000D02*
X163120000Y-89650000D01*
X167765000Y-91211000D02*
X166740000Y-91211000D01*
X167968000Y-90891000D02*
X166740000Y-90891000D01*
X167671000Y-91331000D02*
X166740000Y-91331000D01*
X164660000Y-91891000D02*
X164381000Y-91891000D01*
X164660000Y-91451000D02*
X163836000Y-91451000D01*
X164660000Y-91411000D02*
X163799000Y-91411000D01*
X164660000Y-91651000D02*
X164047000Y-91651000D01*
X168243000Y-90090000D02*
X166740000Y-90090000D01*
X168220000Y-90210000D02*
X166740000Y-90210000D01*
X164660000Y-91771000D02*
X164200000Y-91771000D01*
X168098000Y-90611000D02*
X166740000Y-90611000D01*
X167254000Y-91731000D02*
X166740000Y-91731000D01*
X166505000Y-92131000D02*
X164895000Y-92131000D01*
X164660000Y-91131000D02*
X163578000Y-91131000D01*
X167875000Y-91051000D02*
X166740000Y-91051000D01*
X168280000Y-89690000D02*
X163120000Y-89690000D01*
X164660000Y-90731000D02*
X163352000Y-90731000D01*
X164660000Y-90451000D02*
X163245000Y-90451000D01*
X166711000Y-92051000D02*
X164689000Y-92051000D01*
X164660000Y-91931000D02*
X164449000Y-91931000D01*
X168029000Y-90771000D02*
X166740000Y-90771000D01*
X168114000Y-90571000D02*
X166740000Y-90571000D01*
X164660000Y-90170000D02*
X163172000Y-90170000D01*
X167601000Y-91411000D02*
X166740000Y-91411000D01*
X168228000Y-90170000D02*
X166740000Y-90170000D01*
X168261000Y-89970000D02*
X166740000Y-89970000D01*
X164660000Y-90771000D02*
X163371000Y-90771000D01*
X164660000Y-91491000D02*
X163874000Y-91491000D01*
X168082000Y-90651000D02*
X166740000Y-90651000D01*
X168048000Y-90731000D02*
X166740000Y-90731000D01*
X164660000Y-89970000D02*
X163139000Y-89970000D01*
X167924000Y-90971000D02*
X166740000Y-90971000D01*
X164660000Y-91531000D02*
X163915000Y-91531000D01*
X167353000Y-91651000D02*
X166740000Y-91651000D01*
X167485000Y-91531000D02*
X166740000Y-91531000D01*
X164660000Y-91291000D02*
X163696000Y-91291000D01*
X168010000Y-90811000D02*
X166740000Y-90811000D01*
X167526000Y-91491000D02*
X166740000Y-91491000D01*
X164660000Y-91851000D02*
X164317000Y-91851000D01*
X167083000Y-91851000D02*
X166740000Y-91851000D01*
X164660000Y-90691000D02*
X163335000Y-90691000D01*
X167143000Y-91811000D02*
X166740000Y-91811000D01*
X167735000Y-91251000D02*
X166740000Y-91251000D01*
X164660000Y-91371000D02*
X163763000Y-91371000D01*
X164660000Y-90090000D02*
X163157000Y-90090000D01*
X164660000Y-91011000D02*
X163500000Y-91011000D01*
X168236000Y-90130000D02*
X166740000Y-90130000D01*
X168155000Y-90451000D02*
X166740000Y-90451000D01*
X168180000Y-90371000D02*
X166740000Y-90371000D01*
X167704000Y-91291000D02*
X166740000Y-91291000D01*
X168250000Y-90050000D02*
X166740000Y-90050000D01*
X166377000Y-92171000D02*
X165023000Y-92171000D01*
X164660000Y-90651000D02*
X163318000Y-90651000D01*
X168128000Y-90531000D02*
X166740000Y-90531000D01*
X167822000Y-91131000D02*
X166740000Y-91131000D01*
X164660000Y-91211000D02*
X163635000Y-91211000D01*
X164660000Y-90971000D02*
X163476000Y-90971000D01*
X168276000Y-89810000D02*
X163124000Y-89810000D01*
X167990000Y-90851000D02*
X166740000Y-90851000D01*
X164660000Y-91691000D02*
X164095000Y-91691000D01*
X167425000Y-87095225D02*
X166925000Y-87095225D01*
X167175000Y-86845225D02*
X167175000Y-87345225D01*
X164660000Y-90210000D02*
X163180000Y-90210000D01*
X166798000Y-92011000D02*
X164602000Y-92011000D01*
X164660000Y-90010000D02*
X163144000Y-90010000D01*
X168265000Y-89930000D02*
X166740000Y-89930000D01*
X167564000Y-91451000D02*
X166740000Y-91451000D01*
X164660000Y-90250000D02*
X163189000Y-90250000D01*
X164660000Y-89890000D02*
X163131000Y-89890000D01*
X164660000Y-91571000D02*
X163957000Y-91571000D01*
X167200000Y-91771000D02*
X166740000Y-91771000D01*
X164660000Y-91171000D02*
X163605000Y-91171000D01*
X167399000Y-91611000D02*
X166740000Y-91611000D01*
X164660000Y-90491000D02*
X163258000Y-90491000D01*
X167637000Y-91371000D02*
X166740000Y-91371000D01*
X164660000Y-91731000D02*
X164146000Y-91731000D01*
X165984000Y-92251000D02*
X165416000Y-92251000D01*
X164660000Y-90330000D02*
X163209000Y-90330000D01*
X168191000Y-90330000D02*
X166740000Y-90330000D01*
X164660000Y-91091000D02*
X163551000Y-91091000D01*
X167900000Y-91011000D02*
X166740000Y-91011000D01*
X164660000Y-90050000D02*
X163150000Y-90050000D01*
X168273000Y-89850000D02*
X163127000Y-89850000D01*
X164660000Y-90290000D02*
X163199000Y-90290000D01*
X164660000Y-90851000D02*
X163410000Y-90851000D01*
X164660000Y-90571000D02*
X163286000Y-90571000D01*
X168320000Y-89650000D02*
G75*
G03*
X168320000Y-89650000I-2620000J0D01*
G01*
%TO.C,C7*%
X181520000Y-95535000D02*
X181520000Y-94830000D01*
X181520000Y-94830000D02*
X177280000Y-94830000D01*
X177280000Y-97570000D02*
X177280000Y-96865000D01*
X181520000Y-97570000D02*
X177280000Y-97570000D01*
X181520000Y-97570000D02*
X181520000Y-96865000D01*
X177280000Y-95535000D02*
X177280000Y-94830000D01*
%TD*%
M02*
