%TF.GenerationSoftware,KiCad,Pcbnew,6.0.11-3.fc37*%
%TF.CreationDate,2023-05-27T19:12:09+01:00*%
%TF.ProjectId,tda2822 board,74646132-3832-4322-9062-6f6172642e6b,rev?*%
%TF.SameCoordinates,Original*%
%TF.FileFunction,Copper,L1,Top*%
%TF.FilePolarity,Positive*%
%FSLAX46Y46*%
G04 Gerber Fmt 4.6, Leading zero omitted, Abs format (unit mm)*
G04 Created by KiCad (PCBNEW 6.0.11-3.fc37) date 2023-05-27 19:12:09*
%MOMM*%
%LPD*%
G01*
G04 APERTURE LIST*
%TA.AperFunction,ComponentPad*%
%ADD10C,1.600000*%
%TD*%
%TA.AperFunction,ComponentPad*%
%ADD11R,1.600000X1.600000*%
%TD*%
%TA.AperFunction,ComponentPad*%
%ADD12O,1.600000X1.600000*%
%TD*%
%TA.AperFunction,ComponentPad*%
%ADD13R,1.700000X1.700000*%
%TD*%
%TA.AperFunction,ComponentPad*%
%ADD14O,1.700000X1.700000*%
%TD*%
%TA.AperFunction,Conductor*%
%ADD15C,0.250000*%
%TD*%
G04 APERTURE END LIST*
D10*
%TO.P,C7,1*%
%TO.N,+5V*%
X180650000Y-96200000D03*
%TO.P,C7,2*%
%TO.N,GND*%
X178150000Y-96200000D03*
%TD*%
D11*
%TO.P,U1,1*%
%TO.N,Net-(C5-Pad1)*%
X185800000Y-93000000D03*
D12*
%TO.P,U1,2,V+*%
%TO.N,+5V*%
X185800000Y-90460000D03*
%TO.P,U1,3*%
%TO.N,unconnected-(U1-Pad3)*%
X185800000Y-87920000D03*
%TO.P,U1,4,V-*%
%TO.N,GND*%
X185800000Y-85380000D03*
%TO.P,U1,5,-*%
X178180000Y-85380000D03*
%TO.P,U1,6,+*%
X178180000Y-87920000D03*
%TO.P,U1,7,+*%
%TO.N,Net-(C3-Pad2)*%
X178180000Y-90460000D03*
%TO.P,U1,8,-*%
%TO.N,Net-(C4-Pad1)*%
X178180000Y-93000000D03*
%TD*%
D13*
%TO.P,J3,1,Pin_1*%
%TO.N,Net-(C5-Pad2)*%
X196020000Y-92305000D03*
D14*
%TO.P,J3,2,Pin_2*%
%TO.N,GND*%
X196020000Y-89765000D03*
%TD*%
%TO.P,J2,2,Pin_2*%
%TO.N,Net-(C2-Pad1)*%
X163000000Y-84680000D03*
D13*
%TO.P,J2,1,Pin_1*%
%TO.N,GND*%
X163000000Y-82140000D03*
%TD*%
%TO.P,J1,1,Pin_1*%
%TO.N,GND*%
X163000000Y-94840000D03*
D14*
%TO.P,J1,2,Pin_2*%
%TO.N,+5V*%
X163000000Y-97380000D03*
%TD*%
D13*
%TO.P,RV1,1,1*%
%TO.N,unconnected-(RV1-Pad1)*%
X174200000Y-94925000D03*
D14*
%TO.P,RV1,2,2*%
%TO.N,GND*%
X174200000Y-92385000D03*
%TO.P,RV1,3,3*%
%TO.N,Net-(C3-Pad2)*%
X174200000Y-89845000D03*
%TD*%
D12*
%TO.P,R2,2*%
%TO.N,Net-(C5-Pad2)*%
X195880000Y-99600000D03*
D10*
%TO.P,R2,1*%
%TO.N,Net-(C6-Pad2)*%
X185720000Y-99600000D03*
%TD*%
%TO.P,R1,1*%
%TO.N,Net-(C3-Pad2)*%
X170400000Y-87320000D03*
D12*
%TO.P,R1,2*%
%TO.N,Net-(C2-Pad2)*%
X170400000Y-97480000D03*
%TD*%
D10*
%TO.P,C6,1*%
%TO.N,GND*%
X183200000Y-96200000D03*
%TO.P,C6,2*%
%TO.N,Net-(C6-Pad2)*%
X185700000Y-96200000D03*
%TD*%
D11*
%TO.P,C5,1*%
%TO.N,Net-(C5-Pad1)*%
X190600000Y-90974435D03*
D10*
%TO.P,C5,2*%
%TO.N,Net-(C5-Pad2)*%
X190600000Y-93474435D03*
%TD*%
D11*
%TO.P,C4,1*%
%TO.N,Net-(C4-Pad1)*%
X190600000Y-87760224D03*
D10*
%TO.P,C4,2*%
%TO.N,GND*%
X190600000Y-85260224D03*
%TD*%
%TO.P,C3,1*%
%TO.N,GND*%
X174200000Y-83950000D03*
%TO.P,C3,2*%
%TO.N,Net-(C3-Pad2)*%
X174200000Y-86450000D03*
%TD*%
D11*
%TO.P,C2,1*%
%TO.N,Net-(C2-Pad1)*%
X167839776Y-83200000D03*
D10*
%TO.P,C2,2*%
%TO.N,Net-(C2-Pad2)*%
X170339776Y-83200000D03*
%TD*%
%TO.P,C1,2*%
%TO.N,GND*%
X164000000Y-103339776D03*
D11*
%TO.P,C1,1*%
%TO.N,+5V*%
X164000000Y-100839776D03*
%TD*%
D15*
%TO.N,+5V*%
X179160224Y-100839776D02*
X180650000Y-99350000D01*
X164000000Y-100839776D02*
X179160224Y-100839776D01*
X180650000Y-99350000D02*
X180650000Y-96200000D01*
X164000000Y-98380000D02*
X163000000Y-97380000D01*
X164000000Y-100839776D02*
X164000000Y-98380000D01*
X180650000Y-96200000D02*
X180650000Y-93950000D01*
X180650000Y-93950000D02*
X184140000Y-90460000D01*
X184140000Y-90460000D02*
X185800000Y-90460000D01*
%TO.N,Net-(C6-Pad2)*%
X185720000Y-99600000D02*
X185720000Y-96220000D01*
X185720000Y-96220000D02*
X185700000Y-96200000D01*
%TO.N,Net-(C5-Pad2)*%
X196020000Y-92305000D02*
X196020000Y-99460000D01*
X196020000Y-99460000D02*
X195880000Y-99600000D01*
%TO.N,Net-(C2-Pad2)*%
X170400000Y-97480000D02*
X168000000Y-95080000D01*
X168000000Y-95080000D02*
X168000000Y-87200000D01*
X168000000Y-87200000D02*
X170339776Y-84860224D01*
X170339776Y-84860224D02*
X170339776Y-83200000D01*
%TO.N,Net-(C5-Pad2)*%
X190600000Y-93474435D02*
X194850565Y-93474435D01*
X194850565Y-93474435D02*
X196020000Y-92305000D01*
%TO.N,Net-(C4-Pad1)*%
X182155000Y-89045000D02*
X179800000Y-91400000D01*
X179780000Y-91400000D02*
X178180000Y-93000000D01*
X189315224Y-89045000D02*
X182155000Y-89045000D01*
X190600000Y-87760224D02*
X189315224Y-89045000D01*
X179800000Y-91400000D02*
X179780000Y-91400000D01*
%TO.N,Net-(C5-Pad1)*%
X185800000Y-93000000D02*
X188574435Y-93000000D01*
X188574435Y-93000000D02*
X190600000Y-90974435D01*
%TO.N,Net-(C3-Pad2)*%
X178180000Y-90460000D02*
X174815000Y-90460000D01*
X174815000Y-90460000D02*
X174200000Y-89845000D01*
X170400000Y-87320000D02*
X172080000Y-87320000D01*
X172080000Y-87320000D02*
X172950000Y-86450000D01*
X172950000Y-86450000D02*
X174200000Y-86450000D01*
X174200000Y-89845000D02*
X174200000Y-86450000D01*
%TO.N,Net-(C2-Pad1)*%
X167839776Y-83200000D02*
X167800000Y-83200000D01*
X166320000Y-84680000D02*
X163000000Y-84680000D01*
X167800000Y-83200000D02*
X166320000Y-84680000D01*
%TD*%
%TA.AperFunction,Conductor*%
%TO.N,GND*%
G36*
X198033621Y-78728502D02*
G01*
X198080114Y-78782158D01*
X198091500Y-78834500D01*
X198091500Y-105365500D01*
X198071498Y-105433621D01*
X198017842Y-105480114D01*
X197965500Y-105491500D01*
X160634500Y-105491500D01*
X160566379Y-105471498D01*
X160519886Y-105417842D01*
X160508500Y-105365500D01*
X160508500Y-97346695D01*
X161637251Y-97346695D01*
X161637548Y-97351848D01*
X161637548Y-97351851D01*
X161643011Y-97446590D01*
X161650110Y-97569715D01*
X161651247Y-97574761D01*
X161651248Y-97574767D01*
X161671120Y-97662942D01*
X161699222Y-97787639D01*
X161747572Y-97906712D01*
X161780839Y-97988638D01*
X161783266Y-97994616D01*
X161809001Y-98036612D01*
X161853340Y-98108966D01*
X161899987Y-98185088D01*
X162046250Y-98353938D01*
X162218126Y-98496632D01*
X162411000Y-98609338D01*
X162619692Y-98689030D01*
X162624760Y-98690061D01*
X162624763Y-98690062D01*
X162732379Y-98711957D01*
X162838597Y-98733567D01*
X162843772Y-98733757D01*
X162843774Y-98733757D01*
X163056673Y-98741564D01*
X163056677Y-98741564D01*
X163061837Y-98741753D01*
X163066957Y-98741097D01*
X163066959Y-98741097D01*
X163224490Y-98720917D01*
X163294600Y-98732102D01*
X163347534Y-98779415D01*
X163366500Y-98845896D01*
X163366500Y-99405276D01*
X163346498Y-99473397D01*
X163292842Y-99519890D01*
X163240500Y-99531276D01*
X163151866Y-99531276D01*
X163089684Y-99538031D01*
X162953295Y-99589161D01*
X162836739Y-99676515D01*
X162749385Y-99793071D01*
X162698255Y-99929460D01*
X162691500Y-99991642D01*
X162691500Y-101687910D01*
X162698255Y-101750092D01*
X162749385Y-101886481D01*
X162836739Y-102003037D01*
X162953295Y-102090391D01*
X163089684Y-102141521D01*
X163151866Y-102148276D01*
X164848134Y-102148276D01*
X164910316Y-102141521D01*
X165046705Y-102090391D01*
X165163261Y-102003037D01*
X165250615Y-101886481D01*
X165301745Y-101750092D01*
X165308500Y-101687910D01*
X165308500Y-101599276D01*
X165328502Y-101531155D01*
X165382158Y-101484662D01*
X165434500Y-101473276D01*
X179081457Y-101473276D01*
X179092640Y-101473803D01*
X179100133Y-101475478D01*
X179108059Y-101475229D01*
X179108060Y-101475229D01*
X179168210Y-101473338D01*
X179172169Y-101473276D01*
X179200080Y-101473276D01*
X179204015Y-101472779D01*
X179204080Y-101472771D01*
X179215917Y-101471838D01*
X179248175Y-101470824D01*
X179252194Y-101470698D01*
X179260113Y-101470449D01*
X179279567Y-101464797D01*
X179298924Y-101460789D01*
X179311154Y-101459244D01*
X179311155Y-101459244D01*
X179319021Y-101458250D01*
X179326392Y-101455331D01*
X179326394Y-101455331D01*
X179360136Y-101441972D01*
X179371366Y-101438127D01*
X179406207Y-101428005D01*
X179406208Y-101428005D01*
X179413817Y-101425794D01*
X179420636Y-101421761D01*
X179420641Y-101421759D01*
X179431252Y-101415483D01*
X179449000Y-101406788D01*
X179467841Y-101399328D01*
X179503611Y-101373340D01*
X179513531Y-101366824D01*
X179544759Y-101348356D01*
X179544762Y-101348354D01*
X179551586Y-101344318D01*
X179565907Y-101329997D01*
X179580941Y-101317156D01*
X179590918Y-101309907D01*
X179597331Y-101305248D01*
X179625522Y-101271171D01*
X179633512Y-101262392D01*
X181042247Y-99853657D01*
X181050537Y-99846113D01*
X181057018Y-99842000D01*
X181103659Y-99792332D01*
X181106413Y-99789491D01*
X181126134Y-99769770D01*
X181128612Y-99766575D01*
X181136318Y-99757553D01*
X181161158Y-99731101D01*
X181166586Y-99725321D01*
X181176346Y-99707568D01*
X181187199Y-99691045D01*
X181194753Y-99681306D01*
X181199613Y-99675041D01*
X181217176Y-99634457D01*
X181222383Y-99623827D01*
X181243695Y-99585060D01*
X181245666Y-99577383D01*
X181245668Y-99577378D01*
X181248732Y-99565442D01*
X181255138Y-99546730D01*
X181260034Y-99535417D01*
X181263181Y-99528145D01*
X181264489Y-99519890D01*
X181270097Y-99484481D01*
X181272504Y-99472860D01*
X181281528Y-99437711D01*
X181281528Y-99437710D01*
X181283500Y-99430030D01*
X181283500Y-99409769D01*
X181285051Y-99390058D01*
X181286979Y-99377885D01*
X181288219Y-99370057D01*
X181284059Y-99326046D01*
X181283500Y-99314189D01*
X181283500Y-97419394D01*
X181303502Y-97351273D01*
X181337229Y-97316181D01*
X181489789Y-97209357D01*
X181489792Y-97209355D01*
X181494300Y-97206198D01*
X181656198Y-97044300D01*
X181669170Y-97025775D01*
X181784366Y-96861257D01*
X181787523Y-96856749D01*
X181789846Y-96851767D01*
X181789849Y-96851762D01*
X181881961Y-96654225D01*
X181881961Y-96654224D01*
X181884284Y-96649243D01*
X181930250Y-96477699D01*
X181942119Y-96433402D01*
X181942119Y-96433400D01*
X181943543Y-96428087D01*
X181963498Y-96200000D01*
X184386502Y-96200000D01*
X184406457Y-96428087D01*
X184407881Y-96433400D01*
X184407881Y-96433402D01*
X184419751Y-96477699D01*
X184465716Y-96649243D01*
X184468039Y-96654224D01*
X184468039Y-96654225D01*
X184560151Y-96851762D01*
X184560154Y-96851767D01*
X184562477Y-96856749D01*
X184565634Y-96861257D01*
X184680831Y-97025775D01*
X184693802Y-97044300D01*
X184855700Y-97206198D01*
X184860208Y-97209355D01*
X184860211Y-97209357D01*
X185032771Y-97330185D01*
X185077099Y-97385642D01*
X185086500Y-97433398D01*
X185086500Y-98380606D01*
X185066498Y-98448727D01*
X185032771Y-98483819D01*
X184880211Y-98590643D01*
X184880208Y-98590645D01*
X184875700Y-98593802D01*
X184713802Y-98755700D01*
X184710645Y-98760208D01*
X184710643Y-98760211D01*
X184687671Y-98793019D01*
X184582477Y-98943251D01*
X184580154Y-98948233D01*
X184580151Y-98948238D01*
X184507740Y-99103526D01*
X184485716Y-99150757D01*
X184426457Y-99371913D01*
X184406502Y-99600000D01*
X184426457Y-99828087D01*
X184427881Y-99833400D01*
X184427881Y-99833402D01*
X184469372Y-99988245D01*
X184485716Y-100049243D01*
X184488039Y-100054224D01*
X184488039Y-100054225D01*
X184580151Y-100251762D01*
X184580154Y-100251767D01*
X184582477Y-100256749D01*
X184713802Y-100444300D01*
X184875700Y-100606198D01*
X184880208Y-100609355D01*
X184880211Y-100609357D01*
X184958389Y-100664098D01*
X185063251Y-100737523D01*
X185068233Y-100739846D01*
X185068238Y-100739849D01*
X185265775Y-100831961D01*
X185270757Y-100834284D01*
X185276065Y-100835706D01*
X185276067Y-100835707D01*
X185486598Y-100892119D01*
X185486600Y-100892119D01*
X185491913Y-100893543D01*
X185720000Y-100913498D01*
X185948087Y-100893543D01*
X185953400Y-100892119D01*
X185953402Y-100892119D01*
X186163933Y-100835707D01*
X186163935Y-100835706D01*
X186169243Y-100834284D01*
X186174225Y-100831961D01*
X186371762Y-100739849D01*
X186371767Y-100739846D01*
X186376749Y-100737523D01*
X186481611Y-100664098D01*
X186559789Y-100609357D01*
X186559792Y-100609355D01*
X186564300Y-100606198D01*
X186726198Y-100444300D01*
X186857523Y-100256749D01*
X186859846Y-100251767D01*
X186859849Y-100251762D01*
X186951961Y-100054225D01*
X186951961Y-100054224D01*
X186954284Y-100049243D01*
X186970629Y-99988245D01*
X187012119Y-99833402D01*
X187012119Y-99833400D01*
X187013543Y-99828087D01*
X187033498Y-99600000D01*
X187013543Y-99371913D01*
X186954284Y-99150757D01*
X186932260Y-99103526D01*
X186859849Y-98948238D01*
X186859846Y-98948233D01*
X186857523Y-98943251D01*
X186752329Y-98793019D01*
X186729357Y-98760211D01*
X186729355Y-98760208D01*
X186726198Y-98755700D01*
X186564300Y-98593802D01*
X186559792Y-98590645D01*
X186559789Y-98590643D01*
X186407229Y-98483819D01*
X186362901Y-98428362D01*
X186353500Y-98380606D01*
X186353500Y-97405389D01*
X186373502Y-97337268D01*
X186407228Y-97302177D01*
X186486613Y-97246591D01*
X186539789Y-97209357D01*
X186539792Y-97209355D01*
X186544300Y-97206198D01*
X186706198Y-97044300D01*
X186719170Y-97025775D01*
X186834366Y-96861257D01*
X186837523Y-96856749D01*
X186839846Y-96851767D01*
X186839849Y-96851762D01*
X186931961Y-96654225D01*
X186931961Y-96654224D01*
X186934284Y-96649243D01*
X186980250Y-96477699D01*
X186992119Y-96433402D01*
X186992119Y-96433400D01*
X186993543Y-96428087D01*
X187013498Y-96200000D01*
X186993543Y-95971913D01*
X186954588Y-95826531D01*
X186935707Y-95756067D01*
X186935706Y-95756065D01*
X186934284Y-95750757D01*
X186931961Y-95745775D01*
X186839849Y-95548238D01*
X186839846Y-95548233D01*
X186837523Y-95543251D01*
X186728547Y-95387617D01*
X186709357Y-95360211D01*
X186709355Y-95360208D01*
X186706198Y-95355700D01*
X186544300Y-95193802D01*
X186539792Y-95190645D01*
X186539789Y-95190643D01*
X186433033Y-95115892D01*
X186356749Y-95062477D01*
X186351767Y-95060154D01*
X186351762Y-95060151D01*
X186154225Y-94968039D01*
X186154224Y-94968039D01*
X186149243Y-94965716D01*
X186143935Y-94964294D01*
X186143933Y-94964293D01*
X185933402Y-94907881D01*
X185933400Y-94907881D01*
X185928087Y-94906457D01*
X185700000Y-94886502D01*
X185471913Y-94906457D01*
X185466600Y-94907881D01*
X185466598Y-94907881D01*
X185256067Y-94964293D01*
X185256065Y-94964294D01*
X185250757Y-94965716D01*
X185245776Y-94968039D01*
X185245775Y-94968039D01*
X185048238Y-95060151D01*
X185048233Y-95060154D01*
X185043251Y-95062477D01*
X184966967Y-95115892D01*
X184860211Y-95190643D01*
X184860208Y-95190645D01*
X184855700Y-95193802D01*
X184693802Y-95355700D01*
X184690645Y-95360208D01*
X184690643Y-95360211D01*
X184671453Y-95387617D01*
X184562477Y-95543251D01*
X184560154Y-95548233D01*
X184560151Y-95548238D01*
X184468039Y-95745775D01*
X184465716Y-95750757D01*
X184464294Y-95756065D01*
X184464293Y-95756067D01*
X184445412Y-95826531D01*
X184406457Y-95971913D01*
X184386502Y-96200000D01*
X181963498Y-96200000D01*
X181943543Y-95971913D01*
X181904588Y-95826531D01*
X181885707Y-95756067D01*
X181885706Y-95756065D01*
X181884284Y-95750757D01*
X181881961Y-95745775D01*
X181789849Y-95548238D01*
X181789846Y-95548233D01*
X181787523Y-95543251D01*
X181678547Y-95387617D01*
X181659357Y-95360211D01*
X181659355Y-95360208D01*
X181656198Y-95355700D01*
X181494300Y-95193802D01*
X181489792Y-95190645D01*
X181489789Y-95190643D01*
X181337229Y-95083819D01*
X181292901Y-95028362D01*
X181283500Y-94980606D01*
X181283500Y-94264594D01*
X181303502Y-94196473D01*
X181320405Y-94175499D01*
X184365499Y-91130405D01*
X184427811Y-91096379D01*
X184454594Y-91093500D01*
X184580606Y-91093500D01*
X184648727Y-91113502D01*
X184683819Y-91147229D01*
X184790643Y-91299789D01*
X184793802Y-91304300D01*
X184955700Y-91466198D01*
X184960211Y-91469357D01*
X184964424Y-91472892D01*
X184963473Y-91474026D01*
X185003471Y-91524071D01*
X185010776Y-91594690D01*
X184978742Y-91658049D01*
X184917538Y-91694030D01*
X184900483Y-91697082D01*
X184889684Y-91698255D01*
X184753295Y-91749385D01*
X184636739Y-91836739D01*
X184549385Y-91953295D01*
X184498255Y-92089684D01*
X184491500Y-92151866D01*
X184491500Y-93848134D01*
X184498255Y-93910316D01*
X184549385Y-94046705D01*
X184636739Y-94163261D01*
X184753295Y-94250615D01*
X184889684Y-94301745D01*
X184951866Y-94308500D01*
X186648134Y-94308500D01*
X186710316Y-94301745D01*
X186846705Y-94250615D01*
X186963261Y-94163261D01*
X187050615Y-94046705D01*
X187101745Y-93910316D01*
X187108500Y-93848134D01*
X187108500Y-93759500D01*
X187128502Y-93691379D01*
X187182158Y-93644886D01*
X187234500Y-93633500D01*
X188495668Y-93633500D01*
X188506851Y-93634027D01*
X188514344Y-93635702D01*
X188522270Y-93635453D01*
X188522271Y-93635453D01*
X188582421Y-93633562D01*
X188586380Y-93633500D01*
X188614291Y-93633500D01*
X188618226Y-93633003D01*
X188618291Y-93632995D01*
X188630128Y-93632062D01*
X188662386Y-93631048D01*
X188666405Y-93630922D01*
X188674324Y-93630673D01*
X188693778Y-93625021D01*
X188713135Y-93621013D01*
X188725365Y-93619468D01*
X188725366Y-93619468D01*
X188733232Y-93618474D01*
X188740603Y-93615555D01*
X188740605Y-93615555D01*
X188774347Y-93602196D01*
X188785577Y-93598351D01*
X188820418Y-93588229D01*
X188820419Y-93588229D01*
X188828028Y-93586018D01*
X188834847Y-93581985D01*
X188834852Y-93581983D01*
X188845463Y-93575707D01*
X188863211Y-93567012D01*
X188882052Y-93559552D01*
X188917822Y-93533564D01*
X188927742Y-93527048D01*
X188958970Y-93508580D01*
X188958973Y-93508578D01*
X188965797Y-93504542D01*
X188980118Y-93490221D01*
X188995152Y-93477380D01*
X188996508Y-93476395D01*
X189011542Y-93465472D01*
X189039733Y-93431395D01*
X189047723Y-93422616D01*
X189072057Y-93398282D01*
X189134369Y-93364256D01*
X189205184Y-93369321D01*
X189262020Y-93411868D01*
X189286673Y-93476395D01*
X189292452Y-93542449D01*
X189306457Y-93702522D01*
X189307881Y-93707835D01*
X189307881Y-93707837D01*
X189362136Y-93910316D01*
X189365716Y-93923678D01*
X189368039Y-93928659D01*
X189368039Y-93928660D01*
X189460151Y-94126197D01*
X189460154Y-94126202D01*
X189462477Y-94131184D01*
X189493507Y-94175499D01*
X189589800Y-94313019D01*
X189593802Y-94318735D01*
X189755700Y-94480633D01*
X189760208Y-94483790D01*
X189760211Y-94483792D01*
X189838389Y-94538533D01*
X189943251Y-94611958D01*
X189948233Y-94614281D01*
X189948238Y-94614284D01*
X190145775Y-94706396D01*
X190150757Y-94708719D01*
X190156065Y-94710141D01*
X190156067Y-94710142D01*
X190366598Y-94766554D01*
X190366600Y-94766554D01*
X190371913Y-94767978D01*
X190600000Y-94787933D01*
X190828087Y-94767978D01*
X190833400Y-94766554D01*
X190833402Y-94766554D01*
X191043933Y-94710142D01*
X191043935Y-94710141D01*
X191049243Y-94708719D01*
X191054225Y-94706396D01*
X191251762Y-94614284D01*
X191251767Y-94614281D01*
X191256749Y-94611958D01*
X191361611Y-94538533D01*
X191439789Y-94483792D01*
X191439792Y-94483790D01*
X191444300Y-94480633D01*
X191606198Y-94318735D01*
X191609865Y-94313498D01*
X191716181Y-94161664D01*
X191771638Y-94117336D01*
X191819394Y-94107935D01*
X194771798Y-94107935D01*
X194782981Y-94108462D01*
X194790474Y-94110137D01*
X194798400Y-94109888D01*
X194798401Y-94109888D01*
X194858551Y-94107997D01*
X194862510Y-94107935D01*
X194890421Y-94107935D01*
X194894356Y-94107438D01*
X194894421Y-94107430D01*
X194906258Y-94106497D01*
X194938516Y-94105483D01*
X194942535Y-94105357D01*
X194950454Y-94105108D01*
X194969908Y-94099456D01*
X194989265Y-94095448D01*
X195001495Y-94093903D01*
X195001496Y-94093903D01*
X195009362Y-94092909D01*
X195016733Y-94089990D01*
X195016735Y-94089990D01*
X195050477Y-94076631D01*
X195061707Y-94072786D01*
X195096548Y-94062664D01*
X195096549Y-94062664D01*
X195104158Y-94060453D01*
X195110977Y-94056420D01*
X195110982Y-94056418D01*
X195121593Y-94050142D01*
X195139341Y-94041447D01*
X195158182Y-94033987D01*
X195164600Y-94029324D01*
X195164604Y-94029322D01*
X195186441Y-94013457D01*
X195253309Y-93989599D01*
X195322460Y-94005681D01*
X195371939Y-94056596D01*
X195386500Y-94115394D01*
X195386500Y-98306082D01*
X195366498Y-98374203D01*
X195313751Y-98420276D01*
X195223251Y-98462477D01*
X195131970Y-98526393D01*
X195040211Y-98590643D01*
X195040208Y-98590645D01*
X195035700Y-98593802D01*
X194873802Y-98755700D01*
X194870645Y-98760208D01*
X194870643Y-98760211D01*
X194847671Y-98793019D01*
X194742477Y-98943251D01*
X194740154Y-98948233D01*
X194740151Y-98948238D01*
X194667740Y-99103526D01*
X194645716Y-99150757D01*
X194586457Y-99371913D01*
X194566502Y-99600000D01*
X194586457Y-99828087D01*
X194587881Y-99833400D01*
X194587881Y-99833402D01*
X194629372Y-99988245D01*
X194645716Y-100049243D01*
X194648039Y-100054224D01*
X194648039Y-100054225D01*
X194740151Y-100251762D01*
X194740154Y-100251767D01*
X194742477Y-100256749D01*
X194873802Y-100444300D01*
X195035700Y-100606198D01*
X195040208Y-100609355D01*
X195040211Y-100609357D01*
X195118389Y-100664098D01*
X195223251Y-100737523D01*
X195228233Y-100739846D01*
X195228238Y-100739849D01*
X195425775Y-100831961D01*
X195430757Y-100834284D01*
X195436065Y-100835706D01*
X195436067Y-100835707D01*
X195646598Y-100892119D01*
X195646600Y-100892119D01*
X195651913Y-100893543D01*
X195880000Y-100913498D01*
X196108087Y-100893543D01*
X196113400Y-100892119D01*
X196113402Y-100892119D01*
X196323933Y-100835707D01*
X196323935Y-100835706D01*
X196329243Y-100834284D01*
X196334225Y-100831961D01*
X196531762Y-100739849D01*
X196531767Y-100739846D01*
X196536749Y-100737523D01*
X196641611Y-100664098D01*
X196719789Y-100609357D01*
X196719792Y-100609355D01*
X196724300Y-100606198D01*
X196886198Y-100444300D01*
X197017523Y-100256749D01*
X197019846Y-100251767D01*
X197019849Y-100251762D01*
X197111961Y-100054225D01*
X197111961Y-100054224D01*
X197114284Y-100049243D01*
X197130629Y-99988245D01*
X197172119Y-99833402D01*
X197172119Y-99833400D01*
X197173543Y-99828087D01*
X197193498Y-99600000D01*
X197173543Y-99371913D01*
X197114284Y-99150757D01*
X197092260Y-99103526D01*
X197019849Y-98948238D01*
X197019846Y-98948233D01*
X197017523Y-98943251D01*
X196912329Y-98793019D01*
X196889357Y-98760211D01*
X196889355Y-98760208D01*
X196886198Y-98755700D01*
X196724300Y-98593802D01*
X196707229Y-98581849D01*
X196662901Y-98526393D01*
X196653500Y-98478636D01*
X196653500Y-93789500D01*
X196673502Y-93721379D01*
X196727158Y-93674886D01*
X196779500Y-93663500D01*
X196918134Y-93663500D01*
X196980316Y-93656745D01*
X197116705Y-93605615D01*
X197233261Y-93518261D01*
X197320615Y-93401705D01*
X197371745Y-93265316D01*
X197378500Y-93203134D01*
X197378500Y-91406866D01*
X197371745Y-91344684D01*
X197320615Y-91208295D01*
X197233261Y-91091739D01*
X197116705Y-91004385D01*
X196980316Y-90953255D01*
X196918134Y-90946500D01*
X195121866Y-90946500D01*
X195059684Y-90953255D01*
X194923295Y-91004385D01*
X194806739Y-91091739D01*
X194719385Y-91208295D01*
X194668255Y-91344684D01*
X194661500Y-91406866D01*
X194661500Y-92714935D01*
X194641498Y-92783056D01*
X194587842Y-92829549D01*
X194535500Y-92840935D01*
X191819394Y-92840935D01*
X191751273Y-92820933D01*
X191716181Y-92787206D01*
X191609357Y-92634646D01*
X191609355Y-92634643D01*
X191606198Y-92630135D01*
X191460498Y-92484435D01*
X191426472Y-92422123D01*
X191431537Y-92351308D01*
X191474084Y-92294472D01*
X191510737Y-92277303D01*
X191510316Y-92276180D01*
X191638297Y-92228202D01*
X191646705Y-92225050D01*
X191763261Y-92137696D01*
X191850615Y-92021140D01*
X191901745Y-91884751D01*
X191908500Y-91822569D01*
X191908500Y-90126301D01*
X191901745Y-90064119D01*
X191850615Y-89927730D01*
X191763261Y-89811174D01*
X191646705Y-89723820D01*
X191510316Y-89672690D01*
X191448134Y-89665935D01*
X189894383Y-89665935D01*
X189826262Y-89645933D01*
X189779769Y-89592277D01*
X189769665Y-89522003D01*
X189799159Y-89457423D01*
X189805288Y-89450840D01*
X190150499Y-89105629D01*
X190212811Y-89071603D01*
X190239594Y-89068724D01*
X191448134Y-89068724D01*
X191510316Y-89061969D01*
X191646705Y-89010839D01*
X191763261Y-88923485D01*
X191850615Y-88806929D01*
X191901745Y-88670540D01*
X191908500Y-88608358D01*
X191908500Y-86912090D01*
X191901745Y-86849908D01*
X191850615Y-86713519D01*
X191763261Y-86596963D01*
X191646705Y-86509609D01*
X191510316Y-86458479D01*
X191448134Y-86451724D01*
X189751866Y-86451724D01*
X189689684Y-86458479D01*
X189553295Y-86509609D01*
X189436739Y-86596963D01*
X189349385Y-86713519D01*
X189298255Y-86849908D01*
X189291500Y-86912090D01*
X189291500Y-88120629D01*
X189271498Y-88188750D01*
X189254595Y-88209724D01*
X189089724Y-88374595D01*
X189027412Y-88408621D01*
X189000629Y-88411500D01*
X187187168Y-88411500D01*
X187119047Y-88391498D01*
X187072554Y-88337842D01*
X187062450Y-88267568D01*
X187065461Y-88252888D01*
X187082647Y-88188750D01*
X187093543Y-88148087D01*
X187113498Y-87920000D01*
X187093543Y-87691913D01*
X187069256Y-87601273D01*
X187035707Y-87476067D01*
X187035706Y-87476065D01*
X187034284Y-87470757D01*
X187013180Y-87425499D01*
X186939849Y-87268238D01*
X186939846Y-87268233D01*
X186937523Y-87263251D01*
X186831818Y-87112289D01*
X186809357Y-87080211D01*
X186809355Y-87080208D01*
X186806198Y-87075700D01*
X186644300Y-86913802D01*
X186639792Y-86910645D01*
X186639789Y-86910643D01*
X186542376Y-86842434D01*
X186456749Y-86782477D01*
X186451767Y-86780154D01*
X186451762Y-86780151D01*
X186254225Y-86688039D01*
X186254224Y-86688039D01*
X186249243Y-86685716D01*
X186243935Y-86684294D01*
X186243933Y-86684293D01*
X186033402Y-86627881D01*
X186033400Y-86627881D01*
X186028087Y-86626457D01*
X185800000Y-86606502D01*
X185571913Y-86626457D01*
X185566600Y-86627881D01*
X185566598Y-86627881D01*
X185356067Y-86684293D01*
X185356065Y-86684294D01*
X185350757Y-86685716D01*
X185345776Y-86688039D01*
X185345775Y-86688039D01*
X185148238Y-86780151D01*
X185148233Y-86780154D01*
X185143251Y-86782477D01*
X185057624Y-86842434D01*
X184960211Y-86910643D01*
X184960208Y-86910645D01*
X184955700Y-86913802D01*
X184793802Y-87075700D01*
X184790645Y-87080208D01*
X184790643Y-87080211D01*
X184768182Y-87112289D01*
X184662477Y-87263251D01*
X184660154Y-87268233D01*
X184660151Y-87268238D01*
X184586820Y-87425499D01*
X184565716Y-87470757D01*
X184564294Y-87476065D01*
X184564293Y-87476067D01*
X184530744Y-87601273D01*
X184506457Y-87691913D01*
X184486502Y-87920000D01*
X184506457Y-88148087D01*
X184517353Y-88188750D01*
X184534539Y-88252888D01*
X184532849Y-88323865D01*
X184493055Y-88382661D01*
X184427791Y-88410609D01*
X184412832Y-88411500D01*
X182233767Y-88411500D01*
X182222584Y-88410973D01*
X182215091Y-88409298D01*
X182207165Y-88409547D01*
X182207164Y-88409547D01*
X182147001Y-88411438D01*
X182143043Y-88411500D01*
X182115144Y-88411500D01*
X182111154Y-88412004D01*
X182099320Y-88412936D01*
X182055111Y-88414326D01*
X182047497Y-88416538D01*
X182047492Y-88416539D01*
X182035659Y-88419977D01*
X182016296Y-88423988D01*
X181996203Y-88426526D01*
X181988836Y-88429443D01*
X181988831Y-88429444D01*
X181955092Y-88442802D01*
X181943865Y-88446646D01*
X181901407Y-88458982D01*
X181894581Y-88463019D01*
X181883972Y-88469293D01*
X181866224Y-88477988D01*
X181847383Y-88485448D01*
X181840967Y-88490110D01*
X181840966Y-88490110D01*
X181811613Y-88511436D01*
X181801693Y-88517952D01*
X181770465Y-88536420D01*
X181770462Y-88536422D01*
X181763638Y-88540458D01*
X181749317Y-88554779D01*
X181734284Y-88567619D01*
X181717893Y-88579528D01*
X181694043Y-88608358D01*
X181689702Y-88613605D01*
X181681712Y-88622384D01*
X179704672Y-90599423D01*
X179642360Y-90633449D01*
X179571544Y-90628384D01*
X179514709Y-90585837D01*
X179489898Y-90519317D01*
X179490056Y-90499347D01*
X179493019Y-90465477D01*
X179493019Y-90465475D01*
X179493498Y-90460000D01*
X179473543Y-90231913D01*
X179444334Y-90122904D01*
X179415707Y-90016067D01*
X179415706Y-90016065D01*
X179414284Y-90010757D01*
X179404544Y-89989870D01*
X179319849Y-89808238D01*
X179319846Y-89808233D01*
X179317523Y-89803251D01*
X179222298Y-89667256D01*
X179189357Y-89620211D01*
X179189355Y-89620208D01*
X179186198Y-89615700D01*
X179024300Y-89453802D01*
X179019792Y-89450645D01*
X179019789Y-89450643D01*
X178910767Y-89374305D01*
X178836749Y-89322477D01*
X178831767Y-89320154D01*
X178831762Y-89320151D01*
X178634225Y-89228039D01*
X178634224Y-89228039D01*
X178629243Y-89225716D01*
X178623935Y-89224294D01*
X178623933Y-89224293D01*
X178413402Y-89167881D01*
X178413400Y-89167881D01*
X178408087Y-89166457D01*
X178180000Y-89146502D01*
X177951913Y-89166457D01*
X177946600Y-89167881D01*
X177946598Y-89167881D01*
X177736067Y-89224293D01*
X177736065Y-89224294D01*
X177730757Y-89225716D01*
X177725776Y-89228039D01*
X177725775Y-89228039D01*
X177528238Y-89320151D01*
X177528233Y-89320154D01*
X177523251Y-89322477D01*
X177449233Y-89374305D01*
X177340211Y-89450643D01*
X177340208Y-89450645D01*
X177335700Y-89453802D01*
X177173802Y-89615700D01*
X177170645Y-89620208D01*
X177170643Y-89620211D01*
X177063819Y-89772771D01*
X177008362Y-89817099D01*
X176960606Y-89826500D01*
X175677701Y-89826500D01*
X175609580Y-89806498D01*
X175563087Y-89752842D01*
X175552125Y-89710824D01*
X175549467Y-89678500D01*
X175544852Y-89622361D01*
X175490431Y-89405702D01*
X175401354Y-89200840D01*
X175280014Y-89013277D01*
X175129670Y-88848051D01*
X175125619Y-88844852D01*
X175125615Y-88844848D01*
X174958414Y-88712800D01*
X174958410Y-88712798D01*
X174954359Y-88709598D01*
X174949835Y-88707101D01*
X174949831Y-88707098D01*
X174898608Y-88678822D01*
X174848636Y-88628390D01*
X174833500Y-88568513D01*
X174833500Y-87669394D01*
X174853502Y-87601273D01*
X174887229Y-87566181D01*
X175039789Y-87459357D01*
X175039792Y-87459355D01*
X175044300Y-87456198D01*
X175206198Y-87294300D01*
X175231096Y-87258743D01*
X175291754Y-87172114D01*
X175337523Y-87106749D01*
X175339846Y-87101767D01*
X175339849Y-87101762D01*
X175431961Y-86904225D01*
X175431961Y-86904224D01*
X175434284Y-86899243D01*
X175445399Y-86857764D01*
X175492119Y-86683402D01*
X175492119Y-86683400D01*
X175493543Y-86678087D01*
X175513498Y-86450000D01*
X175493543Y-86221913D01*
X175445093Y-86041097D01*
X175435707Y-86006067D01*
X175435706Y-86006065D01*
X175434284Y-86000757D01*
X175431961Y-85995775D01*
X175339849Y-85798238D01*
X175339846Y-85798233D01*
X175337523Y-85793251D01*
X175206198Y-85605700D01*
X175044300Y-85443802D01*
X175039792Y-85440645D01*
X175039789Y-85440643D01*
X174905257Y-85346443D01*
X174856749Y-85312477D01*
X174851767Y-85310154D01*
X174851762Y-85310151D01*
X174654225Y-85218039D01*
X174654224Y-85218039D01*
X174649243Y-85215716D01*
X174643935Y-85214294D01*
X174643933Y-85214293D01*
X174433402Y-85157881D01*
X174433400Y-85157881D01*
X174428087Y-85156457D01*
X174200000Y-85136502D01*
X173971913Y-85156457D01*
X173966600Y-85157881D01*
X173966598Y-85157881D01*
X173756067Y-85214293D01*
X173756065Y-85214294D01*
X173750757Y-85215716D01*
X173745776Y-85218039D01*
X173745775Y-85218039D01*
X173548238Y-85310151D01*
X173548233Y-85310154D01*
X173543251Y-85312477D01*
X173494743Y-85346443D01*
X173360211Y-85440643D01*
X173360208Y-85440645D01*
X173355700Y-85443802D01*
X173193802Y-85605700D01*
X173190645Y-85610208D01*
X173190643Y-85610211D01*
X173084777Y-85761403D01*
X173029320Y-85805731D01*
X172985523Y-85815070D01*
X172951559Y-85816138D01*
X172941999Y-85816438D01*
X172938043Y-85816500D01*
X172910144Y-85816500D01*
X172906154Y-85817004D01*
X172894320Y-85817936D01*
X172850111Y-85819326D01*
X172842497Y-85821538D01*
X172842492Y-85821539D01*
X172830659Y-85824977D01*
X172811296Y-85828988D01*
X172791203Y-85831526D01*
X172783836Y-85834443D01*
X172783831Y-85834444D01*
X172750092Y-85847802D01*
X172738865Y-85851646D01*
X172696407Y-85863982D01*
X172689581Y-85868019D01*
X172678972Y-85874293D01*
X172661224Y-85882988D01*
X172642383Y-85890448D01*
X172635967Y-85895110D01*
X172635966Y-85895110D01*
X172606613Y-85916436D01*
X172596693Y-85922952D01*
X172565465Y-85941420D01*
X172565462Y-85941422D01*
X172558638Y-85945458D01*
X172544317Y-85959779D01*
X172529284Y-85972619D01*
X172512893Y-85984528D01*
X172507842Y-85990633D01*
X172507837Y-85990638D01*
X172484701Y-86018604D01*
X172476713Y-86027382D01*
X171854500Y-86649595D01*
X171792188Y-86683621D01*
X171765405Y-86686500D01*
X171619394Y-86686500D01*
X171551273Y-86666498D01*
X171516181Y-86632771D01*
X171409357Y-86480211D01*
X171409355Y-86480208D01*
X171406198Y-86475700D01*
X171244300Y-86313802D01*
X171239792Y-86310645D01*
X171239789Y-86310643D01*
X171161611Y-86255902D01*
X171056749Y-86182477D01*
X171051767Y-86180154D01*
X171051762Y-86180151D01*
X170854225Y-86088039D01*
X170854224Y-86088039D01*
X170849243Y-86085716D01*
X170843935Y-86084294D01*
X170843933Y-86084293D01*
X170633402Y-86027881D01*
X170633400Y-86027881D01*
X170628087Y-86026457D01*
X170400000Y-86006502D01*
X170394525Y-86006981D01*
X170393114Y-86006981D01*
X170324993Y-85986979D01*
X170278500Y-85933323D01*
X170268396Y-85863049D01*
X170297890Y-85798469D01*
X170304019Y-85791885D01*
X170438665Y-85657240D01*
X170732034Y-85363871D01*
X170740313Y-85356337D01*
X170746794Y-85352224D01*
X170793420Y-85302572D01*
X170796174Y-85299731D01*
X170815911Y-85279994D01*
X170818391Y-85276797D01*
X170826096Y-85267775D01*
X170850935Y-85241324D01*
X170856362Y-85235545D01*
X170860181Y-85228599D01*
X170860183Y-85228596D01*
X170866124Y-85217790D01*
X170876975Y-85201271D01*
X170884534Y-85191525D01*
X170889390Y-85185265D01*
X170892535Y-85177996D01*
X170892538Y-85177992D01*
X170906950Y-85144687D01*
X170912167Y-85134037D01*
X170933471Y-85095284D01*
X170938509Y-85075661D01*
X170944913Y-85056958D01*
X170949809Y-85045644D01*
X170949809Y-85045643D01*
X170952957Y-85038369D01*
X170954196Y-85030546D01*
X170954199Y-85030536D01*
X170959875Y-84994700D01*
X170962281Y-84983080D01*
X170971304Y-84947935D01*
X170971304Y-84947934D01*
X170973276Y-84940254D01*
X170973276Y-84920000D01*
X170974827Y-84900289D01*
X170976756Y-84888110D01*
X170977996Y-84880281D01*
X170973835Y-84836262D01*
X170973276Y-84824405D01*
X170973276Y-84419394D01*
X170993278Y-84351273D01*
X171027005Y-84316181D01*
X171179565Y-84209357D01*
X171179568Y-84209355D01*
X171184076Y-84206198D01*
X171345974Y-84044300D01*
X171354301Y-84032409D01*
X171474142Y-83861257D01*
X171477299Y-83856749D01*
X171479622Y-83851767D01*
X171479625Y-83851762D01*
X171571737Y-83654225D01*
X171571737Y-83654224D01*
X171574060Y-83649243D01*
X171607588Y-83524118D01*
X171631895Y-83433402D01*
X171631895Y-83433400D01*
X171633319Y-83428087D01*
X171653274Y-83200000D01*
X171633319Y-82971913D01*
X171574060Y-82750757D01*
X171531276Y-82659006D01*
X171479625Y-82548238D01*
X171479622Y-82548233D01*
X171477299Y-82543251D01*
X171403874Y-82438389D01*
X171349133Y-82360211D01*
X171349131Y-82360208D01*
X171345974Y-82355700D01*
X171184076Y-82193802D01*
X171179568Y-82190645D01*
X171179565Y-82190643D01*
X171101387Y-82135902D01*
X170996525Y-82062477D01*
X170991543Y-82060154D01*
X170991538Y-82060151D01*
X170794001Y-81968039D01*
X170794000Y-81968039D01*
X170789019Y-81965716D01*
X170783711Y-81964294D01*
X170783709Y-81964293D01*
X170573178Y-81907881D01*
X170573176Y-81907881D01*
X170567863Y-81906457D01*
X170339776Y-81886502D01*
X170111689Y-81906457D01*
X170106376Y-81907881D01*
X170106374Y-81907881D01*
X169895843Y-81964293D01*
X169895841Y-81964294D01*
X169890533Y-81965716D01*
X169885552Y-81968039D01*
X169885551Y-81968039D01*
X169688014Y-82060151D01*
X169688009Y-82060154D01*
X169683027Y-82062477D01*
X169578165Y-82135902D01*
X169499987Y-82190643D01*
X169499984Y-82190645D01*
X169495476Y-82193802D01*
X169349776Y-82339502D01*
X169287464Y-82373528D01*
X169216649Y-82368463D01*
X169159813Y-82325916D01*
X169142644Y-82289263D01*
X169141521Y-82289684D01*
X169093543Y-82161703D01*
X169090391Y-82153295D01*
X169003037Y-82036739D01*
X168886481Y-81949385D01*
X168750092Y-81898255D01*
X168687910Y-81891500D01*
X166991642Y-81891500D01*
X166929460Y-81898255D01*
X166793071Y-81949385D01*
X166676515Y-82036739D01*
X166589161Y-82153295D01*
X166538031Y-82289684D01*
X166531276Y-82351866D01*
X166531276Y-83520629D01*
X166511274Y-83588750D01*
X166494371Y-83609724D01*
X166094500Y-84009595D01*
X166032188Y-84043621D01*
X166005405Y-84046500D01*
X164276805Y-84046500D01*
X164208684Y-84026498D01*
X164171013Y-83988940D01*
X164082822Y-83852617D01*
X164082820Y-83852614D01*
X164080014Y-83848277D01*
X163929670Y-83683051D01*
X163925619Y-83679852D01*
X163925615Y-83679848D01*
X163758414Y-83547800D01*
X163758410Y-83547798D01*
X163754359Y-83544598D01*
X163558789Y-83436638D01*
X163553920Y-83434914D01*
X163553916Y-83434912D01*
X163353087Y-83363795D01*
X163353083Y-83363794D01*
X163348212Y-83362069D01*
X163343119Y-83361162D01*
X163343116Y-83361161D01*
X163133373Y-83323800D01*
X163133367Y-83323799D01*
X163128284Y-83322894D01*
X163054452Y-83321992D01*
X162910081Y-83320228D01*
X162910079Y-83320228D01*
X162904911Y-83320165D01*
X162684091Y-83353955D01*
X162471756Y-83423357D01*
X162441443Y-83439137D01*
X162284899Y-83520629D01*
X162273607Y-83526507D01*
X162269474Y-83529610D01*
X162269471Y-83529612D01*
X162103502Y-83654225D01*
X162094965Y-83660635D01*
X161940629Y-83822138D01*
X161814743Y-84006680D01*
X161720688Y-84209305D01*
X161660989Y-84424570D01*
X161637251Y-84646695D01*
X161650110Y-84869715D01*
X161651247Y-84874761D01*
X161651248Y-84874767D01*
X161657000Y-84900289D01*
X161699222Y-85087639D01*
X161752172Y-85218039D01*
X161777329Y-85279994D01*
X161783266Y-85294616D01*
X161899987Y-85485088D01*
X162046250Y-85653938D01*
X162122846Y-85717529D01*
X162214054Y-85793251D01*
X162218126Y-85796632D01*
X162411000Y-85909338D01*
X162415825Y-85911180D01*
X162415826Y-85911181D01*
X162438730Y-85919927D01*
X162619692Y-85989030D01*
X162624760Y-85990061D01*
X162624763Y-85990062D01*
X162703431Y-86006067D01*
X162838597Y-86033567D01*
X162843772Y-86033757D01*
X162843774Y-86033757D01*
X163056673Y-86041564D01*
X163056677Y-86041564D01*
X163061837Y-86041753D01*
X163066957Y-86041097D01*
X163066959Y-86041097D01*
X163278288Y-86014025D01*
X163278289Y-86014025D01*
X163283416Y-86013368D01*
X163304705Y-86006981D01*
X163492429Y-85950661D01*
X163492434Y-85950659D01*
X163497384Y-85949174D01*
X163697994Y-85850896D01*
X163879860Y-85721173D01*
X164038096Y-85563489D01*
X164097594Y-85480689D01*
X164165435Y-85386277D01*
X164168453Y-85382077D01*
X164170746Y-85377437D01*
X164172446Y-85374608D01*
X164224674Y-85326518D01*
X164280451Y-85313500D01*
X166241233Y-85313500D01*
X166252416Y-85314027D01*
X166259909Y-85315702D01*
X166267835Y-85315453D01*
X166267836Y-85315453D01*
X166327986Y-85313562D01*
X166331945Y-85313500D01*
X166359856Y-85313500D01*
X166363791Y-85313003D01*
X166363856Y-85312995D01*
X166375693Y-85312062D01*
X166407951Y-85311048D01*
X166411970Y-85310922D01*
X166419889Y-85310673D01*
X166439343Y-85305021D01*
X166458700Y-85301013D01*
X166470930Y-85299468D01*
X166470931Y-85299468D01*
X166478797Y-85298474D01*
X166486168Y-85295555D01*
X166486170Y-85295555D01*
X166519912Y-85282196D01*
X166531142Y-85278351D01*
X166565983Y-85268229D01*
X166565984Y-85268229D01*
X166573593Y-85266018D01*
X166580412Y-85261985D01*
X166580417Y-85261983D01*
X166591028Y-85255707D01*
X166608776Y-85247012D01*
X166627617Y-85239552D01*
X166663387Y-85213564D01*
X166673307Y-85207048D01*
X166704535Y-85188580D01*
X166704538Y-85188578D01*
X166711362Y-85184542D01*
X166725683Y-85170221D01*
X166740717Y-85157380D01*
X166757107Y-85145472D01*
X166785298Y-85111395D01*
X166793288Y-85102616D01*
X167350499Y-84545405D01*
X167412811Y-84511379D01*
X167439594Y-84508500D01*
X168687910Y-84508500D01*
X168750092Y-84501745D01*
X168886481Y-84450615D01*
X169003037Y-84363261D01*
X169090391Y-84246705D01*
X169141521Y-84110316D01*
X169143467Y-84111046D01*
X169173321Y-84058795D01*
X169236279Y-84025979D01*
X169306983Y-84032409D01*
X169349776Y-84060498D01*
X169495476Y-84206198D01*
X169499984Y-84209355D01*
X169499987Y-84209357D01*
X169652547Y-84316181D01*
X169696875Y-84371638D01*
X169706276Y-84419394D01*
X169706276Y-84545630D01*
X169686274Y-84613751D01*
X169669371Y-84634725D01*
X168586566Y-85717529D01*
X167607747Y-86696348D01*
X167599461Y-86703888D01*
X167592982Y-86708000D01*
X167587557Y-86713777D01*
X167546357Y-86757651D01*
X167543602Y-86760493D01*
X167523865Y-86780230D01*
X167521385Y-86783427D01*
X167513682Y-86792447D01*
X167483414Y-86824679D01*
X167479595Y-86831625D01*
X167479593Y-86831628D01*
X167473652Y-86842434D01*
X167462801Y-86858953D01*
X167450386Y-86874959D01*
X167447241Y-86882228D01*
X167447238Y-86882232D01*
X167432826Y-86915537D01*
X167427609Y-86926187D01*
X167406305Y-86964940D01*
X167404334Y-86972615D01*
X167404334Y-86972616D01*
X167401267Y-86984562D01*
X167394863Y-87003266D01*
X167386819Y-87021855D01*
X167385580Y-87029678D01*
X167385577Y-87029688D01*
X167379901Y-87065524D01*
X167377495Y-87077144D01*
X167371175Y-87101762D01*
X167366500Y-87119970D01*
X167366500Y-87140224D01*
X167364949Y-87159934D01*
X167361780Y-87179943D01*
X167362526Y-87187835D01*
X167365941Y-87223961D01*
X167366500Y-87235819D01*
X167366500Y-95001233D01*
X167365973Y-95012416D01*
X167364298Y-95019909D01*
X167364547Y-95027835D01*
X167364547Y-95027836D01*
X167366438Y-95087986D01*
X167366500Y-95091945D01*
X167366500Y-95119856D01*
X167366997Y-95123790D01*
X167366997Y-95123791D01*
X167367005Y-95123856D01*
X167367938Y-95135693D01*
X167369327Y-95179889D01*
X167374978Y-95199339D01*
X167378987Y-95218700D01*
X167381526Y-95238797D01*
X167384445Y-95246168D01*
X167384445Y-95246170D01*
X167397804Y-95279912D01*
X167401649Y-95291142D01*
X167413982Y-95333593D01*
X167418015Y-95340412D01*
X167418017Y-95340417D01*
X167424293Y-95351028D01*
X167432988Y-95368776D01*
X167440448Y-95387617D01*
X167445110Y-95394033D01*
X167445110Y-95394034D01*
X167466436Y-95423387D01*
X167472952Y-95433307D01*
X167495458Y-95471362D01*
X167509779Y-95485683D01*
X167522619Y-95500716D01*
X167534528Y-95517107D01*
X167540634Y-95522158D01*
X167568605Y-95545298D01*
X167577384Y-95553288D01*
X169090848Y-97066752D01*
X169124874Y-97129064D01*
X169123459Y-97188459D01*
X169107882Y-97246591D01*
X169107881Y-97246598D01*
X169106457Y-97251913D01*
X169086502Y-97480000D01*
X169106457Y-97708087D01*
X169107881Y-97713400D01*
X169107881Y-97713402D01*
X169126232Y-97781886D01*
X169165716Y-97929243D01*
X169168039Y-97934224D01*
X169168039Y-97934225D01*
X169260151Y-98131762D01*
X169260154Y-98131767D01*
X169262477Y-98136749D01*
X169327120Y-98229068D01*
X169381046Y-98306082D01*
X169393802Y-98324300D01*
X169555700Y-98486198D01*
X169560208Y-98489355D01*
X169560211Y-98489357D01*
X169613104Y-98526393D01*
X169743251Y-98617523D01*
X169748233Y-98619846D01*
X169748238Y-98619849D01*
X169895336Y-98688441D01*
X169950757Y-98714284D01*
X169956065Y-98715706D01*
X169956067Y-98715707D01*
X170166598Y-98772119D01*
X170166600Y-98772119D01*
X170171913Y-98773543D01*
X170400000Y-98793498D01*
X170628087Y-98773543D01*
X170633400Y-98772119D01*
X170633402Y-98772119D01*
X170843933Y-98715707D01*
X170843935Y-98715706D01*
X170849243Y-98714284D01*
X170904664Y-98688441D01*
X171051762Y-98619849D01*
X171051767Y-98619846D01*
X171056749Y-98617523D01*
X171186896Y-98526393D01*
X171239789Y-98489357D01*
X171239792Y-98489355D01*
X171244300Y-98486198D01*
X171406198Y-98324300D01*
X171418955Y-98306082D01*
X171472880Y-98229068D01*
X171537523Y-98136749D01*
X171539846Y-98131767D01*
X171539849Y-98131762D01*
X171631961Y-97934225D01*
X171631961Y-97934224D01*
X171634284Y-97929243D01*
X171673769Y-97781886D01*
X171692119Y-97713402D01*
X171692119Y-97713400D01*
X171693543Y-97708087D01*
X171713498Y-97480000D01*
X171693543Y-97251913D01*
X171681294Y-97206198D01*
X171635707Y-97036067D01*
X171635706Y-97036065D01*
X171634284Y-97030757D01*
X171590077Y-96935954D01*
X171539849Y-96828238D01*
X171539846Y-96828233D01*
X171537523Y-96823251D01*
X171452903Y-96702401D01*
X171409357Y-96640211D01*
X171409355Y-96640208D01*
X171406198Y-96635700D01*
X171244300Y-96473802D01*
X171239792Y-96470645D01*
X171239789Y-96470643D01*
X171161611Y-96415902D01*
X171056749Y-96342477D01*
X171051767Y-96340154D01*
X171051762Y-96340151D01*
X170854225Y-96248039D01*
X170854224Y-96248039D01*
X170849243Y-96245716D01*
X170843935Y-96244294D01*
X170843933Y-96244293D01*
X170633402Y-96187881D01*
X170633400Y-96187881D01*
X170628087Y-96186457D01*
X170400000Y-96166502D01*
X170171913Y-96186457D01*
X170166602Y-96187880D01*
X170166591Y-96187882D01*
X170108459Y-96203459D01*
X170037483Y-96201770D01*
X169986752Y-96170848D01*
X169639039Y-95823134D01*
X172841500Y-95823134D01*
X172848255Y-95885316D01*
X172899385Y-96021705D01*
X172986739Y-96138261D01*
X173103295Y-96225615D01*
X173239684Y-96276745D01*
X173301866Y-96283500D01*
X175098134Y-96283500D01*
X175160316Y-96276745D01*
X175296705Y-96225615D01*
X175413261Y-96138261D01*
X175500615Y-96021705D01*
X175551745Y-95885316D01*
X175558500Y-95823134D01*
X175558500Y-94026866D01*
X175551745Y-93964684D01*
X175500615Y-93828295D01*
X175413261Y-93711739D01*
X175296705Y-93624385D01*
X175160316Y-93573255D01*
X175098134Y-93566500D01*
X173301866Y-93566500D01*
X173239684Y-93573255D01*
X173103295Y-93624385D01*
X172986739Y-93711739D01*
X172899385Y-93828295D01*
X172848255Y-93964684D01*
X172841500Y-94026866D01*
X172841500Y-95823134D01*
X169639039Y-95823134D01*
X169333012Y-95517107D01*
X168670405Y-94854500D01*
X168636379Y-94792188D01*
X168633500Y-94765405D01*
X168633500Y-87514594D01*
X168653502Y-87446473D01*
X168670405Y-87425499D01*
X168871886Y-87224018D01*
X168934198Y-87189992D01*
X169005013Y-87195057D01*
X169061849Y-87237604D01*
X169086660Y-87304124D01*
X169086981Y-87313113D01*
X169086981Y-87314525D01*
X169086502Y-87320000D01*
X169106457Y-87548087D01*
X169165716Y-87769243D01*
X169168039Y-87774224D01*
X169168039Y-87774225D01*
X169260151Y-87971762D01*
X169260154Y-87971767D01*
X169262477Y-87976749D01*
X169335902Y-88081611D01*
X169382450Y-88148087D01*
X169393802Y-88164300D01*
X169555700Y-88326198D01*
X169560208Y-88329355D01*
X169560211Y-88329357D01*
X169572329Y-88337842D01*
X169743251Y-88457523D01*
X169748233Y-88459846D01*
X169748238Y-88459849D01*
X169945775Y-88551961D01*
X169950757Y-88554284D01*
X169956065Y-88555706D01*
X169956067Y-88555707D01*
X170166598Y-88612119D01*
X170166600Y-88612119D01*
X170171913Y-88613543D01*
X170400000Y-88633498D01*
X170628087Y-88613543D01*
X170633400Y-88612119D01*
X170633402Y-88612119D01*
X170843933Y-88555707D01*
X170843935Y-88555706D01*
X170849243Y-88554284D01*
X170854225Y-88551961D01*
X171051762Y-88459849D01*
X171051767Y-88459846D01*
X171056749Y-88457523D01*
X171227671Y-88337842D01*
X171239789Y-88329357D01*
X171239792Y-88329355D01*
X171244300Y-88326198D01*
X171406198Y-88164300D01*
X171413831Y-88153399D01*
X171516181Y-88007229D01*
X171571638Y-87962901D01*
X171619394Y-87953500D01*
X172001233Y-87953500D01*
X172012416Y-87954027D01*
X172019909Y-87955702D01*
X172027835Y-87955453D01*
X172027836Y-87955453D01*
X172087986Y-87953562D01*
X172091945Y-87953500D01*
X172119856Y-87953500D01*
X172123791Y-87953003D01*
X172123856Y-87952995D01*
X172135693Y-87952062D01*
X172167951Y-87951048D01*
X172171970Y-87950922D01*
X172179889Y-87950673D01*
X172199343Y-87945021D01*
X172218700Y-87941013D01*
X172230930Y-87939468D01*
X172230931Y-87939468D01*
X172238797Y-87938474D01*
X172246168Y-87935555D01*
X172246170Y-87935555D01*
X172279912Y-87922196D01*
X172291142Y-87918351D01*
X172325983Y-87908229D01*
X172325984Y-87908229D01*
X172333593Y-87906018D01*
X172340412Y-87901985D01*
X172340417Y-87901983D01*
X172351028Y-87895707D01*
X172368776Y-87887012D01*
X172387617Y-87879552D01*
X172423387Y-87853564D01*
X172433307Y-87847048D01*
X172464535Y-87828580D01*
X172464538Y-87828578D01*
X172471362Y-87824542D01*
X172485683Y-87810221D01*
X172500717Y-87797380D01*
X172510694Y-87790131D01*
X172517107Y-87785472D01*
X172522158Y-87779367D01*
X172522163Y-87779362D01*
X172545299Y-87751396D01*
X172553287Y-87742618D01*
X173009221Y-87286684D01*
X173071533Y-87252658D01*
X173142348Y-87257723D01*
X173193463Y-87293817D01*
X173193802Y-87294300D01*
X173355700Y-87456198D01*
X173360208Y-87459355D01*
X173360211Y-87459357D01*
X173512771Y-87566181D01*
X173557099Y-87621638D01*
X173566500Y-87669394D01*
X173566500Y-88566692D01*
X173546498Y-88634813D01*
X173498683Y-88678453D01*
X173473607Y-88691507D01*
X173469474Y-88694610D01*
X173469471Y-88694612D01*
X173319879Y-88806929D01*
X173294965Y-88825635D01*
X173140629Y-88987138D01*
X173137715Y-88991410D01*
X173137714Y-88991411D01*
X173084975Y-89068724D01*
X173014743Y-89171680D01*
X172988582Y-89228039D01*
X172944746Y-89322477D01*
X172920688Y-89374305D01*
X172860989Y-89589570D01*
X172837251Y-89811695D01*
X172837548Y-89816848D01*
X172837548Y-89816851D01*
X172847524Y-89989870D01*
X172850110Y-90034715D01*
X172851247Y-90039761D01*
X172851248Y-90039767D01*
X172870750Y-90126301D01*
X172899222Y-90252639D01*
X172983266Y-90459616D01*
X172986858Y-90465477D01*
X173089791Y-90633449D01*
X173099987Y-90650088D01*
X173246250Y-90818938D01*
X173418126Y-90961632D01*
X173611000Y-91074338D01*
X173615825Y-91076180D01*
X173615826Y-91076181D01*
X173673538Y-91098219D01*
X173819692Y-91154030D01*
X173824760Y-91155061D01*
X173824763Y-91155062D01*
X173932017Y-91176883D01*
X174038597Y-91198567D01*
X174043772Y-91198757D01*
X174043774Y-91198757D01*
X174256673Y-91206564D01*
X174256677Y-91206564D01*
X174261837Y-91206753D01*
X174266957Y-91206097D01*
X174266959Y-91206097D01*
X174478288Y-91179025D01*
X174478289Y-91179025D01*
X174483416Y-91178368D01*
X174561099Y-91155062D01*
X174692431Y-91115660D01*
X174697384Y-91114174D01*
X174710046Y-91107971D01*
X174779164Y-91097580D01*
X174779191Y-91096730D01*
X174783843Y-91096876D01*
X174785188Y-91096674D01*
X174794943Y-91098219D01*
X174802835Y-91097473D01*
X174808062Y-91096979D01*
X174838954Y-91094059D01*
X174850811Y-91093500D01*
X176960606Y-91093500D01*
X177028727Y-91113502D01*
X177063819Y-91147229D01*
X177170643Y-91299789D01*
X177173802Y-91304300D01*
X177335700Y-91466198D01*
X177340208Y-91469355D01*
X177340211Y-91469357D01*
X177354711Y-91479510D01*
X177523251Y-91597523D01*
X177528233Y-91599846D01*
X177528238Y-91599849D01*
X177562457Y-91615805D01*
X177615742Y-91662722D01*
X177635203Y-91730999D01*
X177614661Y-91798959D01*
X177562457Y-91844195D01*
X177528238Y-91860151D01*
X177528233Y-91860154D01*
X177523251Y-91862477D01*
X177433404Y-91925389D01*
X177340211Y-91990643D01*
X177340208Y-91990645D01*
X177335700Y-91993802D01*
X177173802Y-92155700D01*
X177042477Y-92343251D01*
X177040154Y-92348233D01*
X177040151Y-92348238D01*
X176984195Y-92468237D01*
X176945716Y-92550757D01*
X176944294Y-92556065D01*
X176944293Y-92556067D01*
X176901724Y-92714935D01*
X176886457Y-92771913D01*
X176866502Y-93000000D01*
X176886457Y-93228087D01*
X176887881Y-93233400D01*
X176887881Y-93233402D01*
X176940934Y-93431395D01*
X176945716Y-93449243D01*
X176948039Y-93454224D01*
X176948039Y-93454225D01*
X177040151Y-93651762D01*
X177040154Y-93651767D01*
X177042477Y-93656749D01*
X177103687Y-93744166D01*
X177168483Y-93836703D01*
X177173802Y-93844300D01*
X177335700Y-94006198D01*
X177340208Y-94009355D01*
X177340211Y-94009357D01*
X177381542Y-94038297D01*
X177523251Y-94137523D01*
X177528233Y-94139846D01*
X177528238Y-94139849D01*
X177725775Y-94231961D01*
X177730757Y-94234284D01*
X177736065Y-94235706D01*
X177736067Y-94235707D01*
X177946598Y-94292119D01*
X177946600Y-94292119D01*
X177951913Y-94293543D01*
X178180000Y-94313498D01*
X178408087Y-94293543D01*
X178413400Y-94292119D01*
X178413402Y-94292119D01*
X178623933Y-94235707D01*
X178623935Y-94235706D01*
X178629243Y-94234284D01*
X178634225Y-94231961D01*
X178831762Y-94139849D01*
X178831767Y-94139846D01*
X178836749Y-94137523D01*
X178978458Y-94038297D01*
X179019789Y-94009357D01*
X179019792Y-94009355D01*
X179024300Y-94006198D01*
X179186198Y-93844300D01*
X179191518Y-93836703D01*
X179256313Y-93744166D01*
X179317523Y-93656749D01*
X179319846Y-93651767D01*
X179319849Y-93651762D01*
X179411961Y-93454225D01*
X179411961Y-93454224D01*
X179414284Y-93449243D01*
X179419067Y-93431395D01*
X179472119Y-93233402D01*
X179472119Y-93233400D01*
X179473543Y-93228087D01*
X179493498Y-93000000D01*
X179473543Y-92771913D01*
X179472119Y-92766598D01*
X179472118Y-92766591D01*
X179456541Y-92708459D01*
X179458230Y-92637483D01*
X179489152Y-92586752D01*
X180131157Y-91944747D01*
X180156112Y-91925389D01*
X180184535Y-91908580D01*
X180184538Y-91908578D01*
X180191362Y-91904542D01*
X180205683Y-91890221D01*
X180220717Y-91877380D01*
X180230694Y-91870131D01*
X180237107Y-91865472D01*
X180265298Y-91831395D01*
X180273288Y-91822616D01*
X182380500Y-89715405D01*
X182442812Y-89681379D01*
X182469595Y-89678500D01*
X183750081Y-89678500D01*
X183818202Y-89698502D01*
X183864695Y-89752158D01*
X183874799Y-89822432D01*
X183845305Y-89887012D01*
X183824146Y-89906432D01*
X183796617Y-89926433D01*
X183786707Y-89932943D01*
X183781305Y-89936138D01*
X183748637Y-89955458D01*
X183734313Y-89969782D01*
X183719281Y-89982621D01*
X183702893Y-89994528D01*
X183674712Y-90028593D01*
X183666722Y-90037373D01*
X180257747Y-93446348D01*
X180249461Y-93453888D01*
X180242982Y-93458000D01*
X180199277Y-93504542D01*
X180196357Y-93507651D01*
X180193602Y-93510493D01*
X180173865Y-93530230D01*
X180171385Y-93533427D01*
X180163682Y-93542447D01*
X180133414Y-93574679D01*
X180129595Y-93581625D01*
X180129593Y-93581628D01*
X180123652Y-93592434D01*
X180112801Y-93608953D01*
X180100386Y-93624959D01*
X180097241Y-93632228D01*
X180097238Y-93632232D01*
X180082826Y-93665537D01*
X180077609Y-93676187D01*
X180056305Y-93714940D01*
X180054334Y-93722615D01*
X180054334Y-93722616D01*
X180051267Y-93734562D01*
X180044863Y-93753266D01*
X180036819Y-93771855D01*
X180035580Y-93779678D01*
X180035577Y-93779688D01*
X180029901Y-93815524D01*
X180027495Y-93827144D01*
X180022106Y-93848134D01*
X180016500Y-93869970D01*
X180016500Y-93890224D01*
X180014949Y-93909934D01*
X180011780Y-93929943D01*
X180012526Y-93937835D01*
X180015941Y-93973961D01*
X180016500Y-93985819D01*
X180016500Y-94980606D01*
X179996498Y-95048727D01*
X179962771Y-95083819D01*
X179810211Y-95190643D01*
X179810208Y-95190645D01*
X179805700Y-95193802D01*
X179643802Y-95355700D01*
X179640645Y-95360208D01*
X179640643Y-95360211D01*
X179621453Y-95387617D01*
X179512477Y-95543251D01*
X179510154Y-95548233D01*
X179510151Y-95548238D01*
X179418039Y-95745775D01*
X179415716Y-95750757D01*
X179414294Y-95756065D01*
X179414293Y-95756067D01*
X179395412Y-95826531D01*
X179356457Y-95971913D01*
X179336502Y-96200000D01*
X179356457Y-96428087D01*
X179357881Y-96433400D01*
X179357881Y-96433402D01*
X179369751Y-96477699D01*
X179415716Y-96649243D01*
X179418039Y-96654224D01*
X179418039Y-96654225D01*
X179510151Y-96851762D01*
X179510154Y-96851767D01*
X179512477Y-96856749D01*
X179515634Y-96861257D01*
X179630831Y-97025775D01*
X179643802Y-97044300D01*
X179805700Y-97206198D01*
X179810208Y-97209355D01*
X179810211Y-97209357D01*
X179962771Y-97316181D01*
X180007099Y-97371638D01*
X180016500Y-97419394D01*
X180016500Y-99035405D01*
X179996498Y-99103526D01*
X179979595Y-99124500D01*
X178934724Y-100169371D01*
X178872412Y-100203397D01*
X178845629Y-100206276D01*
X165434500Y-100206276D01*
X165366379Y-100186274D01*
X165319886Y-100132618D01*
X165308500Y-100080276D01*
X165308500Y-99991642D01*
X165301745Y-99929460D01*
X165250615Y-99793071D01*
X165163261Y-99676515D01*
X165046705Y-99589161D01*
X164910316Y-99538031D01*
X164848134Y-99531276D01*
X164759500Y-99531276D01*
X164691379Y-99511274D01*
X164644886Y-99457618D01*
X164633500Y-99405276D01*
X164633500Y-98458768D01*
X164634027Y-98447585D01*
X164635702Y-98440092D01*
X164633562Y-98372001D01*
X164633500Y-98368044D01*
X164633500Y-98340144D01*
X164632996Y-98336153D01*
X164632063Y-98324311D01*
X164630923Y-98288036D01*
X164630674Y-98280111D01*
X164625021Y-98260652D01*
X164621012Y-98241293D01*
X164620846Y-98239983D01*
X164618474Y-98221203D01*
X164615558Y-98213837D01*
X164615556Y-98213831D01*
X164602200Y-98180098D01*
X164598355Y-98168868D01*
X164588230Y-98134017D01*
X164588230Y-98134016D01*
X164586019Y-98126407D01*
X164575705Y-98108966D01*
X164567008Y-98091213D01*
X164562472Y-98079758D01*
X164559552Y-98072383D01*
X164533563Y-98036612D01*
X164527047Y-98026692D01*
X164508578Y-97995463D01*
X164504542Y-97988638D01*
X164490221Y-97974317D01*
X164477380Y-97959283D01*
X164470131Y-97949306D01*
X164465472Y-97942893D01*
X164431395Y-97914702D01*
X164422616Y-97906712D01*
X164351219Y-97835315D01*
X164317193Y-97773003D01*
X164319755Y-97709593D01*
X164330866Y-97673019D01*
X164332370Y-97668069D01*
X164361529Y-97446590D01*
X164361851Y-97433398D01*
X164363074Y-97383365D01*
X164363074Y-97383361D01*
X164363156Y-97380000D01*
X164344852Y-97157361D01*
X164290431Y-96940702D01*
X164201354Y-96735840D01*
X164136571Y-96635700D01*
X164082822Y-96552617D01*
X164082820Y-96552614D01*
X164080014Y-96548277D01*
X163929670Y-96383051D01*
X163925619Y-96379852D01*
X163925615Y-96379848D01*
X163758414Y-96247800D01*
X163758410Y-96247798D01*
X163754359Y-96244598D01*
X163710215Y-96220229D01*
X163702136Y-96215769D01*
X163558789Y-96136638D01*
X163553920Y-96134914D01*
X163553916Y-96134912D01*
X163353087Y-96063795D01*
X163353083Y-96063794D01*
X163348212Y-96062069D01*
X163343119Y-96061162D01*
X163343116Y-96061161D01*
X163133373Y-96023800D01*
X163133367Y-96023799D01*
X163128284Y-96022894D01*
X163054452Y-96021992D01*
X162910081Y-96020228D01*
X162910079Y-96020228D01*
X162904911Y-96020165D01*
X162684091Y-96053955D01*
X162471756Y-96123357D01*
X162443126Y-96138261D01*
X162281712Y-96222288D01*
X162273607Y-96226507D01*
X162269474Y-96229610D01*
X162269471Y-96229612D01*
X162197699Y-96283500D01*
X162094965Y-96360635D01*
X161940629Y-96522138D01*
X161814743Y-96706680D01*
X161799003Y-96740590D01*
X161745084Y-96856749D01*
X161720688Y-96909305D01*
X161660989Y-97124570D01*
X161637251Y-97346695D01*
X160508500Y-97346695D01*
X160508500Y-78834500D01*
X160528502Y-78766379D01*
X160582158Y-78719886D01*
X160634500Y-78708500D01*
X197965500Y-78708500D01*
X198033621Y-78728502D01*
G37*
%TD.AperFunction*%
%TD*%
M02*
