M48
; DRILL file {KiCad (6.0.11)} date Tue 30 May 2023 10:34:47 BST
; FORMAT={-:-/ absolute / inch / decimal}
; #@! TF.CreationDate,2023-05-30T10:34:47+01:00
; #@! TF.GenerationSoftware,Kicad,Pcbnew,(6.0.11)
; #@! TF.FileFunction,MixedPlating,1,2
FMAT,2
INCH
; #@! TA.AperFunction,Plated,PTH,ComponentDrill
T1C0.0315
; #@! TA.AperFunction,Plated,PTH,ComponentDrill
T2C0.0394
%
G90
G05
T1
X6.5236Y-3.4803
X6.5236Y-3.5787
X6.7087Y-3.4378
X6.7087Y-3.8378
X6.8583Y-3.3051
X6.8583Y-3.4035
X7.0Y-3.325
X7.0Y-3.425
X7.0Y-3.525
X7.0Y-3.625
X7.0138Y-3.7874
X7.1122Y-3.7874
X7.2126Y-3.7874
X7.3Y-3.325
X7.3Y-3.425
X7.3Y-3.525
X7.3Y-3.625
X7.311Y-3.7874
X7.3118Y-3.9213
X7.5039Y-3.5817
X7.5039Y-3.6801
X7.5075Y-3.3126
X7.5075Y-3.411
X7.7118Y-3.9213
T2
X6.4173Y-3.2339
X6.4173Y-3.3339
X6.4173Y-3.7339
X6.4173Y-3.8339
X6.8583Y-3.5372
X6.8583Y-3.6372
X6.8583Y-3.7372
X7.7173Y-3.5341
X7.7173Y-3.6341
T0
M30
